<svg width="89" height="89" viewBox="0 0 89 89" fill="none" xmlns="http://www.w3.org/2000/svg">
<g clip-path="url(#clip0_15_626)">
<path d="M3.55481 54.412L15.0366 52.4919C16.6972 52.2195 17.813 50.6367 17.5405 48.976C17.2681 47.3154 15.6853 46.1996 14.0246 46.4721L2.54286 48.3922C0.882219 48.6647 -0.233525 50.2475 0.0389241 51.9081C0.311373 53.5687 1.89417 54.6845 3.55481 54.412Z" fill="#FFAD00"/>
<path d="M85.4452 34.5102L73.9634 36.4303C72.3028 36.7027 71.1871 38.2855 71.4595 39.9462C71.732 41.6068 73.3148 42.7226 74.9754 42.4501L86.4572 40.53C88.1178 40.2576 89.2336 38.6748 88.9611 37.0141C88.6887 35.3535 87.1059 34.2377 85.4452 34.5102Z" fill="#FFAD00"/>
<path d="M39.7516 17.5406C41.4122 17.2681 42.528 15.6853 42.2555 14.0247L40.3354 2.54292C40.063 0.88228 38.4802 -0.233464 36.8195 0.0389851C35.1589 0.311434 34.0431 1.89423 34.3156 3.55487L36.2357 15.0367C36.5082 16.6973 38.091 17.813 39.7516 17.5406Z" fill="#FFAD00"/>
<path d="M46.2903 74.9753L48.2104 86.4571C48.4829 88.1177 50.0657 89.2334 51.7263 88.961C53.387 88.6885 54.5027 87.1057 54.2303 85.4451L52.3102 73.9633C52.0377 72.3027 50.4549 71.1869 48.7943 71.4594C47.1336 71.7318 46.0179 73.3146 46.2903 74.9753Z" fill="#FFAD00"/>
<path d="M17.7611 29.3338C18.4487 29.8268 19.2661 29.9825 20.0315 29.8527C20.797 29.723 21.5235 29.2949 22.0165 28.6202C22.9895 27.245 22.6782 25.3508 21.3029 24.3648L11.8321 17.6055C10.4569 16.6325 8.56271 16.9438 7.5767 18.3191C6.60367 19.6943 6.91504 21.5885 8.29026 22.5745L17.7611 29.3338Z" fill="#FFAD00"/>
<path d="M66.5295 60.3669C65.5564 61.7421 65.8678 63.6363 67.243 64.6223L76.7139 71.3816C77.4015 71.8746 78.2188 72.0303 78.9843 71.9006C79.7497 71.7709 80.4763 71.3427 80.9693 70.6681C81.9423 69.2929 81.6309 67.3987 80.2557 66.4127L70.7849 59.6534C69.4096 58.6803 67.5155 58.9917 66.5295 60.3669Z" fill="#FFAD00"/>
<path d="M62.2351 22.6263C63.0006 22.4966 63.7271 22.0684 64.2201 21.3938L70.9794 11.9229C71.9525 10.5477 71.6411 8.65355 70.2659 7.66755C68.8906 6.68154 66.9965 7.00589 66.0105 8.38111L59.2511 17.852C58.2781 19.2272 58.5895 21.1213 59.9647 22.1073C60.6523 22.6004 61.4697 22.756 62.2351 22.6263Z" fill="#FFAD00"/>
<path d="M23.9626 67.3467L17.2032 76.8175C16.2302 78.1927 16.5416 80.0869 17.9168 81.0729C18.6044 81.5659 19.4217 81.7216 20.1872 81.5919C20.9526 81.4621 21.6792 81.034 22.1722 80.3594L28.9315 70.8885C29.9045 69.5133 29.5932 67.6191 28.218 66.6331C26.8427 65.6471 24.9486 65.9715 23.9626 67.3467Z" fill="#FFAD00"/>
</g>
<defs>
<clipPath id="clip0_15_626">
<rect width="89" height="89" fill="white"/>
</clipPath>
</defs>
</svg>
