<svg width="114" height="114" viewBox="0 0 114 114" fill="none" xmlns="http://www.w3.org/2000/svg">
<g clip-path="url(#clip0_15_648)">
<path d="M4.55336 69.6962L19.2604 67.2367C21.3875 66.8878 22.8166 64.8604 22.4676 62.7332C22.1187 60.6061 20.0913 59.177 17.9641 59.5259L3.25715 61.9854C1.13003 62.3344 -0.299121 64.3618 0.049859 66.4889C0.398839 68.616 2.42624 70.0452 4.55336 69.6962Z" fill="#FFAD00"/>
<path d="M109.447 44.204L94.7396 46.6635C92.6125 47.0125 91.1834 49.0399 91.5324 51.167C91.8813 53.2941 93.9087 54.7233 96.0359 54.3743L110.743 51.9148C112.87 51.5659 114.299 49.5385 113.95 47.4113C113.601 45.2842 111.574 43.8551 109.447 44.204Z" fill="#FFAD00"/>
<path d="M50.9178 22.4677C53.0449 22.1187 54.4741 20.0913 54.1251 17.9642L51.6656 3.25716C51.3166 1.13005 49.2892 -0.299105 47.1621 0.0498743C45.035 0.398854 43.6058 2.42626 43.9548 4.55337L46.4143 19.2604C46.7633 21.3875 48.7907 22.8166 50.9178 22.4677Z" fill="#FFAD00"/>
<path d="M59.2933 96.0359L61.7528 110.743C62.1018 112.87 64.1292 114.299 66.2563 113.95C68.3834 113.601 69.8125 111.574 69.4636 109.447L67.0041 94.7397C66.6551 92.6126 64.6277 91.1834 62.5006 91.5324C60.3735 91.8814 58.9443 93.9088 59.2933 96.0359Z" fill="#FFAD00"/>
<path d="M22.7502 37.5735C23.6309 38.205 24.6779 38.4044 25.6583 38.2382C26.6388 38.072 27.5694 37.5236 28.2009 36.6595C29.4472 34.898 29.0484 32.4717 27.2869 31.2087L15.1557 22.5507C13.3942 21.3044 10.9679 21.7032 9.70496 23.4647C8.45861 25.2262 8.85744 27.6525 10.619 28.9155L22.7502 37.5735Z" fill="#FFAD00"/>
<path d="M85.2175 77.3239C83.9711 79.0854 84.37 81.5116 86.1315 82.7746L98.2627 91.4326C99.1434 92.0641 100.19 92.2635 101.171 92.0973C102.151 91.9311 103.082 91.3827 103.713 90.5186C104.96 88.7571 104.561 86.3308 102.799 85.0679L90.6682 76.4099C88.9067 75.1635 86.4805 75.5623 85.2175 77.3239Z" fill="#FFAD00"/>
<path d="M79.7169 28.9819C80.6974 28.8157 81.628 28.2673 82.2595 27.4032L90.9175 15.272C92.1638 13.5105 91.765 11.0842 90.0035 9.82126C88.242 8.55829 85.8157 8.97374 84.5528 10.7353L75.8948 22.8665C74.6484 24.628 75.0472 27.0542 76.8088 28.3172C77.6895 28.9487 78.7364 29.1481 79.7169 28.9819Z" fill="#FFAD00"/>
<path d="M30.6936 86.2644L22.0356 98.3956C20.7892 100.157 21.188 102.583 22.9496 103.846C23.8303 104.478 24.8773 104.677 25.8577 104.511C26.8382 104.345 27.7688 103.796 28.4003 102.932L37.0583 90.8012C38.3047 89.0396 37.9058 86.6134 36.1443 85.3504C34.3828 84.0875 31.9566 84.5029 30.6936 86.2644Z" fill="#FFAD00"/>
</g>
<defs>
<clipPath id="clip0_15_648">
<rect width="114" height="114" fill="white"/>
</clipPath>
</defs>
</svg>
