<svg width="1440" height="2103" viewBox="0 0 1440 2103" fill="none" xmlns="http://www.w3.org/2000/svg">
<path d="M-588 382.733C-588 327.775 -541.386 281.16 -478.594 273.362L-15.2295 127.496C8.65662 119.985 34.6931 119.125 59.1746 125.059L357.949 197.447C360.232 197.075 560.782 149.427 563.098 149.169L781.348 101.407C786.873 100.777 792.464 100.461 798.022 100.461H854.694C866.802 100.461 878.845 101.952 890.457 104.905L1206.63 184.919C1229.36 190.681 1253.48 190.825 1276.31 185.378L1486.88 135.007C1496.18 132.771 1505.18 129.646 1513.68 125.661L1703.15 36.7308C1721.81 27.9869 1742.68 23.3999 1763.89 23.3999H1779.6C1794.46 23.3999 1809.21 21.1351 1823.17 16.7488L1852.65 7.46016C1887.65 -3.57726 1926.46 -0.796395 1958.88 15.086L2027 48.399V382.79C2027 443.797 2027 2103 2027 2103H-588C-588 2103 -588 443.826 -588 382.79V382.733Z" fill="white"/>
</svg>
