<svg width="340" height="202" viewBox="0 0 340 202" fill="none" xmlns="http://www.w3.org/2000/svg">
<path d="M552.93 29.5305L887.563 140.315C892.076 141.81 896.942 141.868 901.491 140.484L1122.7 73.1267C1128.05 71.498 1133.81 71.8735 1138.9 74.1828L1281.99 139.078C1287.02 141.358 1292.7 141.754 1297.99 140.194L1467.58 90.2224C1471.14 89.1725 1474.9 89.0012 1478.55 89.7231L1743.29 142.174C1744.76 142.465 1746.26 142.612 1747.76 142.612H2046C2058.7 142.612 2069 152.91 2069 165.612V735H-546V149.212C-546 135.222 -533.614 124.472 -519.763 126.441L-412.033 141.755C-408.079 142.317 -404.047 141.84 -400.334 140.37L-231.3 73.488C-226.567 71.6155 -221.347 71.3655 -216.458 72.7772L-54.1582 119.635C-47.4241 121.579 -40.1707 120.346 -34.4568 116.286L122.494 4.76879C129.251 -0.032052 138.068 -0.826036 145.574 2.69048L362.848 104.486C369.108 107.419 376.356 107.381 382.584 104.382L535.723 30.6424C541.097 28.0544 547.267 27.6558 552.93 29.5305Z" fill="#2B3D24"/>
</svg>
