<svg width="1440" height="3908" viewBox="0 0 1440 3908" fill="none" xmlns="http://www.w3.org/2000/svg">
<path d="M-588 306.475C-588 262.421 -541.386 225.055 -478.594 218.805L-15.2295 101.881C8.65662 95.8597 34.6931 95.1703 59.1746 99.9272L357.949 157.953C360.232 157.654 560.782 119.461 563.098 119.254L781.348 80.9685C786.873 80.4629 792.464 80.2101 798.022 80.2101H854.694C866.802 80.2101 878.845 81.4051 890.457 83.7721L1206.63 147.91C1229.36 152.529 1253.48 152.644 1276.31 148.278L1486.88 107.901C1496.18 106.109 1505.18 103.604 1513.68 100.41L1703.15 29.1248C1721.81 22.1158 1742.68 18.4389 1763.89 18.4389H1779.6C1794.46 18.4389 1809.21 16.6235 1823.17 13.1075L1852.65 5.66184C1887.65 -3.1856 1926.46 -0.956495 1958.88 11.7746L2027 38.4778V306.521C2027 355.423 2027 3907.41 2027 3907.41H-588C-588 3907.41 -588 355.446 -588 306.521V306.475Z" fill="white"/>
</svg>
