<svg width="1440" height="1758" viewBox="0 0 1440 1758" fill="none" xmlns="http://www.w3.org/2000/svg">
<path d="M-588 55.9683L-377.083 8.01273C-339.472 -0.53058 -297.255 -2.1913 -257.575 3.33874L0.631287 39.2583C27.7301 43.0249 56.1638 43.4872 83.6631 40.5766L104.788 38.3509C131.753 35.5088 159.62 35.8855 186.251 39.4466L481.935 79.1157C514.44 83.4815 548.681 83.0535 580.719 77.9172L764.203 48.5036C797.576 43.1447 833.285 42.9222 866.891 47.853C902.967 53.1433 941.38 52.4927 976.688 45.9868L1001.05 41.5011C1027.72 36.5874 1056.28 34.9952 1084.42 36.8443L1576.97 69.2712C1601.03 70.8463 1625.42 69.9218 1648.75 66.5147L2027 11.3855V1665.7C2027 1716.48 2027 1757.64 2027 1757.64H-588C-588 1757.64 -588 1716.48 -588 1665.7V55.9683Z" fill="#FFF0E8"/>
</svg>
