<svg width="390" height="2705" viewBox="0 0 390 2705" fill="none" xmlns="http://www.w3.org/2000/svg">
<path d="M-1010.16 102.029L-770.863 9.938C-759.597 5.59623 -744.066 5.45081 -732.476 9.56406L-495.662 93.8027C-483.723 98.0614 -467.636 97.7498 -456.347 93.0757L-430.014 82.1485C-418.47 77.3705 -401.988 77.1628 -390.027 81.6499L-271.944 125.982C-260.725 130.199 -245.449 130.303 -233.974 126.273L-209.82 117.755C-198.438 113.746 -183.301 113.829 -172.105 117.963L-150.5 125.919C-139.003 130.157 -123.402 130.116 -111.997 125.836L79.431 53.9997C91.1373 49.5956 107.202 49.6995 118.722 54.2074L160.61 70.6189C173.568 75.6878 191.951 75.1061 203.541 69.2478C215.178 63.348 233.676 62.7871 246.634 67.9391L341.675 105.685C353.659 110.443 370.581 110.36 382.357 105.478L432.845 84.5583C443.995 79.9465 459.804 79.5725 471.719 83.6858L503.337 94.5506C514.626 98.4354 529.485 98.3315 540.566 94.3221L778.864 7.86059C787.812 4.61985 799.402 3.87198 809.671 5.90784L1012.18 45.9809C1022.68 48.0583 1034.52 47.2481 1043.54 43.8204L1150.27 3.29031C1161.93 -1.13456 1178.01 -1.09301 1189.58 3.39418L1579.25 33.3919C1587.29 36.508 1592 41.3483 1592 46.4795V2688.53C1592 2697.62 1592 2705 1592 2705H-1023C-1023 2705 -1023 2697.62 -1023 2688.53V115.158C-1023 110.006 -1018.25 105.145 -1010.16 102.029Z" fill="#FEF7F3"/>
</svg>
