<svg width="1440" height="3957" viewBox="0 0 1440 3957" fill="none" xmlns="http://www.w3.org/2000/svg">
<path d="M-588 310.423C-588 265.813 -541.386 227.975 -478.594 221.646L-15.2295 103.246C8.65662 97.1493 34.6931 96.4512 59.1746 101.268L357.949 160.026C360.232 159.723 560.782 121.048 563.098 120.839L781.348 82.0701C786.873 81.5581 792.464 81.3021 798.022 81.3021H854.694C866.802 81.3021 878.845 82.5122 890.457 84.909L1206.63 149.857C1229.36 154.534 1253.48 154.65 1276.31 150.229L1486.88 109.343C1496.18 107.528 1505.18 104.991 1513.68 101.757L1703.15 29.572C1721.81 22.4746 1742.68 18.7513 1763.89 18.7513H1779.6C1794.46 18.7513 1809.21 16.9129 1823.17 13.3526L1852.65 5.81295C1887.65 -3.14616 1926.46 -0.888922 1958.88 12.0029L2027 39.0431V310.469C2027 359.988 2027 3956.81 2027 3956.81H-588C-588 3956.81 -588 360.012 -588 310.469V310.423Z" fill="white"/>
</svg>
