<svg width="340" height="293" viewBox="0 0 340 293" fill="none" xmlns="http://www.w3.org/2000/svg">
<g opacity="0.6" filter="url(#filter0_b_280_1561)">
<path d="M-537.747 88.4433L-468.677 9.49102C-465.07 5.36692 -459.857 3.00124 -454.377 3.00124H-451.392C-447.554 3.00124 -443.806 4.16353 -440.642 6.33507L-358.07 62.9975C-341.31 74.4985 -318.853 73.0221 -303.743 59.4259L-299.882 55.9521C-296.998 53.357 -293.564 51.4483 -289.837 50.3694C-281.514 47.9597 -272.537 49.9055 -265.959 55.5452L-256.664 63.5139C-243.485 74.8116 -224.897 77.3059 -209.207 69.8819L-110.249 23.0592C-103.01 19.9765 -93.0291 19.8733 -85.5809 22.7937L66.6016 82.6025C74.2733 85.6261 84.6115 85.4049 91.866 82.0863L108.788 74.3281C116.207 70.9357 126.798 70.7882 134.485 73.9741L210.368 105.449C217.577 108.443 227.394 108.517 234.768 105.656L250.29 99.6086C257.604 96.7619 267.332 96.8209 274.527 99.7561L288.41 105.405C295.799 108.414 305.824 108.384 313.153 105.346L436.168 54.3426C443.691 51.2158 454.014 51.2895 461.418 54.4901L488.336 66.1422C496.663 69.741 508.476 69.328 515.924 65.1687C523.402 60.9799 535.29 60.5816 543.617 64.2395L604.692 91.0392C612.394 94.4168 623.268 94.3578 630.836 90.8917L663.28 76.039C670.445 72.7647 680.605 72.4992 688.261 75.4195L708.58 83.1335C715.835 85.8916 725.384 85.8179 732.504 82.9713L885.64 21.5842C891.39 19.2833 898.838 18.7523 905.438 20.1978L1035.57 48.6494C1042.32 50.1243 1049.93 49.5491 1055.73 47.1154L1124.31 18.3393C1131.8 15.1977 1142.14 15.2272 1149.58 18.4131L1214.87 42.023C1226.46 46.2159 1239.33 44.9682 1249.9 38.6256L1262.12 31.2967C1270.5 26.268 1280.4 24.3999 1290.04 26.0295L1290.84 26.1635C1294.14 26.7224 1297.37 27.6846 1300.44 29.0287L1341.77 47.1154L1382.68 36.5064L1415 47.1154L1497.5 10.7064C1500.62 9.33258 1504.22 9.63619 1507.06 11.5122L1529.22 26.1558C1530.07 26.7186 1530.83 27.4084 1531.47 28.2014L1573.2 79.68C1574.69 81.51 1576.77 82.7576 1579.08 83.2025L1586.16 84.5631C1587.6 84.8408 1589.08 84.3041 1590.01 83.1654L1624.32 41.1574C1625.09 40.2099 1626.1 39.4817 1627.24 39.0455L1677.74 19.7756C1680.07 18.8865 1682.69 19.3039 1684.63 20.8715L1719 48.6494L1759.5 18.3393L1767.64 13.3367C1772.57 10.3015 1778.67 9.82874 1784.01 12.0664L1799 18.3393L1828.77 31.7882C1833.95 34.1279 1839.93 33.8844 1844.9 31.1312L1858.24 23.7418C1864.22 20.432 1871.56 20.7912 1877.18 24.669L1897.31 38.5486C1898.43 39.3212 1899.46 40.2184 1900.38 41.223L1918.15 60.6562C1921.56 64.3864 1926.38 66.5111 1931.43 66.5111H1935.79C1941.57 66.5111 1947 63.7323 1950.39 59.0421L1971.7 29.4956C1972.89 27.8471 1974.35 26.4119 1976.02 25.251L2006.63 3.95142C2014.01 -1.17988 2024.04 -0.0869813 2030.14 6.51231L2060.81 39.7112C2065.98 41.9236 2069 45.3603 2069 49.0034V826.129C2069 832.589 1198.08 826.129 1186.52 826.129H-546C-546 826.129 -546 820.893 -546 814.432V97.7649C-546 94.107 -542.946 90.6557 -537.747 88.4433Z" fill="#505A14"/>
</g>
<defs>
<filter id="filter0_b_280_1561" x="-554" y="-7.27344" width="2631" height="844.273" filterUnits="userSpaceOnUse" color-interpolation-filters="sRGB">
<feFlood flood-opacity="0" result="BackgroundImageFix"/>
<feGaussianBlur in="BackgroundImageFix" stdDeviation="4"/>
<feComposite in2="SourceAlpha" operator="in" result="effect1_backgroundBlur_280_1561"/>
<feBlend mode="normal" in="SourceGraphic" in2="effect1_backgroundBlur_280_1561" result="shape"/>
</filter>
</defs>
</svg>
