<svg width="1160" height="256" viewBox="0 0 1160 256" fill="none" xmlns="http://www.w3.org/2000/svg">
<g opacity="0.6" filter="url(#filter0_b_258_530)">
<path d="M-534.747 88.4433L-465.677 9.49102C-462.07 5.36692 -456.857 3.00124 -451.377 3.00124H-448.392C-444.554 3.00124 -440.806 4.16353 -437.642 6.33507L-355.07 62.9975C-338.31 74.4985 -315.853 73.0221 -300.743 59.4259L-296.882 55.9521C-293.998 53.357 -290.564 51.4483 -286.837 50.3694C-278.514 47.9597 -269.537 49.9055 -262.959 55.5452L-253.664 63.5139C-240.485 74.8116 -221.897 77.3059 -206.207 69.8819L-107.249 23.0592C-100.01 19.9765 -90.0291 19.8733 -82.5809 22.7937L69.6016 82.6025C77.2733 85.6261 87.6115 85.4049 94.866 82.0863L111.788 74.3281C119.207 70.9357 129.798 70.7882 137.485 73.9741L213.368 105.449C220.577 108.443 230.394 108.517 237.768 105.656L253.29 99.6086C260.604 96.7619 270.332 96.8209 277.527 99.7561L291.41 105.405C298.799 108.414 308.824 108.384 316.153 105.346L439.168 54.3426C446.691 51.2158 457.014 51.2895 464.418 54.4901L491.336 66.1422C499.663 69.741 511.476 69.328 518.924 65.1687C526.402 60.9799 538.29 60.5816 546.617 64.2395L607.692 91.0392C615.394 94.4168 626.268 94.3578 633.836 90.8917L666.28 76.039C673.445 72.7647 683.605 72.4992 691.261 75.4195L711.58 83.1335C718.835 85.8916 728.384 85.8179 735.504 82.9713L888.64 21.5842C894.39 19.2833 901.838 18.7523 908.438 20.1978L1038.57 48.6494C1045.32 50.1243 1052.93 49.5491 1058.73 47.1154L1127.31 18.3393C1134.8 15.1977 1145.14 15.2272 1152.58 18.4131L1217.87 42.023C1229.46 46.2159 1242.33 44.9682 1252.9 38.6256L1265.12 31.2967C1273.5 26.268 1283.4 24.3999 1293.04 26.0295L1293.84 26.1635C1297.14 26.7224 1300.37 27.6846 1303.44 29.0287L1344.77 47.1154L1385.68 36.5064L1418 47.1154L1500.5 10.7064C1503.62 9.33258 1507.22 9.63619 1510.06 11.5122L1532.22 26.1558C1533.07 26.7186 1533.83 27.4084 1534.47 28.2014L1576.2 79.68C1577.69 81.51 1579.77 82.7576 1582.08 83.2025L1589.16 84.5631C1590.6 84.8408 1592.08 84.3041 1593.01 83.1654L1627.32 41.1574C1628.09 40.2099 1629.1 39.4817 1630.24 39.0455L1680.74 19.7756C1683.07 18.8865 1685.69 19.3039 1687.63 20.8715L1722 48.6494L1762.5 18.3393L1770.64 13.3367C1775.57 10.3015 1781.67 9.82874 1787.01 12.0664L1802 18.3393L1831.77 31.7882C1836.95 34.1279 1842.93 33.8844 1847.9 31.1312L1861.24 23.7418C1867.22 20.432 1874.56 20.7912 1880.18 24.669L1900.31 38.5486C1901.43 39.3212 1902.46 40.2184 1903.38 41.223L1921.15 60.6562C1924.56 64.3864 1929.38 66.5111 1934.43 66.5111H1938.79C1944.57 66.5111 1950 63.7323 1953.39 59.0421L1974.7 29.4956C1975.89 27.8471 1977.35 26.4119 1979.02 25.251L2009.63 3.95142C2017.01 -1.17988 2027.04 -0.0869813 2033.14 6.51231L2063.81 39.7112C2068.98 41.9236 2072 45.3603 2072 49.0034V826.129C2072 832.589 1201.08 826.129 1189.52 826.129H-543C-543 826.129 -543 820.893 -543 814.432V97.7649C-543 94.107 -539.946 90.6557 -534.747 88.4433Z" fill="#505A14"/>
</g>
<defs>
<filter id="filter0_b_258_530" x="-551" y="-7.27344" width="2631" height="844.273" filterUnits="userSpaceOnUse" color-interpolation-filters="sRGB">
<feFlood flood-opacity="0" result="BackgroundImageFix"/>
<feGaussianBlur in="BackgroundImageFix" stdDeviation="4"/>
<feComposite in2="SourceAlpha" operator="in" result="effect1_backgroundBlur_258_530"/>
<feBlend mode="normal" in="SourceGraphic" in2="effect1_backgroundBlur_258_530" result="shape"/>
</filter>
</defs>
</svg>
