<svg width="320" height="2606" viewBox="0 0 320 2606" fill="none" xmlns="http://www.w3.org/2000/svg">
<path d="M-1500 67.5686L-1289.08 9.53731C-1251.47 -0.801001 -1209.26 -2.81065 -1169.57 3.88128L-911.369 47.3478C-884.27 51.9057 -855.836 52.4651 -828.337 48.943L-807.212 46.2497C-780.247 42.8105 -752.38 43.2663 -725.749 47.5756L-430.065 95.5794C-397.56 100.862 -363.319 100.345 -331.281 94.1291L-147.797 58.5355C-114.424 52.0508 -78.7153 51.7814 -45.1088 57.7482C-9.03271 64.1501 29.3796 63.3628 64.6881 55.4899L89.0503 50.0618C115.715 44.1157 144.283 42.189 172.416 44.4265L664.967 83.6665C689.028 85.5726 713.424 84.4538 736.752 80.3309L1115 13.6188V2494.74C1115 2556.19 1115 2606 1115 2606H-1500C-1500 2606 -1500 2556.19 -1500 2494.74V67.5686Z" fill="#FFF0E8"/>
</svg>
