<svg width="320" height="2705" viewBox="0 0 320 2705" fill="none" xmlns="http://www.w3.org/2000/svg">
<path d="M-1578.16 102.029L-1338.86 9.938C-1327.6 5.59623 -1312.07 5.45081 -1300.48 9.56406L-1063.66 93.8027C-1051.72 98.0614 -1035.64 97.7498 -1024.35 93.0757L-998.014 82.1485C-986.47 77.3705 -969.988 77.1628 -958.027 81.6499L-839.944 125.982C-828.725 130.199 -813.449 130.303 -801.974 126.273L-777.82 117.755C-766.438 113.746 -751.301 113.829 -740.105 117.963L-718.5 125.919C-707.003 130.157 -691.402 130.116 -679.997 125.836L-488.569 53.9997C-476.863 49.5956 -460.798 49.6995 -449.278 54.2074L-407.39 70.6189C-394.432 75.6878 -376.049 75.1061 -364.459 69.2478C-352.822 63.348 -334.324 62.7871 -321.366 67.9391L-226.325 105.685C-214.341 110.443 -197.419 110.36 -185.643 105.478L-135.155 84.5583C-124.005 79.9465 -108.196 79.5725 -96.2811 83.6858L-64.6626 94.5506C-53.3735 98.4354 -38.5148 98.3315 -27.4343 94.3221L210.864 7.86059C219.812 4.61985 231.402 3.87198 241.671 5.90784L444.178 45.9809C454.679 48.0583 466.524 47.2481 475.542 43.8204L582.266 3.29031C593.926 -1.13456 610.013 -1.09301 621.581 3.39418L1011.25 33.3919C1019.29 36.508 1024 41.3483 1024 46.4795V2688.53C1024 2697.62 1024 2705 1024 2705H-1591C-1591 2705 -1591 2697.62 -1591 2688.53V115.158C-1591 110.006 -1586.25 105.145 -1578.16 102.029Z" fill="#FEF7F3"/>
</svg>
