<svg width="1160" height="205" viewBox="0 0 1160 205" fill="none" xmlns="http://www.w3.org/2000/svg">
<g opacity="0.5" filter="url(#filter0_b_258_531)">
<path d="M-541.067 84.5761L-418.392 32.5503C-396.516 23.2819 -371.961 21.4802 -348.882 27.4796L-198.701 66.4479C-182.94 70.5342 -166.402 71.0357 -150.408 67.8781L-138.121 65.4635C-122.437 62.3802 -106.229 62.7888 -90.7392 66.6522L81.2394 109.688C100.145 114.425 120.061 113.96 138.695 108.388L245.415 76.4778C264.826 70.6642 285.595 70.4227 305.142 75.772C326.125 81.5114 348.466 80.8056 369.003 73.7475L383.173 68.8811C398.682 63.5503 415.297 61.823 431.661 63.8289L718.143 99.0081C732.138 100.717 746.327 99.7139 759.895 96.0177L997.132 51.5L1170.73 63.732C1171.64 63.7963 1172.56 63.7212 1173.45 63.5093L1286.02 36.6945C1287.36 36.3753 1288.76 36.3679 1290.1 36.6728L1435.45 69.6681C1436.42 69.8879 1437.42 69.9459 1438.41 69.84L1553.39 57.5L1740.37 51.5336C1741.07 51.5113 1741.76 51.4072 1742.44 51.2235L1928.7 0.628975C1930.22 0.216855 1931.82 0.209378 1933.34 0.607287L2069.43 36.2094V675.258C2069.43 730.348 2069.43 775 2069.43 775H-541.067C-541.067 775 -541.067 730.348 -541.067 675.258V84.5761Z" fill="#2B3D24"/>
</g>
<defs>
<filter id="filter0_b_258_531" x="-549.067" y="-7.68573" width="2626.5" height="790.686" filterUnits="userSpaceOnUse" color-interpolation-filters="sRGB">
<feFlood flood-opacity="0" result="BackgroundImageFix"/>
<feGaussianBlur in="BackgroundImageFix" stdDeviation="4"/>
<feComposite in2="SourceAlpha" operator="in" result="effect1_backgroundBlur_258_531"/>
<feBlend mode="normal" in="SourceGraphic" in2="effect1_backgroundBlur_258_531" result="shape"/>
</filter>
</defs>
</svg>
