<svg width="1440" height="2264" viewBox="0 0 1440 2264" fill="none" xmlns="http://www.w3.org/2000/svg">
<path d="M-575.158 103.873L-335.863 10.1176C-324.597 5.69738 -309.066 5.54933 -297.476 9.73694L-60.6616 95.4983C-48.7234 99.8339 -32.636 99.5167 -21.347 94.758L4.98633 83.6334C16.5303 78.769 33.0118 78.5575 44.9731 83.1258L163.056 128.259C174.275 132.552 189.551 132.658 201.026 128.555L225.18 119.884C236.562 115.802 251.699 115.886 262.895 120.095L284.5 128.195C295.997 132.51 311.598 132.468 323.003 128.111L514.431 54.9758C526.137 50.4921 542.202 50.5978 553.722 55.1873L595.61 71.8954C608.568 77.0559 626.951 76.4637 638.541 70.4995C650.178 64.4931 668.676 63.922 681.634 69.1671L776.675 107.596C788.659 112.439 805.581 112.354 817.357 107.384L867.845 86.0867C878.995 81.3915 894.804 81.0108 906.719 85.1984L938.337 96.2596C949.626 100.215 964.485 100.109 975.566 96.027L1213.86 8.00268C1222.81 4.70335 1234.4 3.94197 1244.67 6.01462L1447.18 46.812C1457.68 48.927 1469.52 48.1022 1478.54 44.6125L1585.27 3.34978C1596.93 -1.15507 1613.01 -1.11277 1624.58 3.45553L2014.25 33.9954C2022.29 37.1679 2027 42.0957 2027 47.3196V2247.23C2027 2256.49 2027 2264 2027 2264H-588C-588 2264 -588 2256.49 -588 2247.23V117.24C-588 111.995 -583.248 107.046 -575.158 103.873Z" fill="#FEF7F3"/>
</svg>
