<svg width="390" height="2731" viewBox="0 0 390 2731" fill="none" xmlns="http://www.w3.org/2000/svg">
<path d="M-840 375.15C-840 321.168 -793.386 275.38 -730.594 267.721L-267.229 124.445C-243.343 117.067 -217.307 116.222 -192.825 122.051L98.0166 191.266C103.254 192.513 108.549 192.582 113.796 191.374C151.165 182.773 309.045 145.958 311.098 145.733L529.348 98.8195C534.873 98.2 540.464 97.8902 546.022 97.8902H602.694C614.802 97.8902 626.845 99.3545 638.457 102.255L954.633 180.849C977.361 186.509 1001.48 186.649 1024.31 181.299L1234.88 131.823C1244.18 129.626 1253.18 126.557 1261.68 122.643L1451.15 35.2913C1469.81 26.7026 1490.68 22.1971 1511.89 22.1971H1527.6C1542.46 22.1971 1557.21 19.9725 1571.17 15.6641L1600.65 6.54031C1635.65 -4.30115 1674.46 -1.56966 1706.88 14.0308L1775 46.7523V375.206C1775 435.13 1775 2731 1775 2731H-840C-840 2731 -840 435.158 -840 375.206V375.15Z" fill="white"/>
</svg>
