<svg width="340" height="242" viewBox="0 0 340 242" fill="none" xmlns="http://www.w3.org/2000/svg">
<g opacity="0.5" filter="url(#filter0_b_280_1562)">
<path d="M-544.067 84.5761L-421.392 32.5503C-399.516 23.2819 -374.961 21.4802 -351.882 27.4796L-201.701 66.4479C-185.94 70.5342 -169.402 71.0357 -153.408 67.8781L-141.121 65.4635C-125.437 62.3802 -109.229 62.7888 -93.7392 66.6522L78.2394 109.688C97.1454 114.425 117.061 113.96 135.695 108.388L242.415 76.4778C261.826 70.6642 282.595 70.4227 302.142 75.772C323.125 81.5114 345.466 80.8056 366.003 73.7475L380.173 68.8811C395.682 63.5503 412.297 61.823 428.661 63.8289L715.143 99.0081C729.138 100.717 743.327 99.7139 756.895 96.0177L994.132 51.5L1167.73 63.732C1168.64 63.7963 1169.56 63.7212 1170.45 63.5093L1283.02 36.6945C1284.36 36.3753 1285.76 36.3679 1287.1 36.6728L1432.45 69.6681C1433.42 69.8879 1434.42 69.9459 1435.41 69.84L1550.39 57.5L1737.37 51.5336C1738.07 51.5113 1738.76 51.4072 1739.44 51.2235L1925.7 0.628975C1927.22 0.216855 1928.82 0.209378 1930.34 0.607287L2066.43 36.2094V675.258C2066.43 730.348 2066.43 775 2066.43 775H-544.067C-544.067 775 -544.067 730.348 -544.067 675.258V84.5761Z" fill="#2B3D24"/>
</g>
<defs>
<filter id="filter0_b_280_1562" x="-552.067" y="-7.68573" width="2626.5" height="790.686" filterUnits="userSpaceOnUse" color-interpolation-filters="sRGB">
<feFlood flood-opacity="0" result="BackgroundImageFix"/>
<feGaussianBlur in="BackgroundImageFix" stdDeviation="4"/>
<feComposite in2="SourceAlpha" operator="in" result="effect1_backgroundBlur_280_1562"/>
<feBlend mode="normal" in="SourceGraphic" in2="effect1_backgroundBlur_280_1562" result="shape"/>
</filter>
</defs>
</svg>
