<svg width="1440" height="1737" viewBox="0 0 1440 1737" fill="none" xmlns="http://www.w3.org/2000/svg">
<path d="M-588 55.7652L-377.083 8.40741C-339.472 -0.0294091 -297.255 -1.66943 -257.575 3.79168L0.631287 39.2635C27.7301 42.9832 56.1638 43.4397 83.6631 40.5654L104.788 38.3674C131.753 35.5608 159.62 35.9328 186.251 39.4495L481.935 78.6241C514.44 82.9355 548.681 82.5128 580.719 77.4406L764.203 48.3936C797.576 43.1015 833.285 42.8817 866.891 47.7511C902.967 52.9755 941.38 52.333 976.688 45.9082L1001.05 41.4784C1027.72 36.626 1056.28 35.0536 1084.42 36.8796L1576.97 68.9023C1601.03 70.4578 1625.42 69.5448 1648.75 66.1802L2027 11.7382V1645.43C2027 1695.58 2027 1736.22 2027 1736.22H-588C-588 1736.22 -588 1695.58 -588 1645.43V55.7652Z" fill="#FFF0E8"/>
</svg>
