<svg width="1440" height="1839" viewBox="0 0 1440 1839" fill="none" xmlns="http://www.w3.org/2000/svg">
<path d="M-575.158 84.6346L-335.863 8.53281C-324.597 4.94489 -309.066 4.82472 -297.476 8.22381L-60.6616 77.8365C-48.7234 81.3557 -32.636 81.0982 -21.347 77.2356L4.98633 68.2057C16.5303 64.2573 33.0118 64.0856 44.9731 67.7937L163.056 104.428C174.275 107.913 189.551 107.999 201.026 104.669L225.18 97.6301C236.562 94.3169 251.699 94.3856 262.895 97.8018L284.5 104.377C295.997 107.879 311.598 107.845 323.003 104.308L514.431 44.9443C526.137 41.3048 542.202 41.3907 553.722 45.1159L595.61 58.678C608.568 62.8667 626.951 62.3861 638.541 57.5449C650.178 52.6695 668.676 52.206 681.634 56.4634L776.675 87.6561C788.659 91.5873 805.581 91.5187 817.357 87.4844L867.845 70.1971C878.995 66.386 894.804 66.077 906.719 69.4761L938.337 78.4545C949.626 81.6647 964.485 81.5789 975.566 78.2656L1213.86 6.8161C1222.81 4.13803 1234.4 3.52002 1244.67 5.20239L1447.18 38.3178C1457.68 40.0345 1469.52 39.365 1478.54 36.5324L1585.27 3.03934C1596.93 -0.617257 1613.01 -0.582923 1624.58 3.12517L2014.25 27.9145C2022.29 30.4896 2027 34.4895 2027 38.7298V1824.4C2027 1831.92 2027 1838.01 2027 1838.01H-588C-588 1838.01 -588 1831.92 -588 1824.4V95.4843C-588 91.2268 -583.248 87.2097 -575.158 84.6346Z" fill="#FEF7F3"/>
</svg>
