<svg width="390" height="2606" viewBox="0 0 390 2606" fill="none" xmlns="http://www.w3.org/2000/svg">
<path d="M-932 67.5686L-721.083 9.53731C-683.472 -0.801001 -641.255 -2.81065 -601.575 3.88128L-343.369 47.3478C-316.27 51.9057 -287.836 52.4651 -260.337 48.943L-239.212 46.2497C-212.247 42.8105 -184.38 43.2663 -157.749 47.5756L137.935 95.5794C170.44 100.862 204.681 100.345 236.719 94.1291L420.203 58.5355C453.576 52.0508 489.285 51.7814 522.891 57.7482C558.967 64.1501 597.38 63.3628 632.688 55.4899L657.05 50.0618C683.715 44.1157 712.283 42.189 740.416 44.4265L1232.97 83.6665C1257.03 85.5726 1281.42 84.4538 1304.75 80.3309L1683 13.6188V2494.74C1683 2556.19 1683 2606 1683 2606H-932C-932 2606 -932 2556.19 -932 2494.74V67.5686Z" fill="#FFF0E8"/>
</svg>
