<svg width="1440" height="1816" viewBox="0 0 1440 1816" fill="none" xmlns="http://www.w3.org/2000/svg">
<path d="M-575.158 84.0964L-335.863 8.94315C-324.597 5.39994 -309.066 5.28127 -297.476 8.63799L-60.6616 77.383C-48.7234 80.8584 -32.636 80.6041 -21.347 76.7896L4.98633 67.8723C16.5303 63.973 33.0118 63.8035 44.9731 67.4654L163.056 103.643C174.275 107.085 189.551 107.17 201.026 103.881L225.18 96.9299C236.562 93.658 251.699 93.7258 262.895 97.0995L284.5 103.593C295.997 107.051 311.598 107.017 323.003 103.525L514.431 44.9008C526.137 41.3067 542.202 41.3915 553.722 45.0703L595.61 58.4633C608.568 62.5998 626.951 62.1251 638.541 57.3444C650.178 52.5297 668.676 52.0719 681.634 56.2763L776.675 87.0802C788.659 90.9624 805.581 90.8946 817.357 86.9106L867.845 69.8388C878.995 66.0752 894.804 65.7701 906.719 69.1268L938.337 77.9933C949.626 81.1635 964.485 81.0788 975.566 77.8068L1213.86 7.24783C1222.81 4.60314 1234.4 3.99283 1244.67 5.65424L1447.18 38.3568C1457.68 40.0522 1469.52 39.391 1478.54 36.5937L1585.27 3.51814C1596.93 -0.0928759 1613.01 -0.0589697 1624.58 3.60291L2014.25 28.0832C2022.29 30.6262 2027 34.5763 2027 38.7637V1802.18C2027 1809.6 2027 1815.62 2027 1815.62H-588C-588 1815.62 -588 1809.6 -588 1802.18V94.8108C-588 90.6064 -583.248 86.6394 -575.158 84.0964Z" fill="#FEF7F3"/>
</svg>
