<svg width="1440" height="2166" viewBox="0 0 1440 2166" fill="none" xmlns="http://www.w3.org/2000/svg">
<path d="M-588 69.5793L-377.083 10.4991C-339.472 -0.0260515 -297.255 -2.07203 -257.575 4.74086L0.631287 48.993C27.7301 53.6334 56.1638 54.2029 83.6631 50.6171L104.788 47.8751C131.753 44.3737 159.62 44.8378 186.251 49.225L481.935 98.0964C514.44 103.475 548.681 102.948 580.719 96.6199L764.203 60.383C797.576 53.781 833.285 53.5068 866.891 59.5815C902.967 66.0991 941.38 65.2975 976.688 57.2824L1001.05 51.7561C1027.72 45.7026 1056.28 43.741 1084.42 46.019L1576.97 85.9682C1601.03 87.9087 1625.42 86.7697 1648.75 82.5723L2027 14.6544V2052.73C2027 2115.29 2027 2166 2027 2166H-588C-588 2166 -588 2115.29 -588 2052.73V69.5793Z" fill="#FFD9B7"/>
</svg>
