<svg width="1160" height="165" viewBox="0 0 1160 165" fill="none" xmlns="http://www.w3.org/2000/svg">
<path d="M555.93 29.5305L890.563 140.315C895.076 141.81 899.942 141.868 904.491 140.484L1125.7 73.1267C1131.05 71.498 1136.81 71.8735 1141.9 74.1828L1284.99 139.078C1290.02 141.358 1295.7 141.754 1300.99 140.194L1470.58 90.2224C1474.14 89.1725 1477.9 89.0012 1481.55 89.7231L1746.29 142.174C1747.76 142.465 1749.26 142.612 1750.76 142.612H2049C2061.7 142.612 2072 152.91 2072 165.612V735H-543V149.212C-543 135.222 -530.614 124.472 -516.763 126.441L-409.033 141.755C-405.079 142.317 -401.047 141.84 -397.334 140.37L-228.3 73.488C-223.567 71.6155 -218.347 71.3655 -213.458 72.7772L-51.1582 119.635C-44.4241 121.579 -37.1707 120.346 -31.4568 116.286L125.494 4.76879C132.251 -0.032052 141.068 -0.826036 148.574 2.69048L365.848 104.486C372.108 107.419 379.356 107.381 385.584 104.382L538.723 30.6424C544.097 28.0544 550.267 27.6558 555.93 29.5305Z" fill="#2B3D24"/>
</svg>
