<svg width="320" height="2731" viewBox="0 0 320 2731" fill="none" xmlns="http://www.w3.org/2000/svg">
<path d="M-1408 375.15C-1408 321.168 -1361.39 275.38 -1298.59 267.721L-835.229 124.445C-811.343 117.067 -785.307 116.222 -760.825 122.051L-469.983 191.266C-464.746 192.513 -459.451 192.582 -454.204 191.374C-416.835 182.773 -258.955 145.958 -256.902 145.733L-38.6517 98.8195C-33.1268 98.2 -27.5359 97.8902 -21.9779 97.8902H34.6937C46.8022 97.8902 58.8446 99.3545 70.4568 102.255L386.633 180.849C409.361 186.509 433.479 186.649 456.307 181.299L666.883 131.823C676.179 129.626 685.178 126.557 693.68 122.643L883.148 35.2913C901.807 26.7026 922.683 22.1971 943.889 22.1971H959.604C974.458 22.1971 989.213 19.9725 1003.17 15.6641L1032.65 6.54031C1067.65 -4.30115 1106.46 -1.56966 1138.88 14.0308L1207 46.7523V375.206C1207 435.13 1207 2731 1207 2731H-1408C-1408 2731 -1408 435.158 -1408 375.206V375.15Z" fill="white"/>
</svg>
