<svg width="1440" height="775" viewBox="0 0 1440 775" fill="none" xmlns="http://www.w3.org/2000/svg">
<g opacity="0.5" filter="url(#filter0_b_15_612)">
<path d="M-529 84.5761L-406.113 32.5503C-384.199 23.2819 -359.603 21.4802 -336.483 27.4796L-186.044 66.4479C-170.255 70.5342 -153.689 71.0357 -137.667 67.8781L-125.359 65.4635C-109.648 62.3802 -93.4121 62.7888 -77.8957 66.6522L94.3795 109.688C113.318 114.425 133.268 113.96 151.934 108.388L258.838 76.4778C278.282 70.6642 299.087 70.4227 318.668 75.772C339.687 81.5114 362.067 80.8056 382.639 73.7475L396.833 68.8811C412.369 63.5503 429.013 61.823 445.405 63.8289L732.381 99.0081C746.4 100.717 760.614 99.7139 774.205 96.0177L1011.85 51.5L1185.75 63.7323C1186.66 63.7964 1187.58 63.7215 1188.47 63.5104L1301.25 36.6928C1302.58 36.3748 1303.98 36.3674 1305.32 36.6712L1450.93 69.6692C1451.9 69.8882 1452.9 69.9461 1453.88 69.8406L1569.07 57.5L1756.37 51.5335C1757.07 51.5113 1757.77 51.4075 1758.44 51.2244L1945.04 0.626888C1946.55 0.216112 1948.15 0.208658 1949.67 0.605264L2086 36.2094V675.258C2086 730.348 2086 775 2086 775H-529C-529 775 -529 730.348 -529 675.258V84.5761Z" fill="#2B3D24"/>
</g>
<defs>
<filter id="filter0_b_15_612" x="-537" y="-7.68677" width="2631" height="790.687" filterUnits="userSpaceOnUse" color-interpolation-filters="sRGB">
<feFlood flood-opacity="0" result="BackgroundImageFix"/>
<feGaussianBlur in="BackgroundImageFix" stdDeviation="4"/>
<feComposite in2="SourceAlpha" operator="in" result="effect1_backgroundBlur_15_612"/>
<feBlend mode="normal" in="SourceGraphic" in2="effect1_backgroundBlur_15_612" result="shape"/>
</filter>
</defs>
</svg>
