<svg width="1440" height="829" viewBox="0 0 1440 829" fill="none" xmlns="http://www.w3.org/2000/svg">
<g opacity="0.6" filter="url(#filter0_b_15_611)">
<path d="M-520.747 88.4433L-451.677 9.49102C-448.07 5.36692 -442.857 3.00124 -437.377 3.00124H-434.392C-430.554 3.00124 -426.806 4.16353 -423.642 6.33507L-341.07 62.9975C-324.31 74.4985 -301.853 73.0221 -286.743 59.4259L-282.882 55.9521C-279.998 53.357 -276.564 51.4483 -272.837 50.3694C-264.514 47.9597 -255.537 49.9055 -248.959 55.5452L-239.664 63.5139C-226.485 74.8116 -207.897 77.3059 -192.207 69.8819L-93.2495 23.0592C-86.0098 19.9765 -76.0291 19.8733 -68.5809 22.7937L83.6016 82.6025C91.2733 85.6261 101.611 85.4049 108.866 82.0863L125.788 74.3281C133.207 70.9357 143.798 70.7882 151.485 73.9741L227.368 105.449C234.577 108.443 244.394 108.517 251.768 105.656L267.29 99.6086C274.604 96.7619 284.332 96.8209 291.527 99.7561L305.41 105.405C312.799 108.414 322.824 108.384 330.153 105.346L453.168 54.3426C460.691 51.2158 471.014 51.2895 478.418 54.4901L505.336 66.1422C513.663 69.741 525.476 69.328 532.924 65.1687C540.402 60.9799 552.29 60.5816 560.617 64.2395L621.692 91.0392C629.394 94.4168 640.268 94.3578 647.836 90.8917L680.28 76.039C687.445 72.7647 697.605 72.4992 705.261 75.4195L725.58 83.1335C732.835 85.8916 742.384 85.8179 749.504 82.9713L902.64 21.5842C908.39 19.2833 915.838 18.7523 922.438 20.1978L1052.57 48.6494C1059.32 50.1243 1066.93 49.5491 1072.73 47.1154L1141.31 18.3393C1148.8 15.1977 1159.14 15.2272 1166.58 18.4131L1231.87 42.023C1243.46 46.2159 1256.33 44.9682 1266.9 38.6256L1279.12 31.2967C1287.5 26.268 1297.4 24.3999 1307.04 26.0295L1307.84 26.1635C1311.14 26.7224 1314.37 27.6846 1317.44 29.0287L1358.77 47.1154L1399.68 36.5064L1432 47.1154L1514.5 10.7064C1517.62 9.33258 1521.22 9.63619 1524.06 11.5122L1546.22 26.1558C1547.07 26.7186 1547.83 27.4084 1548.47 28.2014L1590.2 79.68C1591.69 81.51 1593.77 82.7576 1596.08 83.2025L1603.16 84.5631C1604.6 84.8408 1606.08 84.3041 1607.01 83.1654L1641.32 41.1574C1642.09 40.2099 1643.1 39.4817 1644.24 39.0455L1694.74 19.7756C1697.07 18.8865 1699.69 19.3039 1701.63 20.8715L1736 48.6494L1776.5 18.3393L1784.64 13.3367C1789.57 10.3015 1795.67 9.82874 1801.01 12.0664L1816 18.3393L1845.77 31.7882C1850.95 34.1279 1856.93 33.8844 1861.9 31.1312L1875.24 23.7418C1881.22 20.432 1888.56 20.7912 1894.18 24.669L1914.31 38.5486C1915.43 39.3212 1916.46 40.2184 1917.38 41.223L1935.15 60.6562C1938.56 64.3864 1943.38 66.5111 1948.43 66.5111H1952.79C1958.57 66.5111 1964 63.7323 1967.39 59.0421L1988.7 29.4956C1989.89 27.8471 1991.35 26.4119 1993.02 25.251L2023.63 3.95142C2031.01 -1.17988 2041.04 -0.0869813 2047.14 6.51231L2077.81 39.7112C2082.98 41.9236 2086 45.3603 2086 49.0034V826.129C2086 832.589 1215.08 826.129 1203.52 826.129H-529C-529 826.129 -529 820.893 -529 814.432V97.7649C-529 94.107 -525.946 90.6557 -520.747 88.4433Z" fill="#505A14"/>
</g>
<defs>
<filter id="filter0_b_15_611" x="-537" y="-7.27344" width="2631" height="844.273" filterUnits="userSpaceOnUse" color-interpolation-filters="sRGB">
<feFlood flood-opacity="0" result="BackgroundImageFix"/>
<feGaussianBlur in="BackgroundImageFix" stdDeviation="4"/>
<feComposite in2="SourceAlpha" operator="in" result="effect1_backgroundBlur_15_611"/>
<feBlend mode="normal" in="SourceGraphic" in2="effect1_backgroundBlur_15_611" result="shape"/>
</filter>
</defs>
</svg>
