<svg width="1440" height="2047" viewBox="0 0 1440 2047" fill="none" xmlns="http://www.w3.org/2000/svg">
<path d="M-576.158 102.029L-336.863 9.938C-325.597 5.59623 -310.066 5.45081 -298.476 9.56406L-61.6616 93.8027C-49.7234 98.0614 -33.636 97.7498 -22.347 93.0757L3.98633 82.1485C15.5303 77.3705 32.0118 77.1628 43.9731 81.6499L162.056 125.982C173.275 130.199 188.551 130.303 200.026 126.273L224.18 117.755C235.562 113.746 250.699 113.829 261.895 117.963L283.5 125.919C294.997 130.157 310.598 130.116 322.003 125.836L513.431 53.9997C525.137 49.5956 541.202 49.6995 552.722 54.2074L594.61 70.6189C607.568 75.6878 625.95 75.1061 637.541 69.2478C649.178 63.348 667.676 62.7871 680.634 67.9391L775.675 105.685C787.659 110.443 804.581 110.36 816.357 105.478L866.845 84.5583C877.995 79.9465 893.804 79.5725 905.719 83.6858L937.337 94.5506C948.626 98.4354 963.485 98.3315 974.566 94.3221L1212.86 7.86059C1221.81 4.61985 1233.4 3.87198 1243.67 5.90784L1446.18 45.9809C1456.68 48.0583 1468.52 47.2481 1477.54 43.8204L1584.27 3.29031C1595.93 -1.13456 1612.01 -1.09301 1623.58 3.39418L2013.25 33.3919C2021.29 36.508 2026 41.3483 2026 46.4795V2030.53C2026 2039.63 2026 2047 2026 2047H-589C-589 2047 -589 2039.63 -589 2030.53V115.158C-589 110.006 -584.248 105.145 -576.158 102.029Z" fill="#FEF7F3"/>
</svg>
