<svg width="1440" height="1948" viewBox="0 0 1440 1948" fill="none" xmlns="http://www.w3.org/2000/svg">
<path d="M-589 67.5686L-378.083 9.53731C-340.472 -0.801001 -298.255 -2.81065 -258.575 3.88128L-0.368713 47.3478C26.7301 51.9057 55.1638 52.4651 82.6631 48.943L103.788 46.2497C130.753 42.8105 158.62 43.2663 185.251 47.5756L480.935 95.5794C513.44 100.862 547.681 100.345 579.719 94.1291L763.203 58.5355C796.576 52.0508 832.285 51.7814 865.891 57.7482C901.967 64.1501 940.38 63.3628 975.688 55.4899L1000.05 50.0618C1026.72 44.1157 1055.28 42.189 1083.42 44.4265L1575.97 83.6665C1600.03 85.5726 1624.42 84.4538 1647.75 80.3309L2026 13.6188V1836.74C2026 1898.19 2026 1948 2026 1948H-589C-589 1948 -589 1898.19 -589 1836.74V67.5686Z" fill="#FFF0E8"/>
</svg>
