<svg width="1440" height="1581" viewBox="0 0 1440 1581" fill="none" xmlns="http://www.w3.org/2000/svg">
<g filter="url(#filter0_b_15_1026)">
<path d="M-508.416 75.935L-236.656 7.39632C-223.862 4.16497 -206.224 4.05675 -193.061 7.11803L75.8808 69.8124C89.4385 72.9819 107.708 72.75 120.529 69.2713L150.435 61.1388C163.545 57.5828 182.263 57.4281 195.847 60.7677L329.949 93.7615C342.691 96.9001 360.039 96.9774 373.071 93.978L400.502 87.6389C413.428 84.655 430.618 84.7168 443.333 87.7936L467.869 93.7151C480.927 96.8692 498.644 96.8383 511.596 93.6533L728.993 40.1891C742.287 36.9114 760.531 36.9887 773.615 40.3437L821.185 52.5579C835.901 56.3304 856.777 55.8975 869.94 51.5375C883.155 47.1466 904.163 46.7291 918.879 50.5635L1026.81 78.6561C1040.42 82.1967 1059.64 82.1348 1073.02 78.5015L1130.35 62.9323C1143.02 59.4999 1160.97 59.2216 1174.5 62.2829L1210.41 70.369C1223.23 73.2602 1240.1 73.1829 1252.69 70.1989L1523.31 5.85022C1533.48 3.43831 1546.64 2.88171 1558.3 4.39689L1788.28 34.2212C1800.21 35.7673 1813.66 35.1643 1823.9 32.6132L1945.1 2.4488C1958.34 -0.844392 1976.61 -0.81347 1989.75 2.52611L2077.52 24.8518C2086.66 27.1709 2092 30.7734 2092 34.5922V1568.74C2092 1575.51 2092 1581 2092 1581H-523C-523 1581 -523 1575.51 -523 1568.74V85.7063C-523 81.872 -517.603 78.2541 -508.416 75.935Z" fill="#505A14" fill-opacity="0.5"/>
</g>
<defs>
<filter id="filter0_b_15_1026" x="-531" y="-8" width="2631" height="1597" filterUnits="userSpaceOnUse" color-interpolation-filters="sRGB">
<feFlood flood-opacity="0" result="BackgroundImageFix"/>
<feGaussianBlur in="BackgroundImageFix" stdDeviation="4"/>
<feComposite in2="SourceAlpha" operator="in" result="effect1_backgroundBlur_15_1026"/>
<feBlend mode="normal" in="SourceGraphic" in2="effect1_backgroundBlur_15_1026" result="shape"/>
</filter>
</defs>
</svg>
