<svg width="1440" height="4875" viewBox="0 0 1440 4875" fill="none" xmlns="http://www.w3.org/2000/svg">
<path d="M-588 382.732C-588 327.774 -541.386 281.159 -478.594 273.361L-15.2295 127.495C8.65662 119.984 34.6931 119.124 59.1746 125.058L357.949 197.446C360.232 197.074 560.782 149.426 563.098 149.168L781.348 101.406C786.873 100.776 792.464 100.46 798.022 100.46H854.694C866.802 100.46 878.845 101.951 890.457 104.904L1206.63 184.918C1229.36 190.681 1253.48 190.824 1276.31 185.377L1486.88 135.006C1496.18 132.77 1505.18 129.645 1513.68 125.66L1703.15 36.73C1721.81 27.9861 1742.68 23.3991 1763.89 23.3991H1779.6C1794.46 23.3991 1809.21 21.1343 1823.17 16.748L1852.65 7.45931C1887.65 -3.57812 1926.46 -0.79725 1958.88 15.0852L2027 48.3981V382.789C2027 443.796 2027 4875 2027 4875H-588C-588 4875 -588 443.825 -588 382.789V382.732Z" fill="white"/>
</svg>
