<svg width="1440" height="2261" viewBox="0 0 1440 2261" fill="none" xmlns="http://www.w3.org/2000/svg">
<path d="M-575.158 100.873L-335.863 7.11763C-324.597 2.69738 -309.066 2.54933 -297.476 6.73694L-60.6616 92.4983C-48.7234 96.8339 -32.636 96.5167 -21.347 91.758L4.98633 80.6334C16.5303 75.769 33.0118 75.5575 44.9731 80.1258L163.056 125.259C174.275 129.552 189.551 129.658 201.026 125.555L225.18 116.884C236.562 112.802 251.699 112.886 262.895 117.095L284.5 125.195C295.997 129.51 311.598 129.468 323.003 125.111L514.431 51.9758C526.137 47.4921 542.202 47.5978 553.722 52.1873L595.61 68.8954C608.568 74.0559 626.951 73.4637 638.541 67.4995C650.178 61.4931 668.676 60.922 681.634 66.1671L776.675 104.596C788.659 109.439 805.581 109.354 817.357 104.384L867.845 83.0867C878.995 78.3915 894.804 78.0108 906.719 82.1984L938.337 93.2596C949.626 97.2146 964.485 97.1088 975.566 93.027L1213.86 5.00268C1222.81 1.70335 1234.4 0.941968 1244.67 3.01462L1447.18 43.812C1457.68 45.927 1469.52 45.1022 1478.54 41.6125L1585.27 0.349782C1596.93 -4.15507 1613.01 -4.11277 1624.58 0.45553L2014.25 30.9954C2022.29 34.1679 2027 39.0957 2027 44.3196V2244.23C2027 2253.49 2027 2261 2027 2261H-588C-588 2261 -588 2253.49 -588 2244.23V114.24C-588 108.995 -583.248 104.046 -575.158 100.873Z" fill="#FEF7F3"/>
</svg>
