<svg width="1440" height="2166" viewBox="0 0 1440 2166" fill="none" xmlns="http://www.w3.org/2000/svg">
<path d="M-588 69.5789L-377.083 10.4988C-339.472 -0.0264177 -297.255 -2.07239 -257.575 4.7405L0.631287 48.9926C27.7301 53.633 56.1638 54.2025 83.6631 50.6168L104.788 47.8747C131.753 44.3734 159.62 44.8374 186.251 49.2247L481.935 98.0961C514.44 103.475 548.681 102.947 580.719 96.6196L764.203 60.3826C797.576 53.7806 833.285 53.5064 866.891 59.5811C902.967 66.0987 941.38 65.2972 976.688 57.282L1001.05 51.7558C1027.72 45.7022 1056.28 43.7406 1084.42 46.0186L1576.97 85.9679C1601.03 87.9084 1625.42 86.7694 1648.75 82.572L2027 14.654V2052.73C2027 2115.29 2027 2166 2027 2166H-588C-588 2166 -588 2115.29 -588 2052.73V69.5789Z" fill="#FFF0E8"/>
</svg>
