<svg width="56" height="39" viewBox="0 0 56 39" fill="none" xmlns="http://www.w3.org/2000/svg">
<g clip-path="url(#clip0_321_3431)">
<path d="M1.81998 0C4.84998 0 6.41998 1.89 7.56998 3.27C8.63998 4.55 9.24998 5.22 10.51 5.22C11.77 5.22 12.39 4.55 13.46 3.27C14.61 1.89 16.18 0 19.21 0C22.24 0 23.81 1.89 24.96 3.27C26.03 4.55 26.64 5.22 27.91 5.22C29.17 5.22 29.79 4.55 30.86 3.27C32 1.89 33.57 0 36.6 0C39.63 0 41.2 1.89 42.35 3.27C43.42 4.55 44.04 5.22 45.3 5.22C46.56 5.22 47.18 4.55 48.25 3.27C49.39 1.89 50.97 0 53.99 0C55 0 55.81 0.82 55.81 1.82C55.81 2.82 54.99 3.64 53.99 3.64C52.73 3.64 52.11 4.31 51.04 5.59C49.89 6.97 48.32 8.85 45.29 8.85C42.26 8.85 40.69 6.96 39.54 5.59C38.47 4.31 37.85 3.64 36.59 3.64C35.33 3.64 34.71 4.31 33.64 5.59C32.49 6.97 30.92 8.86 27.89 8.86C24.86 8.86 23.29 6.97 22.14 5.59C21.07 4.31 20.45 3.64 19.19 3.64C17.93 3.64 17.31 4.31 16.24 5.59C15.09 6.97 13.52 8.86 10.49 8.86C7.45998 8.86 5.88998 6.97 4.73998 5.59C3.66998 4.31 3.05998 3.64 1.79998 3.64C0.78998 3.64 -0.0200195 2.82 -0.0200195 1.82C-0.0200195 0.82 0.819981 0 1.81998 0Z" fill="#FFAD00"/>
</g>
<g clip-path="url(#clip1_321_3431)">
<path d="M1.81998 15C4.84998 15 6.41998 16.89 7.56998 18.27C8.63998 19.55 9.24998 20.22 10.51 20.22C11.77 20.22 12.39 19.55 13.46 18.27C14.61 16.89 16.18 15 19.21 15C22.24 15 23.81 16.89 24.96 18.27C26.03 19.55 26.64 20.22 27.91 20.22C29.17 20.22 29.79 19.55 30.86 18.27C32 16.89 33.57 15 36.6 15C39.63 15 41.2 16.89 42.35 18.27C43.42 19.55 44.04 20.22 45.3 20.22C46.56 20.22 47.18 19.55 48.25 18.27C49.39 16.89 50.97 15 53.99 15C55 15 55.81 15.82 55.81 16.82C55.81 17.82 54.99 18.64 53.99 18.64C52.73 18.64 52.11 19.31 51.04 20.59C49.89 21.97 48.32 23.85 45.29 23.85C42.26 23.85 40.69 21.96 39.54 20.59C38.47 19.31 37.85 18.64 36.59 18.64C35.33 18.64 34.71 19.31 33.64 20.59C32.49 21.97 30.92 23.86 27.89 23.86C24.86 23.86 23.29 21.97 22.14 20.59C21.07 19.31 20.45 18.64 19.19 18.64C17.93 18.64 17.31 19.31 16.24 20.59C15.09 21.97 13.52 23.86 10.49 23.86C7.45998 23.86 5.88998 21.97 4.73998 20.59C3.66998 19.31 3.05998 18.64 1.79998 18.64C0.78998 18.64 -0.0200195 17.82 -0.0200195 16.82C-0.0200195 15.82 0.819981 15 1.81998 15Z" fill="#FFAD00"/>
</g>
<g clip-path="url(#clip2_321_3431)">
<path d="M1.81998 30C4.84998 30 6.41998 31.89 7.56998 33.27C8.63998 34.55 9.24998 35.22 10.51 35.22C11.77 35.22 12.39 34.55 13.46 33.27C14.61 31.89 16.18 30 19.21 30C22.24 30 23.81 31.89 24.96 33.27C26.03 34.55 26.64 35.22 27.91 35.22C29.17 35.22 29.79 34.55 30.86 33.27C32 31.89 33.57 30 36.6 30C39.63 30 41.2 31.89 42.35 33.27C43.42 34.55 44.04 35.22 45.3 35.22C46.56 35.22 47.18 34.55 48.25 33.27C49.39 31.89 50.97 30 53.99 30C55 30 55.81 30.82 55.81 31.82C55.81 32.82 54.99 33.64 53.99 33.64C52.73 33.64 52.11 34.31 51.04 35.59C49.89 36.97 48.32 38.85 45.29 38.85C42.26 38.85 40.69 36.96 39.54 35.59C38.47 34.31 37.85 33.64 36.59 33.64C35.33 33.64 34.71 34.31 33.64 35.59C32.49 36.97 30.92 38.86 27.89 38.86C24.86 38.86 23.29 36.97 22.14 35.59C21.07 34.31 20.45 33.64 19.19 33.64C17.93 33.64 17.31 34.31 16.24 35.59C15.09 36.97 13.52 38.86 10.49 38.86C7.45998 38.86 5.88998 36.97 4.73998 35.59C3.66998 34.31 3.05998 33.64 1.79998 33.64C0.78998 33.64 -0.0200195 32.82 -0.0200195 31.82C-0.0200195 30.82 0.819981 30 1.81998 30Z" fill="#FFAD00"/>
</g>
<defs>
<clipPath id="clip0_321_3431">
<rect width="55.82" height="8.86" fill="white"/>
</clipPath>
<clipPath id="clip1_321_3431">
<rect width="55.82" height="8.86" fill="white" transform="translate(0 15)"/>
</clipPath>
<clipPath id="clip2_321_3431">
<rect width="55.82" height="8.86" fill="white" transform="translate(0 30)"/>
</clipPath>
</defs>
</svg>
