<svg width="28" height="27" viewBox="0 0 28 27" fill="none" xmlns="http://www.w3.org/2000/svg">
<g clip-path="url(#clip0_1248_3098)">
<path d="M24.8889 3.75H3.11111C2.28599 3.75 1.49467 4.06607 0.911223 4.62868C0.327777 5.19129 0 5.95435 0 6.75L0 13.5H28V6.75C28 5.95435 27.6722 5.19129 27.0888 4.62868C26.5053 4.06607 25.714 3.75 24.8889 3.75Z" fill="#005BBB"/>
<path d="M28 20.25C28 21.0456 27.6722 21.8087 27.0888 22.3713C26.5053 22.9339 25.714 23.25 24.8889 23.25H3.11111C2.28599 23.25 1.49467 22.9339 0.911223 22.3713C0.327777 21.8087 0 21.0456 0 20.25V13.5H28V20.25Z" fill="#FFD500"/>
</g>
<defs>
<clipPath id="clip0_1248_3098">
<rect width="28" height="27" fill="white"/>
</clipPath>
</defs>
</svg>
