<svg width="22" height="26" viewBox="0 0 22 26" fill="none" xmlns="http://www.w3.org/2000/svg">
<path d="M4.4 2.4375C4.4 2.22201 4.31308 2.01535 4.15836 1.86298C4.00365 1.7106 3.7938 1.625 3.575 1.625C3.3562 1.625 3.14635 1.7106 2.99164 1.86298C2.83692 2.01535 2.75 2.22201 2.75 2.4375V7.3125C2.74981 8.24903 3.07817 9.15686 3.67952 9.88236C4.28087 10.6079 5.11827 11.1064 6.05 11.2937V23.5625C6.05 23.778 6.13692 23.9847 6.29164 24.137C6.44635 24.2894 6.6562 24.375 6.875 24.375C7.0938 24.375 7.30365 24.2894 7.45836 24.137C7.61308 23.9847 7.7 23.778 7.7 23.5625V11.2937C8.63173 11.1064 9.46913 10.6079 10.0705 9.88236C10.6718 9.15686 11.0002 8.24903 11 7.3125V2.4375C11 2.22201 10.9131 2.01535 10.7584 1.86298C10.6036 1.7106 10.3938 1.625 10.175 1.625C9.9562 1.625 9.74636 1.7106 9.59164 1.86298C9.43692 2.01535 9.35 2.22201 9.35 2.4375V7.3125C9.35027 7.81678 9.19172 8.30873 8.8962 8.72055C8.60069 9.13237 8.18275 9.44378 7.7 9.61188V2.4375C7.7 2.22201 7.61308 2.01535 7.45836 1.86298C7.30365 1.7106 7.0938 1.625 6.875 1.625C6.6562 1.625 6.44635 1.7106 6.29164 1.86298C6.13692 2.01535 6.05 2.22201 6.05 2.4375V9.61188C5.56725 9.44378 5.14931 9.13237 4.8538 8.72055C4.55828 8.30873 4.39973 7.81678 4.4 7.3125V2.4375ZM15.95 23.5625V13H13.475C13.2562 13 13.0464 12.9144 12.8916 12.762C12.7369 12.6097 12.65 12.403 12.65 12.1875V5.6875C12.65 4.61013 13.1879 3.60263 13.9222 2.87788C14.6581 2.15475 15.6811 1.625 16.775 1.625C16.9938 1.625 17.2036 1.7106 17.3584 1.86298C17.5131 2.01535 17.6 2.22201 17.6 2.4375V23.5625C17.6 23.778 17.5131 23.9847 17.3584 24.137C17.2036 24.2894 16.9938 24.375 16.775 24.375C16.5562 24.375 16.3464 24.2894 16.1916 24.137C16.0369 23.9847 15.95 23.778 15.95 23.5625Z" fill="black"/>
</svg>
