<svg width="45" height="46" viewBox="0 0 45 46" fill="none" xmlns="http://www.w3.org/2000/svg">
<path d="M22.4999 17.0115C19.2743 17.0115 16.642 19.7023 16.642 22.9996C16.642 26.2968 19.2743 28.9877 22.4999 28.9877C25.7255 28.9877 28.3578 26.2968 28.3578 22.9996C28.3578 19.7023 25.7255 17.0115 22.4999 17.0115ZM40.0693 22.9996C40.0693 20.5199 40.0912 18.0627 39.955 15.5875C39.8188 12.7125 39.1772 10.1609 37.1205 8.05856C35.0595 5.95173 32.5678 5.30036 29.7553 5.1611C27.3295 5.02184 24.9257 5.0443 22.5043 5.0443C20.0785 5.0443 17.6747 5.02184 15.2533 5.1611C12.4408 5.30036 9.94474 5.95622 7.8881 8.05856C5.82707 10.1654 5.18986 12.7125 5.05363 15.5875C4.9174 18.0672 4.93937 20.5244 4.93937 22.9996C4.93937 25.4748 4.9174 27.9365 5.05363 30.4117C5.18986 33.2867 5.83146 35.8382 7.8881 37.9406C9.94914 40.0474 12.4408 40.6988 15.2533 40.8381C17.6791 40.9773 20.0829 40.9548 22.5043 40.9548C24.9301 40.9548 27.3339 40.9773 29.7553 40.8381C32.5678 40.6988 35.0639 40.0429 37.1205 37.9406C39.1816 35.8338 39.8188 33.2867 39.955 30.4117C40.0956 27.9365 40.0693 25.4793 40.0693 22.9996ZM22.4999 32.2131C17.5121 32.2131 13.4867 28.0982 13.4867 22.9996C13.4867 17.9009 17.5121 13.7861 22.4999 13.7861C27.4877 13.7861 31.5131 17.9009 31.5131 22.9996C31.5131 28.0982 27.4877 32.2131 22.4999 32.2131ZM31.8822 15.5605C30.7177 15.5605 29.7773 14.5992 29.7773 13.4088C29.7773 12.2183 30.7177 11.257 31.8822 11.257C33.0468 11.257 33.9872 12.2183 33.9872 13.4088C33.9876 13.6914 33.9334 13.9714 33.8277 14.2326C33.722 14.4938 33.567 14.7312 33.3715 14.9311C33.1759 15.131 32.9437 15.2894 32.6882 15.3974C32.4327 15.5055 32.1588 15.5609 31.8822 15.5605Z" fill="white"/>
</svg>
