<svg width="30" height="30" viewBox="0 0 30 30" fill="none" xmlns="http://www.w3.org/2000/svg">
<g id="clarity:calendar-solid" clip-path="url(#clip0_2273_3804)">
<path id="Vector" d="M26.8751 5H23.5417V7.5C23.5417 7.74076 23.4943 7.97916 23.4022 8.20159C23.31 8.42402 23.175 8.62613 23.0047 8.79637C22.8345 8.96661 22.6324 9.10165 22.41 9.19378C22.1875 9.28592 21.9491 9.33334 21.7084 9.33334C21.4676 9.33334 21.2292 9.28592 21.0068 9.19378C20.7844 9.10165 20.5823 8.96661 20.412 8.79637C20.2418 8.62613 20.1067 8.42402 20.0146 8.20159C19.9225 7.97916 19.8751 7.74076 19.8751 7.5V5H10.1667V7.5C10.1667 7.98623 9.97356 8.45255 9.62975 8.79637C9.28593 9.14018 8.81962 9.33334 8.33338 9.33334C7.84715 9.33334 7.38084 9.14018 7.03702 8.79637C6.69321 8.45255 6.50005 7.98623 6.50005 7.5V5H3.16672C2.9684 4.99775 2.77165 5.03528 2.5881 5.11039C2.40454 5.1855 2.23791 5.29665 2.09806 5.43728C1.95821 5.5779 1.84798 5.74515 1.7739 5.92911C1.69981 6.11308 1.66336 6.31004 1.66672 6.50834V25.1583C1.66341 25.3531 1.6985 25.5467 1.77001 25.7279C1.84151 25.9092 1.94801 26.0745 2.08344 26.2146C2.21886 26.3547 2.38055 26.4667 2.55927 26.5442C2.738 26.6218 2.93025 26.6634 3.12505 26.6667H26.8751C27.0699 26.6634 27.2621 26.6218 27.4408 26.5442C27.6196 26.4667 27.7812 26.3547 27.9167 26.2146C28.0521 26.0745 28.1586 25.9092 28.2301 25.7279C28.3016 25.5467 28.3367 25.3531 28.3334 25.1583V6.50834C28.3367 6.31354 28.3016 6.11999 28.2301 5.93876C28.1586 5.75752 28.0521 5.59215 27.9167 5.45208C27.7812 5.31201 27.6196 5.2 27.4408 5.12243C27.2621 5.04486 27.0699 5.00326 26.8751 5ZM8.33338 21.6667H6.66672V20H8.33338V21.6667ZM8.33338 17.5H6.66672V15.8333H8.33338V17.5ZM8.33338 13.3333H6.66672V11.6667H8.33338V13.3333ZM13.3334 21.6667H11.6667V20H13.3334V21.6667ZM13.3334 17.5H11.6667V15.8333H13.3334V17.5ZM13.3334 13.3333H11.6667V11.6667H13.3334V13.3333ZM18.3334 21.6667H16.6667V20H18.3334V21.6667ZM18.3334 17.5H16.6667V15.8333H18.3334V17.5ZM18.3334 13.3333H16.6667V11.6667H18.3334V13.3333ZM23.3334 21.6667H21.6667V20H23.3334V21.6667ZM23.3334 17.5H21.6667V15.8333H23.3334V17.5ZM23.3334 13.3333H21.6667V11.6667H23.3334V13.3333Z" fill="#787878"/>
<path id="Vector_2" d="M8.33333 8.33334C8.55435 8.33334 8.76631 8.24554 8.92259 8.08926C9.07887 7.93298 9.16667 7.72102 9.16667 7.5V2.50001C9.16667 2.27899 9.07887 2.06703 8.92259 1.91075C8.76631 1.75447 8.55435 1.66667 8.33333 1.66667C8.11232 1.66667 7.90036 1.75447 7.74408 1.91075C7.5878 2.06703 7.5 2.27899 7.5 2.50001V7.5C7.5 7.72102 7.5878 7.93298 7.74408 8.08926C7.90036 8.24554 8.11232 8.33334 8.33333 8.33334Z" fill="#787878"/>
<path id="Vector_3" d="M21.6666 8.33334C21.8876 8.33334 22.0996 8.24554 22.2558 8.08926C22.4121 7.93298 22.4999 7.72102 22.4999 7.5V2.50001C22.4999 2.27899 22.4121 2.06703 22.2558 1.91075C22.0996 1.75447 21.8876 1.66667 21.6666 1.66667C21.4456 1.66667 21.2336 1.75447 21.0773 1.91075C20.921 2.06703 20.8333 2.27899 20.8333 2.50001V7.5C20.8333 7.72102 20.921 7.93298 21.0773 8.08926C21.2336 8.24554 21.4456 8.33334 21.6666 8.33334Z" fill="#787878"/>
</g>
<defs>
<clipPath id="clip0_2273_3804">
<rect width="30" height="30" fill="white"/>
</clipPath>
</defs>
</svg>
