<svg width="22" height="23" viewBox="0 0 22 23" fill="none" xmlns="http://www.w3.org/2000/svg">
<path d="M20.9345 9.34981L12.1845 1.09419C12.1803 1.09046 12.1762 1.08644 12.1725 1.08216C11.8503 0.789179 11.4305 0.626831 10.9951 0.626831C10.5596 0.626831 10.1398 0.789179 9.81766 1.08216L9.80562 1.09419L1.06547 9.34981C0.887185 9.51375 0.744873 9.71292 0.647538 9.9347C0.550202 10.1565 0.499963 10.3961 0.5 10.6383V20.75C0.5 21.2141 0.684374 21.6592 1.01256 21.9874C1.34075 22.3156 1.78587 22.5 2.25 22.5H7.5C7.96413 22.5 8.40925 22.3156 8.73744 21.9874C9.06563 21.6592 9.25 21.2141 9.25 20.75V15.5H12.75V20.75C12.75 21.2141 12.9344 21.6592 13.2626 21.9874C13.5908 22.3156 14.0359 22.5 14.5 22.5H19.75C20.2141 22.5 20.6592 22.3156 20.9874 21.9874C21.3156 21.6592 21.5 21.2141 21.5 20.75V10.6383C21.5 10.3961 21.4498 10.1565 21.3525 9.9347C21.2551 9.71292 21.1128 9.51375 20.9345 9.34981ZM19.75 20.75H14.5V15.5C14.5 15.0358 14.3156 14.5907 13.9874 14.2625C13.6592 13.9343 13.2141 13.75 12.75 13.75H9.25C8.78587 13.75 8.34075 13.9343 8.01256 14.2625C7.68437 14.5907 7.5 15.0358 7.5 15.5V20.75H2.25V10.6383L2.26203 10.6273L11 2.37497L19.7391 10.6251L19.7511 10.6361L19.75 20.75Z" fill="black"/>
</svg>
