<svg width="11" height="7" viewBox="0 0 11 7" fill="none" xmlns="http://www.w3.org/2000/svg">
<path d="M5.2837 5.70779C5.32459 5.74665 5.37931 5.77842 5.44314 5.80038C5.50696 5.82233 5.57799 5.8338 5.6501 5.8338C5.72221 5.8338 5.79323 5.82233 5.85706 5.80038C5.92089 5.77842 5.97561 5.74665 6.0165 5.70779L10.0282 1.91612C10.0746 1.87239 10.1019 1.82116 10.1069 1.76801C10.112 1.71487 10.0947 1.66182 10.057 1.61465C10.0192 1.56748 9.96238 1.52799 9.89272 1.50045C9.82305 1.47292 9.74319 1.45841 9.6618 1.4585L1.6384 1.4585C1.5572 1.45872 1.47763 1.47341 1.40825 1.50101C1.33886 1.52861 1.28229 1.56806 1.24461 1.61512C1.20693 1.66218 1.18957 1.71507 1.19439 1.76811C1.19922 1.82115 1.22605 1.87232 1.27199 1.91612L5.2837 5.70779Z" fill="white"/>
</svg>
