<svg width="80" height="80" viewBox="0 0 80 80" fill="none" xmlns="http://www.w3.org/2000/svg">
<path d="M9.92667 52.6619L18.3893 49.6793C19.614 49.2519 20.251 47.902 19.8236 46.6773C19.3962 45.4526 18.0463 44.8157 16.8216 45.243L8.3589 48.2257C7.13423 48.6531 6.49729 50.003 6.92468 51.2277C7.35208 52.4524 8.70199 53.0893 9.92667 52.6619Z" fill="#FFAD00"/>
<path d="M69.4599 26.6762L60.9972 29.6588C59.7725 30.0862 59.1356 31.4361 59.563 32.6608C59.9904 33.8855 61.3403 34.5224 62.565 34.095L71.0276 31.1124C72.2523 30.685 72.8893 29.3351 72.4619 28.1104C72.0345 26.8857 70.6846 26.2488 69.4599 26.6762Z" fill="#FFAD00"/>
<path d="M32.5229 19.8581C33.7475 19.4307 34.3845 18.0808 33.9571 16.8561L30.9744 8.39346C30.5471 7.16878 29.1971 6.53184 27.9725 6.95924C26.7478 7.38663 26.1108 8.73656 26.5382 9.96123L29.5209 18.4239C29.9483 19.6486 31.2982 20.2855 32.5229 19.8581Z" fill="#FFAD00"/>
<path d="M45.105 62.5994L48.0876 71.0621C48.515 72.2868 49.865 72.9237 51.0896 72.4963C52.3143 72.0689 52.9513 70.719 52.5239 69.4943L49.5412 61.0316C49.1138 59.807 47.7639 59.17 46.5392 59.5974C45.3145 60.0248 44.6776 61.3747 45.105 62.5994Z" fill="#FFAD00"/>
<path d="M17.3843 31.7442C17.9718 32.0272 18.6131 32.0369 19.177 31.8367C19.741 31.6366 20.2357 31.215 20.5205 30.6373C21.0766 29.4639 20.5887 28.0671 19.4136 27.5011L11.3251 23.6268C10.1517 23.0706 8.75493 23.5586 8.18893 24.7337C7.62292 25.9087 8.12073 27.3038 9.29582 27.8698L17.3843 31.7442Z" fill="#FFAD00"/>
<path d="M58.5433 48.8284C57.9871 50.0018 58.4751 51.3986 59.6502 51.9646L67.7387 55.8389C68.3262 56.1219 68.9675 56.1316 69.5314 55.9315C70.0954 55.7313 70.5901 55.3098 70.8748 54.7321C71.431 53.5587 70.9431 52.1619 69.768 51.5959L61.6795 47.7215C60.5061 47.1653 59.1093 47.6533 58.5433 48.8284Z" fill="#FFAD00"/>
<path d="M50.261 20.7454C50.8249 20.5452 51.3197 20.1237 51.6044 19.546L55.4788 11.4575C56.0349 10.2841 55.547 8.88731 54.3719 8.32131C53.1968 7.7553 51.8017 8.25311 51.2357 9.4282L47.3613 17.5167C46.8052 18.69 47.2931 20.0869 48.4682 20.6529C49.0558 20.9359 49.697 20.9455 50.261 20.7454Z" fill="#FFAD00"/>
<path d="M27.1491 59.7708L23.2748 67.8593C22.7186 69.0327 23.2066 70.4295 24.3817 70.9955C24.9692 71.2785 25.6105 71.2882 26.1744 71.088C26.7384 70.8879 27.2331 70.4663 27.5179 69.8886L31.3922 61.8001C31.9484 60.6268 31.4604 59.23 30.2853 58.6639C29.112 58.1078 27.7151 58.5958 27.1491 59.7708Z" fill="#FFAD00"/>
</svg>
