<svg width="85" height="85" viewBox="0 0 85 85" fill="none" xmlns="http://www.w3.org/2000/svg">
<path d="M13.6683 57.6162L21.8638 53.9629C23.0502 53.4385 23.5766 52.0417 23.0521 50.8553C22.5276 49.669 21.1309 49.1426 19.9445 49.6671L11.749 53.3204C10.5627 53.8448 10.0363 55.2416 10.5608 56.4279C11.0852 57.6143 12.482 58.1407 13.6683 57.6162Z" fill="#FF7900"/>
<path d="M70.9199 26.9288L62.7244 30.5821C61.538 31.1066 61.0116 32.5033 61.5361 33.6897C62.0606 34.876 63.4573 35.4024 64.6437 34.8779L72.8392 31.2246C74.0255 30.7002 74.5519 29.3034 74.0275 28.117C73.503 26.9307 72.1062 26.4043 70.9199 26.9288Z" fill="#FF7900"/>
<path d="M33.5543 23.1022C34.7406 22.5777 35.267 21.181 34.7425 19.9946L31.0892 11.7991C30.5648 10.6128 29.168 10.0864 27.9817 10.6109C26.7953 11.1353 26.2689 12.5321 26.7934 13.7184L30.4467 21.9139C30.9712 23.1003 32.3679 23.6267 33.5543 23.1022Z" fill="#FF7900"/>
<path d="M49.5314 64.6938L53.1847 72.8893C53.7092 74.0756 55.106 74.602 56.2923 74.0775C57.4787 73.5531 58.005 72.1563 57.4806 70.97L53.8273 62.7745C53.3028 61.5881 51.9061 61.0617 50.7197 61.5862C49.5333 62.1107 49.007 63.5074 49.5314 64.6938Z" fill="#FF7900"/>
<path d="M19.4202 36.1667C20.0286 36.4016 20.6686 36.3597 21.2146 36.1148C21.7607 35.87 22.2199 35.41 22.4573 34.8113C22.9173 33.597 22.3187 32.244 21.1019 31.7743L12.7281 28.5627C11.5139 28.1026 10.1608 28.7013 9.69107 29.9181C9.22136 31.1349 9.82971 32.4854 11.0465 32.9551L19.4202 36.1667Z" fill="#FF7900"/>
<path d="M61.8192 49.8869C61.3592 51.1012 61.9578 52.4543 63.1746 52.924L71.5484 56.1356C72.1568 56.3705 72.7967 56.3285 73.3427 56.0837C73.8888 55.8389 74.3481 55.3789 74.5854 54.7802C75.0455 53.5659 74.4468 52.2128 73.23 51.7431L64.8563 48.5315C63.642 48.0715 62.2889 48.6702 61.8192 49.8869Z" fill="#FF7900"/>
<path d="M51.3062 22.5604C51.8522 22.3156 52.3115 21.8556 52.5489 21.2569L55.7605 12.8832C56.2205 11.6689 55.6219 10.3158 54.4051 9.84611C53.1883 9.3764 51.8377 9.98474 51.368 11.2015L48.1564 19.5753C47.6964 20.7896 48.295 22.1426 49.5118 22.6123C50.1202 22.8472 50.7602 22.8053 51.3062 22.5604Z" fill="#FF7900"/>
<path d="M31.4065 63.3177L28.1948 71.6914C27.7348 72.9057 28.3335 74.2588 29.5503 74.7285C30.1587 74.9633 30.7986 74.9214 31.3447 74.6766C31.8907 74.4317 32.35 73.9718 32.5873 73.3731L35.7989 64.9993C36.259 63.785 35.6603 62.432 34.4435 61.9623C33.2292 61.5022 31.8762 62.1009 31.4065 63.3177Z" fill="#FF7900"/>
</svg>
