<svg width="69" height="69" viewBox="0 0 69 69" fill="none" xmlns="http://www.w3.org/2000/svg">
<path d="M2.74155 41.9416L11.5916 40.4616C12.8716 40.2516 13.7315 39.0316 13.5215 37.7516C13.3115 36.4716 12.0916 35.6116 10.8116 35.8216L1.96155 37.3016C0.681548 37.5116 -0.178445 38.7316 0.0315549 40.0116C0.241555 41.2916 1.46155 42.1516 2.74155 41.9416Z" fill="#2B3D24"/>
<path d="M65.8616 26.6016L57.0116 28.0816C55.7316 28.2916 54.8716 29.5116 55.0816 30.7916C55.2916 32.0716 56.5116 32.9316 57.7916 32.7216L66.6416 31.2416C67.9216 31.0316 68.7816 29.8116 68.5716 28.5316C68.3616 27.2516 67.1416 26.3916 65.8616 26.6016Z" fill="#2B3D24"/>
<path d="M30.6515 13.5216C31.9315 13.3116 32.7915 12.0916 32.5815 10.8116L31.1015 1.96155C30.8915 0.681551 29.6715 -0.178445 28.3915 0.0315548C27.1115 0.241555 26.2515 1.46155 26.4615 2.74155L27.9415 11.5916C28.1515 12.8716 29.3715 13.7316 30.6515 13.5216Z" fill="#2B3D24"/>
<path d="M35.6815 57.7916L37.1615 66.6416C37.3715 67.9216 38.5915 68.7816 39.8715 68.5716C41.1515 68.3616 42.0115 67.1416 41.8015 65.8616L40.3215 57.0116C40.1115 55.7316 38.8914 54.8716 37.6114 55.0816C36.3314 55.2916 35.4715 56.5116 35.6815 57.7916Z" fill="#2B3D24"/>
<path d="M13.6916 22.6216C14.2216 23.0016 14.8516 23.1216 15.4416 23.0216C16.0316 22.9216 16.5916 22.5916 16.9716 22.0716C17.7216 21.0116 17.4816 19.5516 16.4216 18.7916L9.12157 13.5816C8.06157 12.8316 6.60157 13.0716 5.84157 14.1316C5.08157 15.1916 5.33158 16.6516 6.39158 17.4116L13.6916 22.6216Z" fill="#2B3D24"/>
<path d="M51.2916 46.5415C50.5416 47.6015 50.7816 49.0615 51.8416 49.8215L59.1416 55.0315C59.6716 55.4115 60.3016 55.5315 60.8916 55.4315C61.4816 55.3315 62.0416 55.0015 62.4216 54.4815C63.1716 53.4215 62.9316 51.9615 61.8716 51.2015L54.5716 45.9915C53.5116 45.2415 52.0516 45.4815 51.2916 46.5415Z" fill="#2B3D24"/>
<path d="M47.9714 17.4517C48.5614 17.3517 49.1215 17.0217 49.5015 16.5016L54.7115 9.20165C55.4615 8.14165 55.2215 6.68165 54.1615 5.92165C53.1015 5.16165 51.6415 5.41165 50.8815 6.47165L45.6715 13.7717C44.9215 14.8316 45.1614 16.2916 46.2214 17.0516C46.7514 17.4316 47.3814 17.5517 47.9714 17.4517Z" fill="#2B3D24"/>
<path d="M18.4816 51.9116L13.2716 59.2116C12.5216 60.2716 12.7616 61.7316 13.8216 62.4916C14.3516 62.8716 14.9816 62.9916 15.5716 62.8916C16.1616 62.7916 16.7216 62.4616 17.1016 61.9416L22.3116 54.6416C23.0616 53.5816 22.8216 52.1216 21.7616 51.3616C20.7016 50.6116 19.2416 50.8516 18.4816 51.9116Z" fill="#2B3D24"/>
</svg>
