<svg width="80" height="80" viewBox="0 0 80 80" fill="none" xmlns="http://www.w3.org/2000/svg">
<path d="M10.4441 53.0662L18.9264 50.14C20.1539 49.7208 20.7998 48.3751 20.3806 47.1476C19.9614 45.9201 18.6157 45.2742 17.3882 45.6935L8.90588 48.6197C7.67838 49.0389 7.03247 50.3846 7.45169 51.6121C7.87092 52.8395 9.21657 53.4855 10.4441 53.0662Z" fill="#FF7900"/>
<path d="M70.149 27.4778L61.6666 30.404C60.4391 30.8232 59.7932 32.1689 60.2124 33.3964C60.6317 34.6239 61.9773 35.2698 63.2048 34.8505L71.6872 31.9243C72.9147 31.5051 73.5606 30.1594 73.1414 28.9319C72.7221 27.7044 71.3765 27.0585 70.149 27.4778Z" fill="#FF7900"/>
<path d="M33.2581 20.4139C34.4856 19.9946 35.1315 18.649 34.7123 17.4215L31.786 8.93915C31.3668 7.71166 30.0212 7.06574 28.7937 7.48496C27.5662 7.90419 26.9202 9.24985 27.3395 10.4773L30.2657 18.9597C30.6849 20.1872 32.0306 20.8331 33.2581 20.4139Z" fill="#FF7900"/>
<path d="M45.5553 63.2381L48.4815 71.7204C48.9007 72.9479 50.2464 73.5938 51.4739 73.1746C52.7014 72.7554 53.3473 71.4097 52.9281 70.1822L50.0019 61.6999C49.5826 60.4724 48.237 59.8265 47.0095 60.2457C45.782 60.6649 45.1361 62.0106 45.5553 63.2381Z" fill="#FF7900"/>
<path d="M18.0408 32.1987C18.6264 32.4856 19.2676 32.4995 19.8329 32.3031C20.3981 32.1067 20.8957 31.6885 21.1843 31.1127C21.7482 29.9431 21.2696 28.543 20.0983 27.9692L12.0358 24.0411C10.8662 23.4771 9.46612 23.9558 8.8923 25.1271C8.31848 26.2983 8.80699 27.6967 9.97828 28.2705L18.0408 32.1987Z" fill="#FF7900"/>
<path d="M59.085 49.5566C58.5211 50.7262 58.9997 52.1263 60.171 52.7001L68.2335 56.6282C68.8192 56.9152 69.4603 56.9291 70.0256 56.7327C70.5909 56.5363 71.0884 56.1181 71.377 55.5423C71.941 54.3726 71.4623 52.9726 70.291 52.3988L62.2286 48.4706C61.0589 47.9067 59.6588 48.3853 59.085 49.5566Z" fill="#FF7900"/>
<path d="M50.9899 21.4191C51.5552 21.2227 52.0528 20.8045 52.3413 20.2287L56.2695 12.1662C56.8334 10.9966 56.3548 9.59655 55.1835 9.02273C54.0122 8.44891 52.6138 8.93741 52.04 10.1087L48.1119 18.1712C47.5479 19.3408 48.0265 20.7409 49.1978 21.3147C49.7835 21.6016 50.4246 21.6155 50.9899 21.4191Z" fill="#FF7900"/>
<path d="M27.6187 60.2898L23.6906 68.3523C23.1266 69.522 23.6053 70.922 24.7766 71.4958C25.3622 71.7827 26.0034 71.7967 26.5687 71.6003C27.1339 71.4039 27.6315 70.9856 27.9201 70.4099L31.8482 62.3474C32.4122 61.1777 31.9335 59.7777 30.7622 59.2039C29.5926 58.6399 28.1926 59.1186 27.6187 60.2898Z" fill="#FF7900"/>
</svg>
