<svg width="41" height="41" viewBox="0 0 41 41" fill="none" xmlns="http://www.w3.org/2000/svg">
<path d="M19.9935 31.857H19.5844C15.7117 31.857 12.4254 30.507 9.72535 27.807C7.02535 25.107 5.67535 21.8206 5.67535 17.9479C5.67535 14.0752 7.02535 10.7888 9.72535 8.08882C12.4254 5.38882 15.7117 4.03882 19.5844 4.03882C21.5208 4.03882 23.3279 4.39991 25.0057 5.12209C26.6835 5.84427 28.1563 6.83973 29.4239 8.10845C30.6915 9.37718 31.6864 10.8499 32.4086 12.5266C33.1308 14.2034 33.4924 16.0105 33.4935 17.9479C33.4935 21.6025 32.4637 24.9979 30.4041 28.1343C28.3444 31.2706 25.747 33.7252 22.6117 35.4979C22.339 35.6343 22.0663 35.7095 21.7935 35.7237C21.5208 35.7379 21.2754 35.6763 21.0572 35.5388C20.839 35.4025 20.6481 35.2252 20.4844 35.007C20.3208 34.7888 20.2254 34.5297 20.1981 34.2297L19.9935 31.857ZM23.6754 30.7934C25.6117 29.157 27.187 27.2408 28.4012 25.0448C29.6154 22.8488 30.2219 20.4832 30.2208 17.9479C30.2208 14.9752 29.191 12.4595 27.1314 10.401C25.0717 8.34245 22.5561 7.31264 19.5844 7.31155C16.6117 7.31155 14.0961 8.34136 12.0375 10.401C9.97899 12.4606 8.94917 14.9763 8.94808 17.9479C8.94808 20.9206 9.9779 23.4363 12.0375 25.4948C14.0972 27.5534 16.6128 28.5832 19.5844 28.5843H23.6754V30.7934ZM19.5435 26.907C20.0072 26.907 20.4026 26.7434 20.7299 26.4161C21.0572 26.0888 21.2208 25.6934 21.2208 25.2297C21.2208 24.7661 21.0572 24.3706 20.7299 24.0434C20.4026 23.7161 20.0072 23.5525 19.5435 23.5525C19.0799 23.5525 18.6844 23.7161 18.3572 24.0434C18.0299 24.3706 17.8663 24.7661 17.8663 25.2297C17.8663 25.6934 18.0299 26.0888 18.3572 26.4161C18.6844 26.7434 19.0799 26.907 19.5435 26.907ZM15.9844 14.4706C16.2844 14.607 16.5844 14.6141 16.8844 14.4919C17.1844 14.3697 17.4299 14.1717 17.6208 13.8979C17.8663 13.5706 18.1526 13.3181 18.4799 13.1403C18.8072 12.9625 19.1754 12.8741 19.5844 12.8752C20.239 12.8752 20.7708 13.059 21.1799 13.4266C21.589 13.7943 21.7935 14.265 21.7935 14.8388C21.7935 15.1934 21.691 15.5479 21.4859 15.9025C21.2808 16.257 20.9197 16.6934 20.4026 17.2115C19.7208 17.8115 19.2163 18.3777 18.889 18.9101C18.5617 19.4425 18.3981 19.9808 18.3981 20.5252C18.3981 20.8525 18.5143 21.1323 18.7466 21.3646C18.979 21.597 19.2583 21.7126 19.5844 21.7115C19.9117 21.7115 20.1844 21.5888 20.4026 21.3434C20.6208 21.0979 20.7844 20.8115 20.8935 20.4843C21.0299 20.0206 21.2754 19.5979 21.6299 19.2161C21.9844 18.8343 22.3117 18.4934 22.6117 18.1934C23.1844 17.6206 23.6143 17.0479 23.9012 16.4752C24.1881 15.9025 24.331 15.3297 24.3299 14.757C24.3299 13.5025 23.9001 12.4934 23.0404 11.7297C22.1808 10.9661 21.0288 10.5843 19.5844 10.5843C18.7117 10.5843 17.9072 10.7959 17.1708 11.2192C16.4344 11.6425 15.8344 12.2217 15.3708 12.957C15.2072 13.257 15.1864 13.5499 15.3086 13.8357C15.4308 14.1215 15.6561 14.3332 15.9844 14.4706Z" fill="white"/>
</svg>
