<svg width="28" height="28" viewBox="0 0 28 28" fill="none" xmlns="http://www.w3.org/2000/svg">
<g id="icon-park-solid:attention" clip-path="url(#clip0_1709_3076)">
<g id="Mask group">
<mask id="mask0_1709_3076" style="mask-type:luminance" maskUnits="userSpaceOnUse" x="0" y="0" width="28" height="28">
<g id="Group">
<g id="Group_2">
<path id="Vector" d="M14 25.6666C15.5324 25.6686 17.05 25.3677 18.4658 24.7813C19.8815 24.1948 21.1674 23.3344 22.2495 22.2494C23.3345 21.1673 24.1949 19.8814 24.7813 18.4657C25.3678 17.05 25.6686 15.5323 25.6667 13.9999C25.6686 12.4676 25.3677 10.9499 24.7813 9.53418C24.1949 8.11845 23.3345 6.83257 22.2495 5.75043C21.1674 4.66544 19.8815 3.80501 18.4658 3.21858C17.05 2.63215 15.5324 2.33128 14 2.33326C12.4676 2.33131 10.95 2.63219 9.53425 3.21862C8.11852 3.80505 6.83264 4.66547 5.7505 5.75043C4.66554 6.83257 3.80512 8.11845 3.21869 9.53418C2.63226 10.9499 2.33138 12.4676 2.33333 13.9999C2.33134 15.5323 2.63221 17.05 3.21865 18.4657C3.80508 19.8814 4.66551 21.1673 5.7505 22.2494C6.83264 23.3344 8.11852 24.1948 9.53425 24.7812C10.95 25.3677 12.4676 25.6685 14 25.6666Z" fill="white" stroke="white" stroke-width="4" stroke-linejoin="round"/>
<path id="Vector_2" fill-rule="evenodd" clip-rule="evenodd" d="M14 21.5832C14.3868 21.5832 14.7577 21.4295 15.0312 21.156C15.3047 20.8825 15.4583 20.5116 15.4583 20.1248C15.4583 19.7381 15.3047 19.3671 15.0312 19.0936C14.7577 18.8201 14.3868 18.6665 14 18.6665C13.6132 18.6665 13.2423 18.8201 12.9688 19.0936C12.6953 19.3671 12.5417 19.7381 12.5417 20.1248C12.5417 20.5116 12.6953 20.8825 12.9688 21.156C13.2423 21.4295 13.6132 21.5832 14 21.5832Z" fill="black"/>
<path id="Vector_3" d="M14 7V16.3333" stroke="black" stroke-width="4" stroke-linecap="round" stroke-linejoin="round"/>
</g>
</g>
</mask>
<g mask="url(#mask0_1709_3076)">
<path id="Vector_4" d="M0 0H28V28H0V0Z" fill="#FFAD00"/>
</g>
</g>
</g>
<defs>
<clipPath id="clip0_1709_3076">
<rect width="28" height="28" fill="white"/>
</clipPath>
</defs>
</svg>
