<svg width="115" height="115" viewBox="0 0 115 115" fill="none" xmlns="http://www.w3.org/2000/svg">
<g id="Frame" clip-path="url(#clip0_15_925)">
<g id="Group">
<g id="Capa 1">
<path id="Vector" d="M114.493 64.2184C118.632 33.1134 96.4659 4.58259 64.9835 0.493062C33.5011 -3.59647 4.6241 18.3039 0.484948 49.4089C-3.6542 80.5139 18.5119 109.045 49.9943 113.134C81.4767 117.224 110.354 95.3234 114.493 64.2184Z" fill="#FFAD00"/>
<g id="Clip path group">
<mask id="mask0_15_925" style="mask-type:luminance" maskUnits="userSpaceOnUse" x="-1" y="0" width="116" height="114">
<g id="clippath">
<path id="Vector_2" d="M114.493 64.2184C118.632 33.1134 96.4659 4.58259 64.9835 0.493062C33.5011 -3.59647 4.6241 18.3039 0.484948 49.4089C-3.6542 80.5139 18.5119 109.045 49.9943 113.134C81.4767 117.224 110.354 95.3234 114.493 64.2184Z" fill="white"/>
</g>
</mask>
<g mask="url(#mask0_15_925)">
<g id="Group_2">
<g id="Group_3">
<path id="Vector_3" d="M70.4481 74.293H48.4303V88.9475H70.4481V74.293Z" fill="#F9C2A7"/>
<g id="Vector_4" style="mix-blend-mode:multiply">
<path d="M53.7809 84.8984C57.099 86.201 60.7356 86.9826 64.3064 87.0152C66.3499 87.0369 68.4375 86.7763 70.4591 86.429V74.3037H48.4413V81.8806C49.9904 83.2267 51.9571 84.1819 53.7809 84.8984Z" fill="#EDEDED"/>
</g>
<g id="Group_4">
<path id="Vector_5" d="M83.2808 46.71C83.3577 46.1672 84.2806 45.2879 84.6871 44.9949C85.588 44.3327 86.4999 45.0166 86.7636 45.8741C86.9943 46.6448 87.0163 47.5133 87.0822 48.3057C87.2141 50.2488 86.9174 52.1593 86.0385 53.9178C85.4452 55.0902 84.5223 56.0563 83.4236 56.7836C83.4236 56.7836 82.237 57.3698 82.0063 56.0237L83.2918 46.71H83.2808Z" fill="#F9C2A7"/>
<path id="Vector_6" d="M83.094 47.8825C83.1489 47.4917 83.8081 46.873 84.1048 46.6559C84.753 46.1891 85.4012 46.6667 85.588 47.2855C85.7528 47.8391 85.7748 48.4578 85.8077 49.0223C85.9066 50.4118 85.6979 51.7795 85.0606 53.0387C84.6321 53.8746 83.9729 54.5693 83.1819 55.0904C83.1819 55.0904 82.3359 55.5029 82.1711 54.5476L83.094 47.8825Z" fill="#E1B099"/>
</g>
<g id="Group_5">
<path id="Vector_7" d="M35.0482 46.71C34.9713 46.1672 34.0484 45.2879 33.6419 44.9949C32.741 44.3327 31.8291 45.0166 31.5654 45.8741C31.3346 46.6448 31.3127 47.5133 31.2468 48.3057C31.1039 50.2488 31.4116 52.1593 32.2905 53.9178C32.8838 55.0902 33.8067 56.0563 34.9054 56.7836C34.9054 56.7836 36.092 57.3698 36.3227 56.0237L35.0372 46.71H35.0482Z" fill="#F9C2A7"/>
<path id="Vector_8" d="M35.235 47.8825C35.1801 47.4917 34.5208 46.873 34.2242 46.6559C33.576 46.1891 32.9277 46.6667 32.741 47.2855C32.5762 47.8391 32.5542 48.4578 32.5212 49.0223C32.4223 50.4118 32.6311 51.7795 33.2683 53.0387C33.6968 53.8746 34.356 54.5693 35.1471 55.0904C35.1471 55.0904 35.9931 55.5029 36.1579 54.5476L35.235 47.8825Z" fill="#E1B099"/>
</g>
<path id="Vector_9" d="M84.0059 48.4686C84.0059 54.6127 82.9292 60.8218 80.0067 66.13C77.4467 70.7761 73.6013 74.4994 69.4702 77.4737C66.1192 79.8836 62.5265 82.6951 58.2965 82.3477C53.8798 81.9895 50.4409 78.2661 47.2107 75.3678C42.6731 71.2863 39.0914 66.2169 36.883 60.2465C35.5207 56.5666 34.8944 52.4199 34.8944 48.4578C34.8944 28.6036 45.8923 16.1201 59.4502 16.1201C73.008 16.1201 84.0059 28.6036 84.0059 48.4578V48.4686Z" fill="#F9C2A7"/>
<path id="Vector_10" d="M97.8934 95.5802L70.4481 88.4917H48.4303L20.985 95.5802C20.985 95.5802 8.27315 100.237 6.85583 114.968H112.023C110.605 100.237 97.8934 95.5802 97.8934 95.5802Z" fill="#F9C2A7"/>
<path id="Vector_11" d="M97.8934 95.5802L70.4481 88.4917H48.4303L20.985 95.5802C20.985 95.5802 8.27315 100.237 6.85583 114.968H112.023C110.605 100.237 97.8934 95.5802 97.8934 95.5802Z" fill="white"/>
<path id="Vector_12" d="M41.4976 25.6183C41.4976 25.6183 49.7377 37.7218 70.4591 39.1221C70.4591 39.1221 68.7231 38.3514 66.6796 33.0758C66.6796 33.0758 73.4365 38.8182 81.9953 42.5415L83.962 46.4819C83.962 46.4819 83.951 44.4737 85.8297 44.8211C85.8297 44.8211 87.4009 29.0485 80.8087 21.287C80.8087 21.287 83.962 21.439 85.9945 23.1541C85.9945 23.1541 83.0061 16.9449 72.7993 13.5364C72.7993 13.5364 75.3153 11.5173 79.8639 12.9177C79.8639 12.9177 73.843 10.1279 63.7461 10.5947C63.7461 10.5947 43.9476 9.81308 41.4976 25.64V25.6183Z" fill="#432918"/>
<path id="Vector_13" d="M44.7058 28.4949L34.9384 46.3842C34.9384 46.3842 34.0704 45.353 33.6529 44.9948C33.6529 44.9948 33.1475 20.4186 46.9251 15.7617L44.7168 28.484L44.7058 28.4949Z" fill="#432918"/>
<path id="Vector_14" d="M97.8934 95.5799L77.5896 90.3369L59.4502 114.978L41.4976 90.2935L20.996 95.5908C20.996 95.5908 8.28413 100.248 6.86682 114.978H112.034C110.616 100.248 97.9044 95.5908 97.9044 95.5908L97.8934 95.5799Z" fill="#3C3C3B"/>
<path id="Vector_15" d="M57.033 102.625L51.9791 114.967H66.3499L61.4168 102.625H57.033Z" fill="#BC1621"/>
<g id="Group_6">
<path id="Vector_16" d="M59.1096 88.7305L52.6823 97.2627L57.1539 102.658L59.3403 102.625L61.5377 102.582L65.8226 97.0456L59.1096 88.7305Z" fill="#BE1622"/>
<g id="Vector_17" style="mix-blend-mode:multiply">
<path d="M63.4165 96.1447C62.5924 97.7513 61.0653 99.5858 58.9778 99.1299C56.8243 98.6632 55.8465 96.6549 56.3409 94.6142C56.8243 92.6277 58.1208 90.9668 58.8459 89.0889L52.6713 97.2628L57.1429 102.658L61.5267 102.593L65.8226 97.0566L64.0098 94.8096C63.834 95.2655 63.6362 95.7214 63.4165 96.1556V96.1447Z" fill="#DADADA"/>
</g>
</g>
<path id="Vector_18" d="M59.4502 114.967L41.4976 90.2827L27.1487 93.9843L45.4858 106.739L40.7725 108.791L49.2543 114.967H59.4502Z" fill="#313130"/>
<path id="Vector_19" d="M59.4502 115L77.3918 90.3154L91.7407 94.0171L73.4036 106.772L78.117 108.834L69.6351 115H59.4502Z" fill="#313130"/>
<path id="Vector_20" d="M37.6302 89.0016L48.3974 84.019L59.3733 88.5457L70.3382 84.019L81.8415 89.0016L65.5809 99.7591L59.3733 90.9664L52.6823 99.7591L37.6302 89.0016Z" fill="#E9E9E9"/>
</g>
</g>
</g>
</g>
</g>
</g>
</g>
<defs>
<clipPath id="clip0_15_925">
<rect width="115" height="115" fill="white"/>
</clipPath>
</defs>
</svg>
