<svg width="18" height="24" viewBox="0 0 18 24" fill="none" xmlns="http://www.w3.org/2000/svg">
<path d="M9 0C4.03144 0 0 3.45589 0 7.71429C0 14.5714 9 24 9 24C9 24 18 14.5714 18 7.71429C18 3.45589 13.9686 0 9 0ZM9 12C8.28799 12 7.59196 11.7989 6.99995 11.4222C6.40793 11.0454 5.94651 10.51 5.67403 9.88349C5.40156 9.257 5.33027 8.56763 5.46917 7.90255C5.60808 7.23747 5.95095 6.62656 6.45442 6.14706C6.95788 5.66757 7.59934 5.34103 8.29768 5.20874C8.99601 5.07644 9.71985 5.14434 10.3777 5.40384C11.0355 5.66334 11.5977 6.10279 11.9933 6.66662C12.3889 7.23044 12.6 7.89332 12.6 8.57143C12.599 9.48044 12.2193 10.3519 11.5444 10.9947C10.8695 11.6375 9.95446 11.999 9 12Z" fill="black"/>
</svg>
