<svg width="60" height="60" viewBox="0 0 60 60" fill="none" xmlns="http://www.w3.org/2000/svg">
<rect width="60" height="60" rx="10" fill="#F9E5D7"/>
<path d="M23 14C20 14 12 16 12 18C12 20 13 25 14 27C15 29 22 27 23 26C24 25 25 14 23 14Z" fill="#FF7900"/>
<path d="M13 16.717C12.352 17.088 12 17.565 12 18C12 20 13 25 14 27C14.281 27.562 15.039 27.777 16 27.85C15 25 14 21 13 16.717Z" fill="#EB6F00"/>
<path d="M37 14C40 14 48 16 48 18C48 20 47 25 46 27C45 29 38 27 37 26C36 25 35 14 37 14Z" fill="#FF7900"/>
<path d="M47 16.717C47.648 17.088 48 17.565 48 18C48 20 47 25 46 27C45.719 27.562 44.961 27.777 44 27.85C45 25 46 21 47 16.717Z" fill="#EB6F00"/>
<path d="M37 14H35.932C35.515 15.695 33.021 17 30 17C26.979 17 24.485 15.695 24.068 14H23C20.791 14 18 15.791 18 18C18 18 18 38 17 42C16 46 18.791 46 21 46H39C41.209 46 44 46 43 42C42 38 42 18 42 18C42 15.791 39.209 14 37 14Z" fill="#FF7900"/>
<path d="M30 19C33.866 19 37 16.761 37 14H35.932C35.515 15.695 33.021 17 30 17C26.979 17 24.485 15.695 24.068 14H23C23 16.761 26.134 19 30 19Z" fill="#EB6F00"/>
<path d="M25.3008 26.6791C25.3008 26.6791 25.1861 26.117 24.5235 26.117C23.8609 26.117 23.5301 26.808 23.5301 27.3657C23.5301 27.9233 24.0343 28.4907 24.5235 28.4907C25.2279 28.4907 25.4146 28.175 25.4146 27.6912H24.7965C24.7965 27.6912 24.7574 27.3657 25.2385 27.3657H25.8824V28.8047C25.8824 28.8047 25.7037 28.7104 25.6272 28.4418C25.6272 28.4418 25.3444 28.9425 24.5244 28.9425C23.7044 28.9425 23 28.2693 23 27.3657C23 26.4621 23.4465 25.7141 24.5244 25.7141C25.6023 25.7141 25.8718 26.6897 25.8718 26.6897L25.3017 26.6791H25.3008Z" fill="white"/>
<path d="M27.3926 26.5768C26.7504 26.5768 26.2293 27.114 26.2293 27.7766C26.2293 28.4391 26.7504 28.9763 27.3926 28.9763C28.0347 28.9763 28.5559 28.4391 28.5559 27.7766C28.5559 27.114 28.0347 26.5768 27.3926 26.5768ZM27.3926 28.4881C27.0066 28.4881 26.6944 28.1697 26.6944 27.7766C26.6944 27.3835 27.0075 27.0651 27.3926 27.0651C27.7777 27.0651 28.0907 27.3835 28.0907 27.7766C28.0907 28.1697 27.7777 28.4881 27.3926 28.4881Z" fill="white"/>
<path d="M29.5217 28.039V26.0948C29.5217 26.0948 29.5608 25.7755 29.1784 25.7755C28.8342 25.7755 28.8529 26.0948 28.8529 26.0948C28.8529 26.0948 28.8333 26.3492 29.0495 26.3581L29.0423 28.8901H29.5226L30.9527 26.7138V28.6339C30.9527 28.6339 30.9189 28.9417 31.2364 28.9417C31.5744 28.9417 31.5939 28.6339 31.5939 28.6339C31.5939 28.6339 31.6108 28.3991 31.4214 28.3778L31.4196 25.8271H30.9607L29.5217 28.039Z" fill="white"/>
<path d="M29.4914 25.4136C29.4914 25.4136 29.4639 25.0009 29.8427 25C30.2172 25 30.2785 25.1556 30.6289 25.1556C30.8753 25.1556 30.9109 25.0551 30.9109 25.0551C30.9109 25.0551 30.9251 25.4607 30.6405 25.4607C30.2492 25.4607 30.1416 25.3228 29.8561 25.3237C29.6062 25.3237 29.4914 25.4136 29.4914 25.4136Z" fill="white"/>
<path d="M32.3997 26.9441L32.3961 26.6898H31.9585V28.6339C31.9585 28.6339 31.939 28.9416 32.2583 28.9416C32.5775 28.9416 32.5829 28.6339 32.5829 28.6339C32.5829 28.6339 32.5847 28.3778 32.4237 28.3778L32.4219 27.4964C32.4219 27.4964 32.6567 27.1122 33.0863 27.1122C33.5158 27.1122 33.6128 27.3586 33.6128 27.3586C33.6128 27.3586 33.9463 26.6231 33.0409 26.6231C32.7154 26.6231 32.4006 26.9441 32.4006 26.9441H32.3997Z" fill="white"/>
<path d="M36.9941 26.0806C36.9941 26.0806 37.067 25.7951 36.6988 25.7657C36.4062 25.7426 36.3849 26.0877 36.3849 26.0877L36.2008 28.1457H36.6704L36.8349 26.2407C36.8349 26.2407 36.9541 26.2487 36.9941 26.0806Z" fill="white"/>
<path d="M36.4116 28.9007C36.5472 28.9007 36.6571 28.7908 36.6571 28.6553C36.6571 28.5197 36.5472 28.4098 36.4116 28.4098C36.276 28.4098 36.1661 28.5197 36.1661 28.6553C36.1661 28.7908 36.276 28.9007 36.4116 28.9007Z" fill="white"/>
<path d="M35.6894 27.692V27.1406C35.6894 27.1406 35.6761 26.6115 34.7716 26.6115C33.965 26.6115 33.8645 26.9628 33.8645 27.0686C33.8645 27.2874 34.0548 27.4608 34.0548 27.4608C34.0548 27.4608 34.254 26.9699 34.8837 26.9699C34.8837 26.9699 35.2172 26.969 35.2172 27.218C35.2172 27.467 35.0491 27.5417 34.6924 27.5711C34.3545 27.5987 33.7871 27.7659 33.7871 28.239C33.7871 28.7121 34.1686 28.9523 34.5181 28.9523C34.7858 28.9523 34.9975 28.9096 35.1567 28.8251C35.4022 28.6944 35.4867 28.5787 35.4867 28.5787C35.5453 28.7842 35.6788 28.8616 35.6894 28.8669V27.6912V27.692ZM34.7031 28.5387C34.2647 28.5387 34.27 28.239 34.27 28.239C34.27 28.239 34.2184 27.9446 34.8748 27.8753C35.1078 27.8503 35.2181 27.7605 35.2181 27.7605V28.3235C35.2181 28.3235 35.0989 28.5369 34.7031 28.5378V28.5387Z" fill="white"/>
</svg>
