<svg width="60" height="60" viewBox="0 0 60 60" fill="none" xmlns="http://www.w3.org/2000/svg">
<rect width="60" height="60" rx="10" fill="#F9E5D7"/>
<path d="M17.2246 46.9967H50.9278C52.1972 46.9967 52.9897 45.5618 52.3534 44.4157L36.8428 12.2571C36.0511 10.8309 34.0777 10.8309 33.286 12.2571L16.7846 46.2002C16.5883 46.5539 16.8329 46.9967 17.2246 46.9967Z" fill="#AAA8A0"/>
<path d="M8.19979 46.9967H43.0847L27.1344 23.3967C25.6766 21.6254 23.0491 21.6254 21.5913 23.3967L7.308 44.9709C6.6534 45.7663 7.19498 46.9967 8.19979 46.9967Z" fill="#C1BFB4"/>
<path d="M17.3557 33.127C19.7588 33.127 19.0722 31.8932 21.599 31.8932C23.467 31.8932 23.6073 33.4124 23.6073 34.5568C23.6073 36.0535 24.7701 37.2668 26.2045 37.2668C27.6388 37.2668 28.8016 36.0536 28.8016 34.5568C28.8016 30.2994 29.8066 31.6253 31.3987 31.6253C31.9055 31.6253 32.3674 31.7813 32.7272 31.6718L27.1347 23.3973L27.1342 23.3967C26.5875 22.7325 25.8764 22.3173 25.1242 22.1512C23.8703 21.8745 22.5024 22.2896 21.5912 23.3967L15.3663 32.7992C15.7245 32.9741 16.3289 33.127 17.3557 33.127Z" fill="#CFE7E8"/>
<path d="M36.8428 12.2571C36.0511 10.831 34.0778 10.831 33.286 12.2571L28.5984 21.8994C29.9455 21.9798 30.5145 23.0426 30.4647 23.8897C30.4254 24.5574 30.791 25.2074 31.3534 25.5283C32.8605 26.3882 34.3827 25.2723 34.3827 23.7855C34.3827 20.7791 35.0477 19.9441 36.1184 19.8508C36.1902 19.8571 36.2589 19.871 36.3329 19.871C38.1328 19.871 38.9289 21.4532 38.7883 22.4855C38.7024 23.1159 39.0312 23.7336 39.5314 24.0984C40.6578 24.9197 41.804 24.7591 42.562 24.1147L36.8428 12.2571Z" fill="#B9D3DB"/>
</svg>
