<svg width="73" height="73" viewBox="0 0 73 73" fill="none" xmlns="http://www.w3.org/2000/svg">
<g id="octicon:play-24">
<path id="Vector" d="M28.9871 47.1895V25.5002C28.9875 25.2288 29.061 24.9625 29.1997 24.7293C29.3384 24.4961 29.5373 24.3044 29.7755 24.1745C30.0138 24.0445 30.2826 23.9811 30.5538 23.9907C30.825 24.0003 31.0886 24.0828 31.317 24.2293L48.1892 35.071C48.4028 35.2078 48.5786 35.3963 48.7004 35.6189C48.8221 35.8415 48.8859 36.0911 48.8859 36.3448C48.8859 36.5986 48.8221 36.8482 48.7004 37.0708C48.5786 37.2934 48.4028 37.4819 48.1892 37.6187L31.317 48.4634C31.0886 48.61 30.825 48.6924 30.5538 48.702C30.2826 48.7117 30.0138 48.6482 29.7755 48.5182C29.5373 48.3883 29.3384 48.1967 29.1997 47.9634C29.061 47.7302 28.9875 47.4639 28.9871 47.1926V47.1895Z" fill="white"/>
<path id="Vector_2" d="M3.26726 36.3448C3.26726 17.9627 18.1696 3.06036 36.5517 3.06036C54.9339 3.06036 69.8362 17.9627 69.8362 36.3448C69.8362 54.727 54.9339 69.6293 36.5517 69.6293C18.1696 69.6293 3.26726 54.727 3.26726 36.3448ZM36.5517 7.59916C28.9279 7.59916 21.6163 10.6277 16.2255 16.0186C10.8346 21.4094 7.80605 28.721 7.80605 36.3448C7.80605 43.9687 10.8346 51.2803 16.2255 56.6711C21.6163 62.062 28.9279 65.0905 36.5517 65.0905C44.1756 65.0905 51.4872 62.062 56.878 56.6711C62.2689 51.2803 65.2974 43.9687 65.2974 36.3448C65.2974 28.721 62.2689 21.4094 56.878 16.0186C51.4872 10.6277 44.1756 7.59916 36.5517 7.59916Z" fill="white"/>
</g>
</svg>
