<svg width="89" height="89" viewBox="0 0 89 89" fill="none" xmlns="http://www.w3.org/2000/svg">
<g clip-path="url(#clip0_321_3422)">
<path d="M3.55487 54.4106L15.0367 52.4905C16.6973 52.218 17.813 50.6352 17.5406 48.9746C17.2681 47.3139 15.6853 46.1982 14.0247 46.4706L2.54292 48.3907C0.88228 48.6632 -0.233464 50.246 0.0389851 51.9066C0.311434 53.5673 1.89423 54.683 3.55487 54.4106Z" fill="#FFAD00"/>
<path d="M85.4456 34.5097L73.9638 36.4298C72.3032 36.7023 71.1874 38.2851 71.4599 39.9457C71.7323 41.6063 73.3151 42.7221 74.9758 42.4496L86.4575 40.5295C88.1182 40.2571 89.2339 38.6743 88.9615 37.0136C88.689 35.353 87.1062 34.2372 85.4456 34.5097Z" fill="#FFAD00"/>
<path d="M39.7514 17.5386C41.412 17.2662 42.5277 15.6834 42.2553 14.0227L40.3352 2.54097C40.0627 0.880326 38.4799 -0.235417 36.8193 0.037032C35.1586 0.309481 34.0429 1.89228 34.3154 3.55292L36.2355 15.0347C36.5079 16.6953 38.0907 17.8111 39.7514 17.5386Z" fill="#FFAD00"/>
<path d="M46.29 74.9748L48.2101 86.4566C48.4825 88.1172 50.0653 89.233 51.726 88.9605C53.3866 88.6881 54.5024 87.1053 54.2299 85.4446L52.3098 73.9628C52.0373 72.3022 50.4545 71.1865 48.7939 71.4589C47.1333 71.7314 46.0175 73.3142 46.29 74.9748Z" fill="#FFAD00"/>
<path d="M17.7606 29.3328C18.4482 29.8258 19.2656 29.9815 20.031 29.8518C20.7965 29.722 21.523 29.2939 22.016 28.6193C22.989 27.244 22.6777 25.3499 21.3025 24.3639L11.8316 17.6045C10.4564 16.6315 8.56222 16.9429 7.57621 18.3181C6.60318 19.6933 6.91455 21.5875 8.28977 22.5735L17.7606 29.3328Z" fill="#FFAD00"/>
<path d="M66.5293 60.365C65.5563 61.7402 65.8677 63.6344 67.2429 64.6204L76.7137 71.3797C77.4014 71.8727 78.2187 72.0284 78.9842 71.8986C79.7496 71.7689 80.4761 71.3408 80.9691 70.6661C81.9422 69.2909 81.6308 67.3967 80.2556 66.4107L70.7847 59.6514C69.4095 58.6784 67.5153 58.9897 66.5293 60.365Z" fill="#FFAD00"/>
<path d="M62.235 22.6275C63.0004 22.4978 63.727 22.0696 64.22 21.395L70.9793 11.9242C71.9523 10.5489 71.641 8.65478 70.2657 7.66877C68.8905 6.68276 66.9964 7.00711 66.0104 8.38233L59.251 17.8532C58.278 19.2284 58.5894 21.1226 59.9646 22.1086C60.6522 22.6016 61.4695 22.7573 62.235 22.6275Z" fill="#FFAD00"/>
<path d="M23.9625 67.3472L17.2032 76.818C16.2301 78.1932 16.5415 80.0874 17.9167 81.0734C18.6043 81.5664 19.4217 81.7221 20.1871 81.5924C20.9526 81.4626 21.6791 81.0345 22.1721 80.3598L28.9314 70.889C29.9045 69.5138 29.5931 67.6196 28.2179 66.6336C26.8427 65.6476 24.9485 65.972 23.9625 67.3472Z" fill="#FFAD00"/>
</g>
<defs>
<clipPath id="clip0_321_3422">
<rect width="89" height="89" fill="white"/>
</clipPath>
</defs>
</svg>
