<svg width="27" height="27" viewBox="0 0 27 27" fill="none" xmlns="http://www.w3.org/2000/svg">
<g clip-path="url(#clip0_1248_3101)">
<path d="M0 6.79425V9.75H4.221L0 6.79425ZM3.498 23.25H9.75V18.8722L3.498 23.25ZM17.25 18.873V23.25H23.5012L17.25 18.873ZM0 17.25V20.2057L4.2225 17.25H0ZM23.5028 3.75H17.25V8.12775L23.5028 3.75ZM27 20.2065V17.25H22.7767L27 20.2065ZM27 9.75V6.79425L22.7782 9.75H27ZM9.75 3.75H3.498L9.75 8.12775V3.75Z" fill="#00247D"/>
<path d="M18.855 17.2499L26.139 22.3507C26.4947 21.9842 26.7504 21.5325 26.8815 21.0389L21.4702 17.2499H18.855ZM9.74999 17.2499H8.14424L0.860987 22.3499C1.25174 22.7474 1.75274 23.0317 2.31449 23.1637L9.74999 17.9572V17.2499ZM17.25 9.74993H18.8557L26.139 4.64993C25.7415 4.24664 25.2378 3.96445 24.6862 3.83618L17.25 9.04268V9.74993ZM8.14424 9.74993L0.860987 4.64993C0.505452 5.01666 0.249598 5.46821 0.117737 5.96168L5.52899 9.74993H8.14424Z" fill="#CF1B2B"/>
<path d="M27 15.75H15.75V23.25H17.25V18.873L23.5012 23.25H24C24.3984 23.2501 24.7929 23.1706 25.1602 23.0161C25.5275 22.8617 25.8603 22.6355 26.139 22.3507L18.855 17.25H21.4703L26.8815 21.039C26.9513 20.7862 27 20.5245 27 20.25V20.2065L22.7767 17.25H27V15.75ZM0 15.75V17.25H4.2225L0 20.2057V20.25C0 21.0683 0.32925 21.8085 0.861 22.35L8.14425 17.25H9.75V17.9573L2.3145 23.163C2.535 23.2155 2.763 23.25 3 23.25H3.498L9.75 18.8722V23.25H11.25V15.75H0ZM27 6.75C27.0005 5.96399 26.6911 5.20947 26.139 4.65L18.8558 9.75H17.25V9.04275L24.6863 3.83625C24.4616 3.78115 24.2313 3.7522 24 3.75H23.5028L17.25 8.12775V3.75H15.75V11.25H27V9.75H22.7782L27 6.79425V6.75ZM9.75 3.75V8.12775L3.498 3.75H3C2.60147 3.74983 2.20692 3.82936 1.83958 3.98392C1.47224 4.13848 1.13952 4.36495 0.861 4.65L8.14425 9.75H5.529L0.11775 5.96175C0.0433351 6.21803 0.00373006 6.48316 0 6.75L0 6.79425L4.221 9.75H0V11.25H11.25V3.75H9.75Z" fill="#EEEEEE"/>
<path d="M15.75 11.25V3.75H11.25V11.25H0V15.75H11.25V23.25H15.75V15.75H27V11.25H15.75Z" fill="#CF1B2B"/>
</g>
<defs>
<clipPath id="clip0_1248_3101">
<rect width="27" height="27" fill="white"/>
</clipPath>
</defs>
</svg>
