<svg width="60" height="60" viewBox="0 0 60 60" fill="none" xmlns="http://www.w3.org/2000/svg">
<rect width="60" height="60" rx="10" fill="#F9E5D7"/>
<path fill-rule="evenodd" clip-rule="evenodd" d="M43.3159 26.6117C43.2236 26.6072 43.1312 26.6057 43.0388 26.6069H39.1834C36.0294 26.6069 33.3282 29.1102 33.3282 32.375C33.3282 35.6399 36.0294 38.1431 39.1849 38.1431H43.0372C43.1338 38.1431 43.2272 38.1431 43.3143 38.1368C43.9653 38.0952 44.579 37.8183 45.041 37.3578C45.503 36.8972 45.7818 36.2844 45.8254 35.6335C45.8318 35.5401 45.8318 35.4404 45.8318 35.3485V29.4015C45.8318 29.3097 45.8318 29.2099 45.8254 29.1165C45.7819 28.4659 45.5033 27.8533 45.0416 27.3927C44.5799 26.9322 43.9666 26.6552 43.3159 26.6133V26.6117ZM38.8461 33.9124C39.6584 33.9124 40.3186 33.2253 40.3186 32.375C40.3186 31.5248 39.6584 30.8376 38.8461 30.8376C38.0339 30.8376 37.3752 31.5248 37.3752 32.375C37.3752 33.2253 38.0323 33.9124 38.8461 33.9124Z" fill="#FF7900"/>
<path fill-rule="evenodd" clip-rule="evenodd" d="M43.0372 40.45C43.0902 40.4482 43.143 40.4588 43.1912 40.4811C43.2393 40.5033 43.2816 40.5366 43.3146 40.5782C43.3476 40.6198 43.3703 40.6685 43.381 40.7205C43.3916 40.7725 43.3899 40.8263 43.376 40.8775C43.0689 41.9732 42.5828 42.9074 41.8022 43.6927C40.6606 44.8438 39.2119 45.3552 37.4227 45.5974C35.6842 45.8334 33.4644 45.8334 30.6587 45.8334H27.4334C24.6294 45.8334 22.4079 45.8334 20.6694 45.5974C18.8803 45.3552 17.4315 44.8438 16.2899 43.6927C15.1484 42.5432 14.6417 41.0834 14.401 39.2799C14.1667 37.5272 14.1667 35.2884 14.1667 32.4621V32.2879C14.1667 29.4617 14.1667 27.2213 14.401 25.4701C14.6417 23.6667 15.1484 22.21 16.2884 21.0558C17.4299 19.9063 18.8787 19.3933 20.6679 19.1526C22.4079 18.9167 24.6294 18.9167 27.4334 18.9167H30.6587C33.4628 18.9167 35.6842 18.9167 37.4227 19.1526C39.2119 19.3949 40.6606 19.9063 41.8022 21.0558C42.5828 21.8427 43.0689 22.7769 43.376 23.8741C43.3896 23.9252 43.3911 23.9788 43.3803 24.0306C43.3695 24.0824 43.3467 24.1309 43.3138 24.1723C43.2808 24.2137 43.2387 24.2468 43.1906 24.269C43.1426 24.2912 43.0901 24.3018 43.0372 24.3H39.1849C34.8561 24.3 31.0419 27.7469 31.0419 32.375C31.0419 37.0031 34.8577 40.45 39.1865 40.45H43.0372ZM19.8889 25.0695C19.7381 25.0701 19.589 25.1005 19.4499 25.1587C19.3109 25.217 19.1847 25.3021 19.0785 25.4091C18.9724 25.5161 18.8884 25.643 18.8312 25.7825C18.7741 25.922 18.7451 26.0714 18.7457 26.2222C18.7457 26.8603 19.2571 27.3764 19.8889 27.3764H25.9942C26.6275 27.3764 27.1389 26.8603 27.1389 26.2222C27.1398 25.9176 27.0197 25.6251 26.8051 25.409C26.5904 25.1929 26.2988 25.0708 25.9942 25.0695H19.8889Z" fill="#FF7900"/>
<path d="M23.3136 17.3713L26.4138 15.0866C27.2228 14.4885 28.2023 14.1657 29.2083 14.1657C30.2144 14.1657 31.1939 14.4885 32.0029 15.0866L35.1205 17.384C33.8158 17.3333 32.3592 17.3333 30.7648 17.3333H27.3289C25.8691 17.3333 24.528 17.3333 23.3136 17.3713Z" fill="#FF7900"/>
</svg>
