<svg width="31" height="25" viewBox="0 0 31 25" fill="none" xmlns="http://www.w3.org/2000/svg">
<g id="icomoon-free:price-tags" clip-path="url(#clip0_1607_3027)">
<path id="Vector" d="M29.8375 0H20.5375C19.8989 0 19.0046 0.373437 18.5535 0.828125L7.02307 12.4516C6.80565 12.6718 6.68359 12.9698 6.68359 13.2805C6.68359 13.5911 6.80565 13.8892 7.02307 14.1094L17.0035 24.1703C17.222 24.3895 17.5176 24.5125 17.8258 24.5125C18.134 24.5125 18.4296 24.3895 18.6481 24.1703L30.1785 12.5469C30.6311 12.0906 31 11.1906 31 10.5469V1.17188C30.9992 0.861328 30.8765 0.563736 30.6586 0.344145C30.4408 0.124555 30.1456 0.00082483 29.8375 0ZM24.025 9.375C23.7196 9.3749 23.4172 9.31415 23.135 9.19623C22.8529 9.07832 22.5966 8.90553 22.3807 8.68775C22.1648 8.46997 21.9935 8.21145 21.8768 7.92696C21.76 7.64247 21.6999 7.33758 21.7 7.02969C21.7001 6.7218 21.7604 6.41695 21.8774 6.13253C21.9943 5.84812 22.1657 5.58972 22.3818 5.37208C22.5978 5.15445 22.8543 4.98183 23.1365 4.86411C23.4187 4.74638 23.7211 4.68583 24.0266 4.68594C24.6434 4.68614 25.2349 4.93336 25.6709 5.37319C26.1069 5.81302 26.3518 6.40944 26.3516 7.03125C26.3514 7.65306 26.1061 8.24932 25.6698 8.68886C25.2335 9.12839 24.6419 9.37521 24.025 9.375Z" fill="black"/>
<path id="Vector_2" d="M3.1 13.2812L16.275 0H14.3375C13.6989 0 12.8046 0.373437 12.3535 0.828125L0.823054 12.4516C0.605639 12.6718 0.483582 12.9698 0.483582 13.2805C0.483582 13.5911 0.605639 13.8892 0.823054 14.1094L10.8035 24.1703C11.0219 24.3895 11.3176 24.5125 11.6258 24.5125C11.934 24.5125 12.2296 24.3895 12.4481 24.1703L13.1766 23.4359L3.10155 13.2797L3.1 13.2812Z" fill="black"/>
</g>
<defs>
<clipPath id="clip0_1607_3027">
<rect width="31" height="25" fill="white"/>
</clipPath>
</defs>
</svg>
