<svg width="140" height="80" viewBox="0 0 140 80" fill="none" xmlns="http://www.w3.org/2000/svg">
<g id="Group 177">
<path id="Vector" d="M29.4999 78.499L38 13.9535L131.92 13.9535L29.4999 78.499Z" fill="#FAFAFA"/>
<path id="Vector_2" d="M29.803 78.6486C31.9554 77.3603 41.4093 70.679 59.2403 59.9544C77.5361 49.01 102.067 31.7329 131.262 14.2637L131.55 14.7772C119.847 14.6502 107.624 14.511 95.0815 14.3808C74.6359 14.147 56.029 14.9165 38.1027 14.7173L38.8453 14.3557C36.2375 32.4586 34.0117 49.9667 32.4181 60.9867C30.812 71.7181 29.9926 77.2441 29.7788 78.6522C29.7788 78.6522 29.7677 78.5654 29.7938 78.3847C29.8151 78.1669 29.8527 77.8835 29.8808 77.5258C29.9742 76.7164 30.1261 75.5952 30.2851 74.1447C30.6614 71.1213 31.1901 66.7874 31.8707 61.3323C33.2838 50.2503 35.1759 32.7002 37.5 14.5L37.5497 14.1009L38.3442 14.1009C56.2704 14.3001 74.8741 13.5058 95.3181 13.7271C107.838 13.8733 120.061 14.0125 131.764 14.1395L132.9 14.1498L132.052 14.653C102.489 32.1383 77.6144 49.428 59.0749 60.3955C49.9296 65.7915 42.57 71.1172 37.4581 74.128C34.9812 75.5776 33.0566 76.7188 31.7051 77.5233C31.0851 77.8795 30.6039 78.1649 30.2374 78.3828C29.9161 78.5689 29.7562 78.6681 29.7546 78.6557L29.803 78.6486Z" fill="#B1B1B1"/>
<path id="Vector_3" d="M37.5 13.9998L1.57014 79.4428L29.4136 79.1323L37.5 13.9998Z" fill="#E0E0E0"/>
</g>
</svg>
