<svg width="120" height="118" viewBox="0 0 120 118" fill="none" xmlns="http://www.w3.org/2000/svg">
<g id="heroicons:paper-clip-solid" clip-path="url(#clip0_1607_3025)">
<path id="Vector" fill-rule="evenodd" clip-rule="evenodd" d="M56.9727 21.3552C55.9383 21.3552 54.9141 21.5575 53.9584 21.9505C53.0028 22.3435 52.1344 22.9196 51.403 23.6458C50.6716 24.372 50.0914 25.2341 49.6955 26.1829C49.2997 27.1318 49.096 28.1487 49.096 29.1757L49.096 82.9506C49.0963 86.4076 50.4798 89.7228 52.942 92.167C55.4043 94.6113 58.7437 95.9842 62.2255 95.9839C65.7073 95.9836 69.0465 94.61 71.5083 92.1653C73.97 89.7206 75.3529 86.4051 75.3526 82.9481L75.3526 45.1337C75.3766 44.4587 75.6635 43.8192 76.153 43.3501C76.6424 42.881 77.2962 42.6188 77.9765 42.6188C78.6568 42.6188 79.3105 42.881 79.8 43.3501C80.2895 43.8192 80.5764 44.4586 80.6004 45.1337L80.6004 82.9482C80.6319 85.3641 80.1798 87.7623 79.2704 90.0034C78.361 92.2445 77.0123 94.284 75.3027 96.0035C73.5931 97.723 71.5565 99.0883 69.3112 100.02C67.0659 100.952 64.6566 101.432 62.223 101.432C59.7895 101.432 57.3801 100.952 55.1349 100.02C52.8896 99.0883 50.853 97.723 49.1434 96.0035C47.4338 94.284 46.0851 92.2445 45.1757 90.0034C44.2663 87.7623 43.8142 85.3641 43.8457 82.9481L43.8432 29.1757C43.8435 25.7187 45.227 22.4035 47.6892 19.9593C50.1515 17.5151 53.4909 16.1421 56.9727 16.1424C60.4545 16.1427 63.7937 17.5163 66.2554 19.961C68.7172 22.4057 70.1001 25.7212 70.0998 29.1782L70.0998 82.9187V82.958V82.9924L70.0998 83.0022L70.0973 83.0145C70.0267 85.0465 69.1619 86.9713 67.6861 88.3809C66.2104 89.7905 64.2397 90.5741 62.1918 90.5655C60.144 90.5568 58.1801 89.7567 56.7164 88.3347C55.2528 86.9127 54.4044 84.9807 54.3513 82.9481L54.3513 44.5586C54.3629 43.8751 54.6444 43.2236 55.1352 42.7443C55.626 42.2649 56.2868 41.9961 56.9752 41.9958C57.6636 41.9955 58.3247 42.2637 58.8159 42.7425C59.3072 43.2214 59.5893 43.8727 59.6016 44.5561L59.6016 82.9457C59.597 83.6373 59.8693 84.3024 60.3586 84.7946C60.8479 85.2869 61.5141 85.566 62.2107 85.5705C62.9072 85.5751 63.5771 85.3047 64.0729 84.8189C64.5687 84.3331 64.8498 83.6717 64.8544 82.9801L64.847 29.1732C64.847 28.1462 64.6432 27.1293 64.2474 26.1805C63.8516 25.2316 63.2714 24.3695 62.5399 23.6433C61.8085 22.9171 60.9402 22.3411 59.9845 21.9481C59.0289 21.555 58.0071 21.3552 56.9727 21.3552Z" fill="#FF7900"/>
</g>
<defs>
<clipPath id="clip0_1607_3025">
<rect width="83.7184" height="83.7184" fill="white" transform="matrix(0.709637 -0.704568 0.709637 0.704568 0.956848 58.9854)"/>
</clipPath>
</defs>
</svg>
