<svg width="116" height="116" viewBox="0 0 116 116" fill="none" xmlns="http://www.w3.org/2000/svg">
<g id="Group">
<path id="Vector" d="M103.245 64.4001C109.909 36.2777 92.5129 8.07823 64.3904 1.41482C36.268 -5.24858 8.06854 12.1474 1.40513 40.2698C-5.25827 68.3922 12.1377 96.5917 40.2601 103.255C68.3825 109.919 96.582 92.5225 103.245 64.4001Z" fill="#505A14"/>
<g id="Clip path group">
<mask id="mask0_52_1118" style="mask-type:luminance" maskUnits="userSpaceOnUse" x="-1" y="-1" width="106" height="106">
<g id="clippath">
<path id="Vector_2" d="M103.245 64.4001C109.909 36.2777 92.5129 8.07823 64.3904 1.41482C36.268 -5.24858 8.06854 12.1474 1.40513 40.2698C-5.25827 68.3922 12.1377 96.5917 40.2601 103.255C68.3825 109.919 96.582 92.5225 103.245 64.4001Z" fill="white"/>
</g>
</mask>
<g mask="url(#mask0_52_1118)">
<g id="Group_2">
<g id="Group_3">
<path id="Vector_3" d="M62.3499 67.1401H42.3099V80.6401H62.3499V67.1401Z" fill="#F9C2A7"/>
<g id="Vector_4" style="mix-blend-mode:multiply">
<path d="M47.1699 76.9099C50.1899 78.1099 53.4999 78.8299 56.7499 78.8599C58.6099 78.8799 60.5099 78.6399 62.3499 78.3199V67.1499H42.3099V74.1299C43.7199 75.3699 45.5199 76.2499 47.1699 76.9099Z" fill="#EDEDED"/>
</g>
<g id="Group_4">
<path id="Vector_5" d="M74.45 42.1299C74.52 41.6399 75.38 40.8399 75.76 40.5699C76.6 39.9699 77.44 40.5899 77.69 41.3699C77.91 42.0699 77.93 42.8599 77.98 43.5799C78.11 45.3499 77.83 47.0899 77.01 48.6899C76.46 49.7599 75.6 50.6299 74.58 51.2899C74.58 51.2899 73.48 51.8199 73.26 50.5999C73.26 50.5999 74.45 42.1299 74.45 42.1199V42.1299Z" fill="#F9C2A7"/>
<path id="Vector_6" d="M74.27 43.1998C74.32 42.8498 74.94 42.2798 75.2 42.0798C75.8 41.6498 76.41 42.0898 76.58 42.6498C76.74 43.1498 76.75 43.7098 76.79 44.2298C76.88 45.4998 76.68 46.7398 76.09 47.8798C75.7 48.6398 75.08 49.2698 74.35 49.7398C74.35 49.7398 73.56 50.1198 73.41 49.2498C73.41 49.2498 74.26 43.1898 74.26 43.1798L74.27 43.1998Z" fill="#E1B099"/>
</g>
<g id="Group_5">
<path id="Vector_7" d="M29.71 42.1299C29.64 41.6399 28.78 40.8399 28.4 40.5699C27.56 39.9699 26.72 40.5899 26.47 41.3699C26.25 42.0699 26.23 42.8599 26.18 43.5799C26.05 45.3499 26.33 47.0899 27.15 48.6899C27.7 49.7599 28.56 50.6299 29.58 51.2899C29.58 51.2899 30.68 51.8199 30.9 50.5999C30.9 50.5999 29.71 42.1299 29.71 42.1199V42.1299Z" fill="#F9C2A7"/>
<path id="Vector_8" d="M29.8799 43.1998C29.8299 42.8498 29.2199 42.2798 28.9499 42.0798C28.3499 41.6498 27.7399 42.0898 27.5699 42.6498C27.4099 43.1498 27.3999 43.7098 27.3599 44.2298C27.2699 45.4998 27.4699 46.7398 28.0599 47.8798C28.4499 48.6398 29.0699 49.2698 29.7999 49.7398C29.7999 49.7398 30.5899 50.1198 30.7399 49.2498C30.7399 49.2498 29.8899 43.1898 29.8899 43.1798L29.8799 43.1998Z" fill="#E1B099"/>
</g>
<path id="Vector_9" d="M75.1199 43.7301C75.1199 49.3201 74.1199 54.9701 71.3999 59.8101C69.0199 64.0401 65.4599 67.4301 61.6299 70.1301C58.5199 72.3201 55.1899 74.8801 51.2599 74.5701C47.1599 74.2401 43.9699 70.8601 40.9699 68.2201C36.7599 64.5001 33.4299 59.8901 31.3899 54.4601C30.1299 51.1101 29.5499 47.3401 29.5499 43.7401C29.5499 25.6701 39.7499 14.3101 52.3299 14.3101C64.9099 14.3101 75.1099 25.6701 75.1099 43.7401L75.1199 43.7301Z" fill="#F9C2A7"/>
<path id="Vector_10" d="M87.33 86.7502L62.35 80.2202H42.31L17.33 86.7502C17.33 86.7502 5.74997 91.0402 4.46997 104.61H100.19C98.9 91.0402 87.33 86.7502 87.33 86.7502Z" fill="#F9C2A7"/>
<path id="Vector_11" d="M87.33 86.7502L62.35 80.2202H42.31L17.33 86.7502C17.33 86.7502 5.74997 91.0402 4.46997 104.61H100.19C98.9 91.0402 87.33 86.7502 87.33 86.7502Z" fill="white"/>
<path id="Vector_12" d="M87.33 86.7499L68.85 81.9199L52.34 104.62L36.01 81.8799L17.35 86.7599C17.35 86.7599 5.76999 91.0499 4.48999 104.62H100.21C98.92 91.0499 87.35 86.7599 87.35 86.7599L87.33 86.7499Z" fill="#002638"/>
<path id="Vector_13" d="M50.1399 93.2402L45.5399 104.61H58.6099L54.1299 93.2402H50.1399Z" fill="#FFAD00"/>
<g id="Group_6">
<path id="Vector_14" d="M52.0299 80.4399L46.1699 88.2999L50.2499 93.2699L52.2399 93.2399L54.2299 93.2099L58.1399 88.0999L52.0299 80.4399Z" fill="#FFAD00"/>
<g id="Vector_15" style="mix-blend-mode:multiply">
<path d="M55.9499 87.27C55.1999 88.75 53.8099 90.44 51.9099 90.02C49.9499 89.59 49.0499 87.74 49.5099 85.86C49.9499 84.03 51.1299 82.5 51.7899 80.77L46.1699 88.3L50.2399 93.27L54.2299 93.21L58.1399 88.11L56.4899 86.04C56.3299 86.46 56.1499 86.88 55.9499 87.28V87.27Z" fill="#DADADA"/>
</g>
</g>
<path id="Vector_16" d="M75.44 41.5C75.44 41.5 71.72 58.88 59.25 63.88C59.25 63.88 57.69 67.74 52.52 67.74C47.35 67.74 45.79 63.88 45.79 63.88C33.31 58.88 29.6 41.5 29.6 41.5C28.52 60.95 42.51 69.41 42.51 69.41C50.14 75.65 52.52 74.58 52.52 74.58C52.52 74.58 54.9 75.65 62.53 69.41C62.53 69.41 76.39 61.53 75.44 41.5Z" fill="#432918"/>
<path id="Vector_17" d="M52.33 58.0798C52.33 58.0798 47.17 56.5098 45.8 63.8898C45.8 63.8898 44.34 63.6998 42.03 61.8498C42.03 61.8498 45.49 53.1998 52.33 58.0798Z" fill="#432918"/>
<path id="Vector_18" d="M52.77 58.0798C52.77 58.0798 57.93 56.5098 59.3 63.8898C59.3 63.8898 60.76 63.6998 63.07 61.8498C63.07 61.8498 59.61 53.1998 52.77 58.0798Z" fill="#432918"/>
<path id="Vector_19" d="M29.61 41.5C29.61 41.5 32.95 21.15 43.38 23.15C43.38 23.15 52.81 29.02 60.67 23.01C60.67 23.01 70.21 22.69 75.44 41.49C75.44 41.49 76.75 21.43 62.35 14.28C62.35 14.28 49.03 8.13004 37.63 17.28C37.63 17.28 26.83 25.81 29.6 41.49L29.61 41.5Z" fill="#432918"/>
<path id="Vector_20" d="M52.3299 104.61L35.9999 81.8701L22.9399 85.2801L39.6299 97.0301L35.3399 98.9201L43.0599 104.61H52.3299Z" fill="#001B2E"/>
<path id="Vector_21" d="M52.33 104.64L68.67 81.8999L81.73 85.3099L65.04 97.0699L69.32 98.9599L61.61 104.64H52.33Z" fill="#001B2E"/>
<path id="Vector_22" d="M32.48 80.6901L42.28 76.1001L52.26 80.2701L62.25 76.1001L72.72 80.6901L57.92 90.6001L52.26 82.5001L46.17 90.6001L32.48 80.6901Z" fill="#E9E9E9"/>
</g>
</g>
</g>
</g>
</g>
</svg>
