<svg width="80" height="80" viewBox="0 0 80 80" fill="none" xmlns="http://www.w3.org/2000/svg">
<path d="M7.90835 42.5575L16.8812 42.578C18.1783 42.585 19.2302 41.5259 19.2372 40.2288C19.2441 38.9317 18.1851 37.8799 16.888 37.8729L7.9151 37.8524C6.61801 37.8455 5.56615 38.9045 5.55919 40.2016C5.55223 41.4987 6.61126 42.5506 7.90835 42.5575Z" fill="#FF7900"/>
<path d="M72.7046 37.9865L63.7318 37.9661C62.4347 37.9591 61.3828 39.0181 61.3758 40.3152C61.3689 41.6123 62.4279 42.6642 63.725 42.6712L72.6979 42.6916C73.995 42.6986 75.0469 41.6396 75.0538 40.3425C75.0608 39.0454 74.0017 37.9935 72.7046 37.9865Z" fill="#FF7900"/>
<path d="M40.1771 19.2038C41.4742 19.2107 42.526 18.1517 42.533 16.8546L42.5535 7.88174C42.5604 6.58464 41.5014 5.53278 40.2043 5.52582C38.9072 5.51885 37.8553 6.57789 37.8484 7.87499L37.8279 16.8479C37.8209 18.145 38.88 19.1968 40.1771 19.2038Z" fill="#FF7900"/>
<path d="M37.7349 63.6916L37.7144 72.6645C37.7074 73.9616 38.7665 75.0135 40.0636 75.0204C41.3606 75.0274 42.4125 73.9684 42.4195 72.6713L42.44 63.6984C42.4469 62.4013 41.3879 61.3494 40.0908 61.3425C38.7937 61.3355 37.7418 62.3945 37.7349 63.6916Z" fill="#FF7900"/>
<path d="M21.9344 25.3402C22.3934 25.8035 22.9945 26.0271 23.5929 26.0272C24.1913 26.0272 24.7986 25.7955 25.2602 25.3464C26.1769 24.4267 26.1844 22.9471 25.2664 22.0206L18.9402 15.6634C18.0205 14.7467 16.5409 14.7393 15.6144 15.6573C14.6879 16.5753 14.6903 18.0565 15.6083 18.9831L21.9344 25.3402Z" fill="#FF7900"/>
<path d="M55.0059 55.2099C54.0892 56.1296 54.0817 57.6092 54.9997 58.5357L61.3259 64.8928C61.7849 65.3561 62.386 65.5798 62.9844 65.5798C63.5828 65.5799 64.1901 65.3481 64.6517 64.899C65.5684 63.9793 65.5759 62.4997 64.6578 61.5732L58.3317 55.216C57.412 54.2994 55.9324 54.2919 55.0059 55.2099Z" fill="#FF7900"/>
<path d="M56.5964 25.9743C57.1948 25.9744 57.8021 25.7427 58.2637 25.2935L64.6209 18.9673C65.5375 18.0477 65.545 16.5681 64.627 15.6416C63.709 14.715 62.2278 14.7174 61.3012 15.6354L54.9441 21.9616C54.0274 22.8813 54.0199 24.3609 54.9379 25.2874C55.3969 25.7506 55.998 25.9743 56.5964 25.9743Z" fill="#FF7900"/>
<path d="M21.76 55.0187L15.4028 61.3449C14.4861 62.2646 14.4787 63.7441 15.3967 64.6707C15.8557 65.1339 16.4567 65.3576 17.0552 65.3576C17.6536 65.3577 18.2609 65.126 18.7224 64.6768L25.0796 58.3506C25.9963 57.4309 26.0038 55.9514 25.0858 55.0248C24.1661 54.1082 22.6865 54.1007 21.76 55.0187Z" fill="#FF7900"/>
</svg>
