<svg width="36" height="36" viewBox="0 0 36 36" fill="none" xmlns="http://www.w3.org/2000/svg">
<path d="M20.25 6.75C20.25 6.15326 20.4871 5.58097 20.909 5.15901C21.331 4.73705 21.9033 4.5 22.5 4.5H29.25C29.8467 4.5 30.419 4.73705 30.841 5.15901C31.2629 5.58097 31.5 6.15326 31.5 6.75V25.875C31.5 27.3668 30.9074 28.7976 29.8525 29.8525C28.7976 30.9074 27.3668 31.5 25.875 31.5H4.5C3.90326 31.5 3.33097 31.2629 2.90901 30.841C2.48705 30.419 2.25 29.8467 2.25 29.25V22.5C2.25 21.9033 2.48705 21.331 2.90901 20.909C3.33097 20.4871 3.90326 20.25 4.5 20.25H11.25V15.75C11.25 15.1533 11.4871 14.581 11.909 14.159C12.331 13.7371 12.9033 13.5 13.5 13.5H20.25V6.75ZM29.25 6.75H22.5V13.5C22.5 14.0967 22.2629 14.669 21.841 15.091C21.419 15.5129 20.8467 15.75 20.25 15.75H13.5V20.25C13.5 20.8467 13.2629 21.419 12.841 21.841C12.419 22.2629 11.8467 22.5 11.25 22.5H4.5V29.25H25.875C26.7701 29.25 27.6286 28.8944 28.2615 28.2615C28.8944 27.6286 29.25 26.7701 29.25 25.875V6.75Z" fill="black"/>
</svg>
