<svg width="28" height="25" viewBox="0 0 28 25" fill="none" xmlns="http://www.w3.org/2000/svg">
<path d="M14.6071 21.7381C15.8991 21.7381 16.9464 20.6908 16.9464 19.3989C16.9464 18.1069 15.8991 17.0596 14.6071 17.0596C13.3152 17.0596 12.2679 18.1069 12.2679 19.3989C12.2679 20.6908 13.3152 21.7381 14.6071 21.7381Z" stroke="black" stroke-width="2" stroke-linecap="round" stroke-linejoin="round"/>
<path d="M10.1964 14.1489C10.7771 13.5528 11.4713 13.079 12.238 12.7555C13.0047 12.432 13.8285 12.2653 14.6607 12.2653C15.4929 12.2653 16.3167 12.432 17.0834 12.7555C17.8501 13.079 18.5443 13.5528 19.125 14.1489M6.32141 11.131C7.4084 10.0377 8.70081 9.17007 10.1243 8.57801C11.5478 7.98595 13.0743 7.68115 14.6161 7.68115C16.1578 7.68115 17.6843 7.98595 19.1078 8.57801C20.5313 9.17007 21.8237 10.0377 22.9107 11.131" stroke="black" stroke-width="2" stroke-linecap="round" stroke-linejoin="round"/>
<path d="M3 7.8096C4.52399 6.28482 6.33347 5.07526 8.32506 4.25001C10.3167 3.42476 12.4513 3 14.6071 3C16.7629 3 18.8976 3.42476 20.8892 4.25001C22.8808 5.07526 24.6903 6.28482 26.2143 7.8096" stroke="black" stroke-width="2" stroke-linecap="round" stroke-linejoin="round"/>
</svg>
