<svg width="26" height="22" viewBox="0 0 26 22" fill="none" xmlns="http://www.w3.org/2000/svg">
<path d="M25.7075 7.70745L19.7075 13.7074C19.5199 13.8951 19.2654 14.0005 19 14.0005C18.7346 14.0005 18.4801 13.8951 18.2925 13.7074C18.1049 13.5198 17.9994 13.2653 17.9994 12.9999C17.9994 12.7346 18.1049 12.4801 18.2925 12.2924L22.5863 7.99994H17.625C15.1858 7.99927 12.8156 8.80933 10.8871 10.3027C8.95852 11.7962 7.58104 13.8882 6.97125 16.2499C6.90495 16.5069 6.73929 16.7269 6.51073 16.8617C6.28217 16.9965 6.00943 17.035 5.7525 16.9687C5.49557 16.9024 5.27551 16.7367 5.14071 16.5082C5.00592 16.2796 4.96745 16.0069 5.03375 15.7499C5.75327 12.9581 7.38095 10.4849 9.66049 8.71973C11.94 6.95457 14.7419 5.99776 17.625 5.99995H22.5888L18.2925 1.70745C18.1996 1.61454 18.1259 1.50424 18.0756 1.38284C18.0253 1.26145 17.9994 1.13134 17.9994 0.999946C17.9994 0.868551 18.0253 0.738442 18.0756 0.617049C18.1259 0.495656 18.1996 0.385356 18.2925 0.292446C18.4801 0.104805 18.7346 -0.000610352 19 -0.000610352C19.1314 -0.000610352 19.2615 0.0252698 19.3829 0.0755525C19.5043 0.125835 19.6146 0.199535 19.7075 0.292446L25.7075 6.29244C25.8005 6.38532 25.8742 6.49561 25.9246 6.617C25.9749 6.7384 26.0008 6.86853 26.0008 6.99995C26.0008 7.13136 25.9749 7.26149 25.9246 7.38289C25.8742 7.50428 25.8005 7.61457 25.7075 7.70745ZM21 19.9999H2V4.99995C2 4.73473 1.89464 4.48038 1.70711 4.29284C1.51957 4.1053 1.26522 3.99995 1 3.99995C0.734784 3.99995 0.48043 4.1053 0.292893 4.29284C0.105357 4.48038 0 4.73473 0 4.99995V19.9999C0 20.5304 0.210714 21.0391 0.585786 21.4142C0.960859 21.7892 1.46957 21.9999 2 21.9999H21C21.2652 21.9999 21.5196 21.8946 21.7071 21.7071C21.8946 21.5195 22 21.2652 22 20.9999C22 20.7347 21.8946 20.4804 21.7071 20.2928C21.5196 20.1053 21.2652 19.9999 21 19.9999Z" fill="#FF7900"/>
</svg>
