<svg width="38" height="38" viewBox="0 0 38 38" fill="none" xmlns="http://www.w3.org/2000/svg">
<path d="M1.51857 23.2319L6.42068 22.4121C7.12969 22.2958 7.60605 21.62 7.48973 20.911C7.37341 20.202 6.69764 19.7256 5.98864 19.8419L1.08652 20.6617C0.377516 20.7781 -0.0988427 21.4538 0.0174786 22.1628C0.1338 22.8718 0.809566 23.3482 1.51857 23.2319Z" fill="#FF7900"/>
<path d="M36.4814 14.7349L31.5793 15.5547C30.8703 15.671 30.394 16.3468 30.5103 17.0558C30.6266 17.7648 31.3024 18.2411 32.0114 18.1248L36.9135 17.305C37.6225 17.1887 38.0989 16.5129 37.9826 15.8039C37.8662 15.0949 37.1905 14.6186 36.4814 14.7349Z" fill="#FF7900"/>
<path d="M16.9782 7.48973C17.6872 7.37341 18.1635 6.69764 18.0472 5.98864L17.2274 1.08652C17.1111 0.377519 16.4354 -0.0988427 15.7263 0.0174785C15.0173 0.1338 14.541 0.80957 14.6573 1.51858L15.4771 6.42068C15.5934 7.12969 16.2692 7.60605 16.9782 7.48973Z" fill="#FF7900"/>
<path d="M19.7643 32.0114L20.5841 36.9135C20.7004 37.6225 21.3762 38.0989 22.0852 37.9825C22.7942 37.8662 23.2706 37.1904 23.1543 36.4814L22.3345 31.5793C22.2182 30.8703 21.5424 30.394 20.8334 30.5103C20.1244 30.6266 19.648 31.3024 19.7643 32.0114Z" fill="#FF7900"/>
<path d="M7.58391 12.5303C7.87748 12.7408 8.22645 12.8073 8.55325 12.7519C8.88006 12.6965 9.19025 12.5137 9.40074 12.2257C9.81617 11.6385 9.68324 10.8298 9.09609 10.4089L5.05254 7.52298C4.4654 7.10755 3.65669 7.24049 3.23572 7.82763C2.81474 8.41478 2.95322 9.22349 3.54037 9.64446L7.58391 12.5303Z" fill="#FF7900"/>
<path d="M28.4109 25.7798C27.9955 26.367 28.1285 27.1757 28.7156 27.5967L32.7592 30.4825C33.0527 30.693 33.4017 30.7595 33.7285 30.7041C34.0553 30.6487 34.3655 30.4659 34.576 30.1779C34.9914 29.5907 34.8585 28.782 34.2713 28.3611L30.2278 25.4752C29.6406 25.0598 28.8319 25.1927 28.4109 25.7798Z" fill="#FF7900"/>
<path d="M26.5719 9.66662C26.8987 9.61123 27.2089 9.42844 27.4194 9.1404L30.3053 5.09686C30.7207 4.50971 30.5878 3.701 30.0006 3.28003C29.4135 2.85906 28.6048 2.99753 28.1838 3.58468L25.2979 7.62823C24.8825 8.21537 25.0154 9.02408 25.6025 9.44505C25.8961 9.65554 26.2451 9.72201 26.5719 9.66662Z" fill="#FF7900"/>
<path d="M10.2371 28.7544L7.35126 32.7979C6.93583 33.3851 7.06877 34.1938 7.65591 34.6148C7.94948 34.8252 8.29845 34.8917 8.62525 34.8363C8.95206 34.7809 9.26225 34.5981 9.47274 34.3101L12.3586 30.2666C12.774 29.6794 12.6411 28.8707 12.054 28.4497C11.4668 28.0343 10.6581 28.1672 10.2371 28.7544Z" fill="#FF7900"/>
</svg>
