<svg width="33" height="33" viewBox="0 0 33 33" fill="none" xmlns="http://www.w3.org/2000/svg">
<g id="simple-line-icons:basket" clip-path="url(#clip0_2139_1457)">
<path id="Vector" d="M32.7312 9.15232C32.6366 9.01797 32.5112 8.90833 32.3654 8.8326C32.2196 8.75688 32.0577 8.7173 31.8934 8.71719H10.0072L8.35048 3.00407C7.70079 0.754395 6.15698 0.511536 5.52379 0.511536H1.10643C0.540242 0.511536 0.0823669 0.969926 0.0823669 1.53557C0.0823669 2.10121 0.540758 2.55957 1.1064 2.55957H5.52324C5.66298 2.55957 6.0894 2.55957 6.38024 3.56452L12.0794 24.5097C12.2032 24.9516 12.6059 25.2568 13.0653 25.2568H26.9861C27.4183 25.2568 27.8039 24.9861 27.9499 24.5793L32.8566 10.0877C32.9695 9.77364 32.9226 9.42405 32.7313 9.15232H32.7312ZM26.2655 23.2093H13.8426L10.5828 10.7658H30.4374L26.2655 23.2093ZM24.2345 27.3323C22.8103 27.3323 21.6563 28.4863 21.6563 29.9104C21.6563 31.3346 22.8103 32.4885 24.2345 32.4885C25.6586 32.4885 26.8126 31.3346 26.8126 29.9104C26.8126 28.4863 25.6586 27.3323 24.2345 27.3323ZM14.9532 27.3323C13.5291 27.3323 12.3751 28.4863 12.3751 29.9104C12.3751 31.3346 13.5291 32.4885 14.9532 32.4885C16.3774 32.4885 17.5313 31.3346 17.5313 29.9104C17.5313 28.4863 16.3774 27.3323 14.9532 27.3323Z" fill="#FF7900"/>
</g>
<defs>
<clipPath id="clip0_2139_1457">
<rect width="33" height="33" fill="white"/>
</clipPath>
</defs>
</svg>
