<svg width="79" height="79" viewBox="0 0 79 79" fill="none" xmlns="http://www.w3.org/2000/svg">
<path d="M6.98568 42.4797L15.9555 42.2444C17.2523 42.2144 18.2735 41.1258 18.2435 39.8291C18.2135 38.5323 17.1249 37.511 15.8282 37.541L6.85833 37.7763C5.56157 37.8063 4.54031 38.8949 4.57032 40.1917C4.60033 41.4884 5.68891 42.5097 6.98568 42.4797Z" fill="#505A14"/>
<path d="M71.6255 36.064L62.6557 36.2992C61.3589 36.3293 60.3377 37.4178 60.3677 38.7146C60.3977 40.0114 61.4863 41.0326 62.783 41.0026L71.7529 40.7674C73.0496 40.7374 74.0709 39.6488 74.0409 38.352C74.0109 37.0552 72.9223 36.034 71.6255 36.064Z" fill="#505A14"/>
<path d="M38.5759 18.2159C39.8726 18.1859 40.8939 17.0973 40.8639 15.8006L40.6286 6.83074C40.5986 5.53397 39.51 4.51272 38.2133 4.54272C36.9165 4.57273 35.8952 5.66132 35.9252 6.95809L36.1605 15.9279C36.1905 17.2247 37.2791 18.2459 38.5759 18.2159Z" fill="#505A14"/>
<path d="M37.4023 62.7553L37.6375 71.7251C37.6676 73.0219 38.7562 74.0432 40.0529 74.0132C41.3497 73.9831 42.3709 72.8946 42.3409 71.5978L42.1057 62.628C42.0757 61.3312 40.9871 60.31 39.6903 60.34C38.3935 60.37 37.3723 61.4586 37.4023 62.7553Z" fill="#505A14"/>
<path d="M20.5153 24.8696C20.9874 25.3196 21.5946 25.5261 22.1927 25.509C22.7909 25.492 23.3914 25.2431 23.84 24.781C24.73 23.8355 24.6954 22.3564 23.7513 21.4564L17.2465 15.2821C16.3011 14.392 14.8219 14.4267 13.9219 15.3707C13.0219 16.3148 13.0665 17.7954 14.0106 18.6953L20.5153 24.8696Z" fill="#505A14"/>
<path d="M54.4247 53.7847C53.5346 54.7301 53.5693 56.2093 54.5134 57.1093L61.0181 63.2836C61.4902 63.7336 62.0974 63.94 62.6955 63.923C63.2937 63.906 63.8941 63.6571 64.3427 63.1949C65.2328 62.2495 65.1981 60.7703 64.2541 59.8703L57.7493 53.696C56.8039 52.8059 55.3247 52.8406 54.4247 53.7847Z" fill="#505A14"/>
<path d="M55.1813 24.5157C55.7795 24.4987 56.38 24.2497 56.8286 23.7876L63.0029 17.2828C63.8929 16.3374 63.8583 14.8582 62.9142 13.9582C61.9702 13.0582 60.4896 13.1028 59.5896 14.0469L53.4153 20.5517C52.5252 21.4971 52.5599 22.9763 53.504 23.8763C53.976 24.3263 54.5832 24.5327 55.1813 24.5157Z" fill="#505A14"/>
<path d="M21.1869 54.5411L15.0126 61.0459C14.1225 61.9913 14.1572 63.4705 15.1012 64.3705C15.5733 64.8205 16.1805 65.0269 16.7786 65.0099C17.3768 64.9929 17.9773 64.744 18.4259 64.2819L24.6002 57.7771C25.4902 56.8316 25.4555 55.3524 24.5115 54.4525C23.5661 53.5624 22.0869 53.5971 21.1869 54.5411Z" fill="#505A14"/>
</svg>
