<svg width="17" height="18" viewBox="0 0 17 18" fill="none" xmlns="http://www.w3.org/2000/svg">
<path fill-rule="evenodd" clip-rule="evenodd" d="M1.53333 2.10023H15.3333V15.9002H1.53333V2.10023ZM0 2.10023C0 1.69356 0.161547 1.30355 0.449103 1.016C0.736659 0.728442 1.12667 0.566895 1.53333 0.566895H15.3333C15.74 0.566895 16.13 0.728442 16.4176 1.016C16.7051 1.30355 16.8667 1.69356 16.8667 2.10023V15.9002C16.8667 16.3069 16.7051 16.6969 16.4176 16.9845C16.13 17.272 15.74 17.4336 15.3333 17.4336H1.53333C1.12667 17.4336 0.736659 17.272 0.449103 16.9845C0.161547 16.6969 0 16.3069 0 15.9002V2.10023ZM12.8033 5.95043C12.9184 5.78268 12.9622 5.57608 12.9249 5.37609C12.8877 5.17609 12.7725 4.99908 12.6048 4.88399C12.437 4.76891 12.2304 4.72517 12.0304 4.76241C11.8304 4.79965 11.6534 4.91481 11.5383 5.08256L7.11467 11.5302L4.90207 8.86223C4.77181 8.70739 4.58562 8.61033 4.3841 8.5922C4.18257 8.57406 3.98205 8.63633 3.82625 8.76543C3.67044 8.89452 3.57199 9.07998 3.55235 9.28136C3.53271 9.48275 3.59347 9.68373 3.7214 9.8405L6.5826 13.2905C6.65838 13.3817 6.75428 13.454 6.86275 13.5019C6.97123 13.5497 7.08932 13.5718 7.20775 13.5663C7.32619 13.5608 7.44173 13.5279 7.5453 13.4702C7.64888 13.4125 7.73766 13.3316 7.80467 13.2338L12.8033 5.95043Z" fill="#787878"/>
</svg>
