<svg width="538" height="115" viewBox="0 0 538 115" fill="none" xmlns="http://www.w3.org/2000/svg">
<g opacity="0.2">
<path d="M409.573 0L400 16.5423H419.147L409.573 0Z" fill="#FFAD00"/>
<path d="M530.215 15.5343C525.925 15.5343 522.431 12.0473 522.431 7.76713C522.431 3.48694 525.925 0 530.215 0C534.505 0 538 3.48694 538 7.76713C538 12.0473 534.505 15.5343 530.215 15.5343ZM530.215 2.64413C527.383 2.64413 525.081 4.94121 525.081 7.76713C525.081 10.593 527.383 12.8901 530.215 12.8901C533.048 12.8901 535.35 10.593 535.35 7.76713C535.35 4.94121 533.048 2.64413 530.215 2.64413Z" fill="#FFAD00"/>
<path d="M7.78469 113.534C3.49483 113.534 0 110.047 0 105.767C0 101.487 3.49483 98 7.78469 98C12.0745 98 15.5694 101.487 15.5694 105.767C15.5694 110.047 12.0745 113.534 7.78469 113.534ZM7.78469 100.644C4.95239 100.644 2.65011 102.941 2.65011 105.767C2.65011 108.593 4.95239 110.89 7.78469 110.89C10.617 110.89 12.9193 108.593 12.9193 105.767C12.9193 102.941 10.617 100.644 7.78469 100.644Z" fill="#FFAD00"/>
<path d="M331.108 114.143C322.222 114.143 315 106.929 315 98.0713C315 89.2135 322.23 82 331.108 82C339.986 82 347.215 89.2135 347.215 98.0713C347.215 106.929 339.986 114.143 331.108 114.143ZM331.108 85.0407C323.911 85.0407 318.048 90.8826 318.048 98.0713C318.048 105.26 323.903 111.102 331.108 111.102C338.313 111.102 344.168 105.26 344.168 98.0713C344.168 90.8826 338.313 85.0407 331.108 85.0407Z" fill="#FFAD00"/>
<path d="M165.35 73.0617L178.692 50H152L165.35 73.0617Z" fill="#FFAD00"/>
</g>
</svg>
