<svg width="40" height="28" viewBox="0 0 40 28" fill="none" xmlns="http://www.w3.org/2000/svg">
<g clip-path="url(#clip0_15_359)">
<path d="M1.29843 0C3.45992 0 4.57991 1.34826 5.40028 2.3327C6.16358 3.24581 6.59873 3.72376 7.49757 3.72376C8.39641 3.72376 8.83869 3.24581 9.60199 2.3327C10.4224 1.34826 11.5423 0 13.7038 0C15.8653 0 16.9853 1.34826 17.8057 2.3327C18.569 3.24581 19.0041 3.72376 19.9101 3.72376C20.8089 3.72376 21.2512 3.24581 22.0145 2.3327C22.8278 1.34826 23.9477 0 26.1092 0C28.2707 0 29.3907 1.34826 30.2111 2.3327C30.9744 3.24581 31.4167 3.72376 32.3155 3.72376C33.2144 3.72376 33.6566 3.24581 34.4199 2.3327C35.2332 1.34826 36.3603 0 38.5147 0C39.2351 0 39.813 0.584959 39.813 1.29832C39.813 2.01169 39.228 2.59665 38.5147 2.59665C37.6158 2.59665 37.1735 3.0746 36.4102 3.98771C35.5899 4.97215 34.4699 6.31328 32.3084 6.31328C30.1469 6.31328 29.0269 4.96502 28.2065 3.98771C27.4432 3.0746 27.0009 2.59665 26.1021 2.59665C25.2033 2.59665 24.761 3.0746 23.9977 3.98771C23.1773 4.97215 22.0573 6.32041 19.8958 6.32041C17.7343 6.32041 16.6144 4.97215 15.794 3.98771C15.0307 3.0746 14.5884 2.59665 13.6896 2.59665C12.7907 2.59665 12.3484 3.0746 11.5851 3.98771C10.7648 4.97215 9.64479 6.32041 7.4833 6.32041C5.32181 6.32041 4.20182 4.97215 3.38145 3.98771C2.61815 3.0746 2.183 2.59665 1.28416 2.59665C0.563665 2.59665 -0.0141602 2.01169 -0.0141602 1.29832C-0.0141602 0.584959 0.585066 0 1.29843 0Z" fill="#FFAD00"/>
</g>
<g clip-path="url(#clip1_15_359)">
<path d="M1.29843 10.7004C3.45992 10.7004 4.57991 12.0487 5.40028 13.0331C6.16358 13.9462 6.59873 14.4242 7.49757 14.4242C8.39641 14.4242 8.83869 13.9462 9.60199 13.0331C10.4224 12.0487 11.5423 10.7004 13.7038 10.7004C15.8653 10.7004 16.9853 12.0487 17.8057 13.0331C18.569 13.9462 19.0041 14.4242 19.9101 14.4242C20.8089 14.4242 21.2512 13.9462 22.0145 13.0331C22.8278 12.0487 23.9477 10.7004 26.1092 10.7004C28.2707 10.7004 29.3907 12.0487 30.2111 13.0331C30.9744 13.9462 31.4167 14.4242 32.3155 14.4242C33.2144 14.4242 33.6566 13.9462 34.4199 13.0331C35.2332 12.0487 36.3603 10.7004 38.5147 10.7004C39.2351 10.7004 39.813 11.2854 39.813 11.9988C39.813 12.7121 39.228 13.2971 38.5147 13.2971C37.6158 13.2971 37.1735 13.775 36.4102 14.6881C35.5899 15.6726 34.4699 17.0137 32.3084 17.0137C30.1469 17.0137 29.0269 15.6655 28.2065 14.6881C27.4432 13.775 27.0009 13.2971 26.1021 13.2971C25.2033 13.2971 24.761 13.775 23.9977 14.6881C23.1773 15.6726 22.0573 17.0208 19.8958 17.0208C17.7343 17.0208 16.6144 15.6726 15.794 14.6881C15.0307 13.775 14.5884 13.2971 13.6896 13.2971C12.7907 13.2971 12.3484 13.775 11.5851 14.6881C10.7648 15.6726 9.64479 17.0208 7.4833 17.0208C5.32181 17.0208 4.20182 15.6726 3.38145 14.6881C2.61815 13.775 2.183 13.2971 1.28416 13.2971C0.563665 13.2971 -0.0141602 12.7121 -0.0141602 11.9988C-0.0141602 11.2854 0.585066 10.7004 1.29843 10.7004Z" fill="#FFAD00"/>
</g>
<g clip-path="url(#clip2_15_359)">
<path d="M1.29843 21.4009C3.45992 21.4009 4.57991 22.7491 5.40028 23.7336C6.16358 24.6467 6.59873 25.1246 7.49757 25.1246C8.39641 25.1246 8.83869 24.6467 9.60199 23.7336C10.4224 22.7491 11.5423 21.4009 13.7038 21.4009C15.8653 21.4009 16.9853 22.7491 17.8057 23.7336C18.569 24.6467 19.0041 25.1246 19.9101 25.1246C20.8089 25.1246 21.2512 24.6467 22.0145 23.7336C22.8278 22.7491 23.9477 21.4009 26.1092 21.4009C28.2707 21.4009 29.3907 22.7491 30.2111 23.7336C30.9744 24.6467 31.4167 25.1246 32.3155 25.1246C33.2144 25.1246 33.6566 24.6467 34.4199 23.7336C35.2332 22.7491 36.3603 21.4009 38.5147 21.4009C39.2351 21.4009 39.813 21.9858 39.813 22.6992C39.813 23.4126 39.228 23.9975 38.5147 23.9975C37.6158 23.9975 37.1735 24.4755 36.4102 25.3886C35.5899 26.373 34.4699 27.7142 32.3084 27.7142C30.1469 27.7142 29.0269 26.3659 28.2065 25.3886C27.4432 24.4755 27.0009 23.9975 26.1021 23.9975C25.2033 23.9975 24.761 24.4755 23.9977 25.3886C23.1773 26.373 22.0573 27.7213 19.8958 27.7213C17.7343 27.7213 16.6144 26.373 15.794 25.3886C15.0307 24.4755 14.5884 23.9975 13.6896 23.9975C12.7907 23.9975 12.3484 24.4755 11.5851 25.3886C10.7648 26.373 9.64479 27.7213 7.4833 27.7213C5.32181 27.7213 4.20182 26.373 3.38145 25.3886C2.61815 24.4755 2.183 23.9975 1.28416 23.9975C0.563665 23.9975 -0.0141602 23.4126 -0.0141602 22.6992C-0.0141602 21.9858 0.585066 21.4009 1.29843 21.4009Z" fill="#FFAD00"/>
</g>
<defs>
<clipPath id="clip0_15_359">
<rect width="39.82" height="6.32041" fill="white"/>
</clipPath>
<clipPath id="clip1_15_359">
<rect width="39.82" height="6.32041" fill="white" transform="translate(0 10.7004)"/>
</clipPath>
<clipPath id="clip2_15_359">
<rect width="39.82" height="6.32041" fill="white" transform="translate(0 21.4009)"/>
</clipPath>
</defs>
</svg>
