<svg width="115" height="115" viewBox="0 0 115 115" fill="none" xmlns="http://www.w3.org/2000/svg">
<g id="Frame" clip-path="url(#clip0_15_890)">
<g id="Group">
<g id="Capa 1">
<path id="Vector" d="M114.287 65.363C119.293 34.5715 97.9292 5.62527 66.5699 0.709802C35.2106 -4.20566 5.73061 16.771 0.7245 47.5625C-4.28161 78.354 17.0819 107.3 48.4412 112.216C79.8005 117.131 109.28 96.1545 114.287 65.363Z" fill="#FF7900"/>
<g id="Clip path group">
<mask id="mask0_15_890" style="mask-type:luminance" maskUnits="userSpaceOnUse" x="-1" y="-1" width="117" height="114">
<g id="clippath">
<path id="Vector_2" d="M114.287 65.363C119.293 34.5715 97.9292 5.62527 66.5699 0.709802C35.2106 -4.20566 5.73061 16.771 0.7245 47.5625C-4.28161 78.354 17.0819 107.3 48.4412 112.216C79.8005 117.131 109.28 96.1545 114.287 65.363Z" fill="white"/>
</g>
</mask>
<g mask="url(#mask0_15_890)">
<g id="Group_2">
<g id="Group_3">
<path id="Vector_3" d="M31.1838 52.9844C30.8652 53.4483 29.8763 92.7095 36.8976 100.747H76.674C76.674 100.747 87.5411 70.6028 80.1352 52.9844H30.9531" fill="#49130F"/>
<g id="Group_4">
<path id="Vector_4" d="M69.1472 74.5732H47.1274V89.1384H69.1472V74.5732Z" fill="#F9C2A7"/>
<g id="Vector_5" style="mix-blend-mode:multiply">
<path d="M52.4675 85.1033C55.7859 86.398 59.4229 87.1748 62.994 87.2072C65.0377 87.218 67.1255 86.9698 69.1472 86.6246V74.5732H47.1274V82.104C48.6767 83.4418 50.6545 84.402 52.4675 85.1033Z" fill="#EDEDED"/>
</g>
<g id="Group_5">
<path id="Vector_6" d="M81.9702 47.1584C82.0471 46.6189 82.9701 45.745 83.3767 45.4537C84.2777 44.7956 85.1897 45.4753 85.4534 46.3276C85.6841 47.0936 85.7061 47.9567 85.772 48.7443C85.9149 50.6756 85.6072 52.5744 84.7282 54.3223C84.1348 55.4875 83.2118 56.4477 82.113 57.1706C82.113 57.1706 80.9263 57.7532 80.6956 56.4153L81.9812 47.1584H81.9702Z" fill="#F9C2A7"/>
<path id="Vector_7" d="M81.7834 48.3127C81.8383 47.9243 82.4976 47.3093 82.7943 47.0935C83.4426 46.6188 84.0909 47.1043 84.2886 47.7193C84.4535 48.2695 84.4754 48.8845 84.5194 49.4455C84.6183 50.8265 84.3985 52.1859 83.7722 53.4374C83.3437 54.2682 82.6844 54.9587 81.8933 55.4766C81.8933 55.4766 81.0472 55.8865 80.8824 54.9371L81.8054 48.3127H81.7834Z" fill="#E1B099"/>
</g>
<g id="Group_6">
<path id="Vector_8" d="M33.744 47.1584C33.6671 46.6189 32.7441 45.745 32.3376 45.4537C31.4366 44.7956 30.5246 45.4753 30.2608 46.3276C30.0191 47.0936 29.9971 47.9567 29.9422 48.7443C29.8103 50.6756 30.107 52.5744 30.9861 54.3223C31.5794 55.4875 32.5024 56.4477 33.6012 57.1706C33.6012 57.1706 34.7879 57.7532 35.0186 56.4153L33.733 47.1584H33.744Z" fill="#F9C2A7"/>
<path id="Vector_9" d="M33.9308 48.3127C33.8759 47.9243 33.2166 47.3093 32.9199 47.0935C32.2716 46.6188 31.6234 47.1043 31.4366 47.7193C31.2717 48.2695 31.2498 48.8845 31.2058 49.4455C31.1069 50.8265 31.3267 52.1859 31.953 53.4374C32.3815 54.2682 33.0408 54.9587 33.8319 55.4766C33.8319 55.4766 34.678 55.8865 34.8538 54.9371L33.9308 48.3127Z" fill="#E1B099"/>
</g>
<path id="Vector_10" d="M82.6954 48.8954C82.6954 55.0019 81.6186 61.1733 78.6958 66.4491C76.1356 71.0668 72.2898 74.7674 68.1583 77.7236C64.807 80.1188 61.2139 82.9131 56.9836 82.5679C52.5664 82.2118 49.1272 78.5112 45.8967 75.6305C41.3587 71.5739 37.7766 66.5354 35.568 60.6014C34.2055 56.944 33.5792 52.8226 33.5792 48.8846C33.5792 29.1515 44.5782 16.7441 58.1373 16.7441C71.6964 16.7441 82.6954 29.1515 82.6954 48.8846V48.8954Z" fill="#F9C2A7"/>
<path id="Vector_11" d="M91.6396 95.7195L67.7298 88.6743H48.5448L24.635 95.7195C24.635 95.7195 13.5592 100.348 12.3285 114.989H103.957C102.726 100.348 91.6396 95.7195 91.6396 95.7195Z" fill="#F9C2A7"/>
<path id="Vector_12" d="M91.6396 95.7195L78.4211 91.8247L58.1373 111.72L37.7986 91.8355L24.635 95.7087C24.635 95.7087 13.5592 100.337 12.3285 114.978H103.957C102.726 100.337 91.6396 95.7087 91.6396 95.7087V95.7195Z" fill="#1A7290"/>
</g>
<path id="Vector_13" d="M41.4686 24.5879C41.4686 24.5879 53.2916 43.0047 82.6185 46.1443C82.6185 46.1443 88.1674 25.1597 67.543 14.9641C67.543 14.9641 51.7643 8.5662 41.4686 24.5987V24.5879Z" fill="#712222"/>
<path id="Vector_14" d="M44.5012 28.3211C44.5012 28.3211 36.8646 33.1761 33.5463 46.7163C33.5463 46.7163 29.9971 21.2003 48.369 18.0176L44.4903 28.3319L44.5012 28.3211Z" fill="#432918"/>
<path id="Vector_15" d="M74.4764 44.019C74.4764 44.019 82.3438 93.1737 69.9054 107.091C69.9054 107.091 85.805 104.772 86.5961 83.2802C86.5961 83.2802 89.431 39.3797 78.6738 24.2319L74.4764 44.019Z" fill="#712222"/>
<path id="Vector_16" d="M40.8313 107.091C40.8313 107.091 22.5253 104.955 27.5578 49.6832C27.5578 49.6832 28.8214 18.9777 47.1274 18.2764L46.0725 29.9285C46.0725 29.9285 35.5461 33.0034 36.9086 57.3002C36.9086 57.3002 35.8427 96.4319 40.8313 107.102V107.091Z" fill="#712222"/>
</g>
</g>
</g>
</g>
</g>
</g>
</g>
<defs>
<clipPath id="clip0_15_890">
<rect width="115" height="115" fill="white"/>
</clipPath>
</defs>
</svg>
