<svg width="117" height="34" viewBox="0 0 117 34" fill="none" xmlns="http://www.w3.org/2000/svg">
<path d="M19.228 14.7721C19.228 14.7721 18.2692 10.0747 12.7319 10.0747C7.19469 10.0747 4.42979 15.8498 4.42979 20.51C4.42979 25.1702 8.64404 29.9121 12.7319 29.9121C18.6185 29.9121 20.1793 27.2736 20.1793 23.2303H15.0137C15.0137 23.2303 14.6867 20.51 18.7077 20.51H24.0888V32.5358C24.0888 32.5358 22.5949 31.748 21.9557 29.5033C21.9557 29.5033 19.5922 33.6879 12.7394 33.6879C5.88657 33.6879 0 28.0614 0 20.51C0 12.9585 3.73113 6.70776 12.7394 6.70776C21.7476 6.70776 23.9997 14.8613 23.9997 14.8613L19.2354 14.7721H19.228Z" fill="white"/>
<path d="M36.7093 13.9175C31.343 13.9175 26.9875 18.4067 26.9875 23.944C26.9875 29.4812 31.343 33.9705 36.7093 33.9705C42.0756 33.9705 46.4311 29.4812 46.4311 23.944C46.4311 18.4067 42.0756 13.9175 36.7093 13.9175ZM36.7093 29.89C33.4836 29.89 30.8748 27.2292 30.8748 23.944C30.8748 20.6588 33.491 17.9979 36.7093 17.9979C39.9276 17.9979 42.5438 20.6588 42.5438 23.944C42.5438 27.2292 39.9276 29.89 36.7093 29.89Z" fill="white"/>
<path d="M54.5028 26.1367V9.88922C54.5028 9.88922 54.8298 7.22095 51.6338 7.22095C48.7574 7.22095 48.9135 9.88922 48.9135 9.88922C48.9135 9.88922 48.75 12.0149 50.5561 12.0892L50.4966 33.2497H54.5102L66.4617 15.0623V31.1091C66.4617 31.1091 66.1793 33.6808 68.8327 33.6808C71.6571 33.6808 71.8206 31.1091 71.8206 31.1091C71.8206 31.1091 71.9618 29.1469 70.3787 28.9685L70.3638 7.65202H66.5286L54.5028 26.1367Z" fill="white"/>
<path d="M54.2501 4.19575C54.2501 4.19575 54.0196 0.747057 57.1859 0.739624C60.315 0.739624 60.8278 2.04032 63.7563 2.04032C65.8151 2.04032 66.1124 1.20044 66.1124 1.20044C66.1124 1.20044 66.2313 4.58967 63.8529 4.58967C60.5826 4.58967 59.6832 3.43763 57.2974 3.44507C55.2089 3.44507 54.2501 4.19575 54.2501 4.19575Z" fill="white"/>
<path d="M78.5545 16.9872L78.5248 14.8615H74.868V31.109C74.868 31.109 74.7045 33.6806 77.3727 33.6806C80.041 33.6806 80.0856 31.109 80.0856 31.109C80.0856 31.109 80.1005 28.9684 78.7552 28.9684L78.7403 21.6028C78.7403 21.6028 80.7025 18.3919 84.2924 18.3919C87.8823 18.3919 88.6925 20.4507 88.6925 20.4507C88.6925 20.4507 91.4797 14.304 83.9134 14.304C81.1931 14.304 78.5619 16.9872 78.5619 16.9872H78.5545Z" fill="white"/>
<path d="M116.951 9.77029C116.951 9.77029 117.56 7.38445 114.483 7.13918C112.038 6.94593 111.86 9.82975 111.86 9.82975L110.321 27.0286H114.246L115.621 11.1081C115.621 11.1081 116.617 11.175 116.951 9.77029Z" fill="white"/>
<path d="M112.083 33.3386C113.216 33.3386 114.134 32.4202 114.134 31.2872C114.134 30.1543 113.216 29.2358 112.083 29.2358C110.95 29.2358 110.031 30.1543 110.031 31.2872C110.031 32.4202 110.95 33.3386 112.083 33.3386Z" fill="white"/>
<path d="M106.047 23.2376V18.6294C106.047 18.6294 105.936 14.2071 98.377 14.2071C91.6357 14.2071 90.7959 17.1429 90.7959 18.0274C90.7959 19.8558 92.3864 21.3052 92.3864 21.3052C92.3864 21.3052 94.0513 17.2024 99.3135 17.2024C99.3135 17.2024 102.101 17.195 102.101 19.2761C102.101 21.3572 100.696 21.9815 97.7155 22.2268C94.8912 22.4572 90.1492 23.8545 90.1492 27.8086C90.1492 31.7627 93.3378 33.7695 96.2588 33.7695C98.496 33.7695 100.265 33.4128 101.595 32.7067C103.647 31.6141 104.353 30.6479 104.353 30.6479C104.843 32.3648 105.958 33.0114 106.047 33.056V23.2302V23.2376ZM97.8047 30.3134C94.1405 30.3134 94.1851 27.8086 94.1851 27.8086C94.1851 27.8086 93.754 25.3485 99.2392 24.7687C101.187 24.5606 102.108 23.8099 102.108 23.8099V28.5147C102.108 28.5147 101.112 30.2985 97.8047 30.306V30.3134Z" fill="white"/>
</svg>
