<svg width="152" height="51" viewBox="0 0 152 51" fill="none" xmlns="http://www.w3.org/2000/svg">
<rect width="152" height="51" rx="25.5" fill="#FF7900"/>
<path d="M36.228 21.0326C36.228 21.0326 35.2692 16.3352 29.7319 16.3352C24.1947 16.3352 21.4298 22.1103 21.4298 26.7705C21.4298 31.4307 25.644 36.1726 29.7319 36.1726C35.6185 36.1726 37.1793 33.5341 37.1793 29.4908H32.0137C32.0137 29.4908 31.6867 26.7705 35.7077 26.7705H41.0888V38.7963C41.0888 38.7963 39.5949 38.0085 38.9557 35.7638C38.9557 35.7638 36.5922 39.9484 29.7394 39.9484C22.8866 39.9484 17 34.3219 17 26.7705C17 19.219 20.7311 12.9683 29.7394 12.9683C38.7476 12.9683 40.9997 21.1218 40.9997 21.1218L36.2354 21.0326H36.228Z" fill="white"/>
<path d="M53.7091 20.1777C48.3428 20.1777 43.9873 24.667 43.9873 30.2042C43.9873 35.7415 48.3428 40.2307 53.7091 40.2307C59.0754 40.2307 63.4308 35.7415 63.4308 30.2042C63.4308 24.667 59.0754 20.1777 53.7091 20.1777ZM53.7091 36.1503C50.4833 36.1503 47.8745 33.4894 47.8745 30.2042C47.8745 26.919 50.4908 24.2582 53.7091 24.2582C56.9273 24.2582 59.5436 26.919 59.5436 30.2042C59.5436 33.4894 56.9273 36.1503 53.7091 36.1503Z" fill="white"/>
<path d="M71.5023 32.3972V16.1497C71.5023 16.1497 71.8293 13.4814 68.6333 13.4814C65.7569 13.4814 65.913 16.1497 65.913 16.1497C65.913 16.1497 65.7495 18.2754 67.5556 18.3497L67.4962 39.5102H71.5097L83.4612 21.3228V37.3696C83.4612 37.3696 83.1788 39.9413 85.8322 39.9413C88.6566 39.9413 88.8201 37.3696 88.8201 37.3696C88.8201 37.3696 88.9613 35.4074 87.3782 35.229L87.3633 13.9125H83.5281L71.5023 32.3972Z" fill="white"/>
<path d="M71.2498 10.4561C71.2498 10.4561 71.0194 7.00743 74.1857 7C77.3148 7 77.8276 8.30069 80.756 8.30069C82.8148 8.30069 83.1121 7.46081 83.1121 7.46081C83.1121 7.46081 83.2311 10.85 80.8526 10.85C77.5823 10.85 76.683 9.69801 74.2972 9.70544C72.2086 9.70544 71.2498 10.4561 71.2498 10.4561Z" fill="white"/>
<path d="M95.5547 23.2476L95.525 21.1219H91.8682V37.3694C91.8682 37.3694 91.7046 39.9411 94.3729 39.9411C97.0412 39.9411 97.0858 37.3694 97.0858 37.3694C97.0858 37.3694 97.1007 35.2288 95.7554 35.2288L95.7405 27.8632C95.7405 27.8632 97.7027 24.6523 101.293 24.6523C104.883 24.6523 105.693 26.7112 105.693 26.7112C105.693 26.7112 108.48 20.5645 100.914 20.5645C98.1932 20.5645 95.5621 23.2476 95.5621 23.2476H95.5547Z" fill="white"/>
<path d="M133.951 16.0305C133.951 16.0305 134.561 13.6447 131.484 13.3994C129.038 13.2062 128.86 16.09 128.86 16.09L127.321 33.2889H131.246L132.621 17.3684C132.621 17.3684 133.617 17.4353 133.951 16.0305Z" fill="white"/>
<path d="M129.083 39.5989C130.216 39.5989 131.134 38.6804 131.134 37.5475C131.134 36.4145 130.216 35.4961 129.083 35.4961C127.95 35.4961 127.031 36.4145 127.031 37.5475C127.031 38.6804 127.95 39.5989 129.083 39.5989Z" fill="white"/>
<path d="M123.048 29.4978V24.8896C123.048 24.8896 122.936 20.4673 115.377 20.4673C108.636 20.4673 107.796 23.4031 107.796 24.2876C107.796 26.116 109.387 27.5654 109.387 27.5654C109.387 27.5654 111.051 23.4626 116.314 23.4626C116.314 23.4626 119.101 23.4552 119.101 25.5363C119.101 27.6174 117.696 28.2417 114.716 28.487C111.891 28.7174 107.149 30.1147 107.149 34.0688C107.149 38.0229 110.338 40.0297 113.259 40.0297C115.496 40.0297 117.265 39.673 118.596 38.9669C120.647 37.8743 121.353 36.908 121.353 36.908C121.844 38.625 122.958 39.2716 123.048 39.3162V29.4904V29.4978ZM114.805 36.5736C111.141 36.5736 111.185 34.0688 111.185 34.0688C111.185 34.0688 110.754 31.6087 116.239 31.0289C118.187 30.8208 119.108 30.0701 119.108 30.0701V34.7749C119.108 34.7749 118.112 36.5587 114.805 36.5662V36.5736Z" fill="white"/>
</svg>
