<svg width="117" height="34" viewBox="0 0 117 34" fill="none" xmlns="http://www.w3.org/2000/svg">
<path d="M19.228 14.7723C19.228 14.7723 18.2692 10.0749 12.7319 10.0749C7.19469 10.0749 4.42979 15.85 4.42979 20.5102C4.42979 25.1704 8.64404 29.9124 12.7319 29.9124C18.6185 29.9124 20.1793 27.2738 20.1793 23.2305H15.0137C15.0137 23.2305 14.6867 20.5102 18.7077 20.5102H24.0888V32.5361C24.0888 32.5361 22.5949 31.7482 21.9557 29.5036C21.9557 29.5036 19.5922 33.6881 12.7394 33.6881C5.88657 33.6881 0 28.0617 0 20.5102C0 12.9588 3.73113 6.70801 12.7394 6.70801C21.7476 6.70801 23.9997 14.8615 23.9997 14.8615L19.2354 14.7723H19.228Z" fill="white"/>
<path d="M36.7093 13.9175C31.343 13.9175 26.9875 18.4067 26.9875 23.944C26.9875 29.4812 31.343 33.9705 36.7093 33.9705C42.0756 33.9705 46.431 29.4812 46.431 23.944C46.431 18.4067 42.0756 13.9175 36.7093 13.9175ZM36.7093 29.89C33.4836 29.89 30.8748 27.2292 30.8748 23.944C30.8748 20.6588 33.491 17.9979 36.7093 17.9979C39.9276 17.9979 42.5438 20.6588 42.5438 23.944C42.5438 27.2292 39.9276 29.89 36.7093 29.89Z" fill="white"/>
<path d="M54.5028 26.137V9.88947C54.5028 9.88947 54.8298 7.22119 51.6338 7.22119C48.7574 7.22119 48.9135 9.88947 48.9135 9.88947C48.9135 9.88947 48.75 12.0152 50.5561 12.0895L50.4966 33.2499H54.5102L66.4617 15.0625V31.1094C66.4617 31.1094 66.1793 33.681 68.8327 33.681C71.657 33.681 71.8206 31.1094 71.8206 31.1094C71.8206 31.1094 71.9618 29.1472 70.3787 28.9688L70.3638 7.65227H66.5286L54.5028 26.137Z" fill="white"/>
<path d="M54.2501 4.19587C54.2501 4.19587 54.0197 0.747179 57.1859 0.739746C60.315 0.739746 60.8279 2.04044 63.7563 2.04044C65.8151 2.04044 66.1124 1.20056 66.1124 1.20056C66.1124 1.20056 66.2313 4.58979 63.8529 4.58979C60.5826 4.58979 59.6832 3.43776 57.2974 3.44519C55.2089 3.44519 54.2501 4.19587 54.2501 4.19587Z" fill="white"/>
<path d="M78.5545 16.9873L78.5248 14.8616H74.868V31.1092C74.868 31.1092 74.7044 33.6808 77.3727 33.6808C80.041 33.6808 80.0856 31.1092 80.0856 31.1092C80.0856 31.1092 80.1005 28.9686 78.7552 28.9686L78.7403 21.6029C78.7403 21.6029 80.7025 18.3921 84.2924 18.3921C87.8823 18.3921 88.6925 20.4509 88.6925 20.4509C88.6925 20.4509 91.4797 14.3042 83.9133 14.3042C81.193 14.3042 78.5619 16.9873 78.5619 16.9873H78.5545Z" fill="white"/>
<path d="M116.951 9.77029C116.951 9.77029 117.56 7.38445 114.483 7.13918C112.038 6.94593 111.86 9.82975 111.86 9.82975L110.321 27.0286H114.246L115.621 11.1081C115.621 11.1081 116.617 11.175 116.951 9.77029Z" fill="white"/>
<path d="M112.083 33.3386C113.216 33.3386 114.134 32.4202 114.134 31.2872C114.134 30.1543 113.216 29.2358 112.083 29.2358C110.95 29.2358 110.031 30.1543 110.031 31.2872C110.031 32.4202 110.95 33.3386 112.083 33.3386Z" fill="white"/>
<path d="M106.047 23.2376V18.6294C106.047 18.6294 105.936 14.207 98.3771 14.207C91.6357 14.207 90.7959 17.1429 90.7959 18.0274C90.7959 19.8558 92.3864 21.3051 92.3864 21.3051C92.3864 21.3051 94.0513 17.2023 99.3136 17.2023C99.3136 17.2023 102.101 17.1949 102.101 19.276C102.101 21.3571 100.696 21.9815 97.7156 22.2267C94.8912 22.4571 90.1492 23.8545 90.1492 27.8086C90.1492 31.7627 93.3378 33.7695 96.2588 33.7695C98.496 33.7695 100.265 33.4127 101.595 32.7066C103.647 31.614 104.353 30.6478 104.353 30.6478C104.843 32.3647 105.958 33.0113 106.047 33.0559V23.2301V23.2376ZM97.8048 30.3133C94.1405 30.3133 94.1851 27.8086 94.1851 27.8086C94.1851 27.8086 93.754 25.3484 99.2392 24.7687C101.187 24.5606 102.108 23.8099 102.108 23.8099V28.5147C102.108 28.5147 101.112 30.2985 97.8048 30.3059V30.3133Z" fill="white"/>
</svg>
