<svg width="117" height="34" viewBox="0 0 117 34" fill="none" xmlns="http://www.w3.org/2000/svg">
<g id="Go&#208;&#153;ra Logo vector">
<path id="Vector" d="M19.228 14.0326C19.228 14.0326 18.2692 9.3352 12.7319 9.3352C7.19469 9.3352 4.42979 15.1103 4.42979 19.7705C4.42979 24.4307 8.64404 29.1726 12.7319 29.1726C18.6185 29.1726 20.1793 26.5341 20.1793 22.4908H15.0137C15.0137 22.4908 14.6867 19.7705 18.7077 19.7705H24.0888V31.7963C24.0888 31.7963 22.5949 31.0085 21.9557 28.7638C21.9557 28.7638 19.5922 32.9484 12.7394 32.9484C5.88657 32.9484 0 27.3219 0 19.7705C0 12.219 3.73113 5.96826 12.7394 5.96826C21.7476 5.96826 23.9997 14.1218 23.9997 14.1218L19.2354 14.0326H19.228Z" fill="white"/>
<path id="Vector_2" d="M36.7093 13.1777C31.343 13.1777 26.9875 17.667 26.9875 23.2042C26.9875 28.7415 31.343 33.2307 36.7093 33.2307C42.0756 33.2307 46.431 28.7415 46.431 23.2042C46.431 17.667 42.0756 13.1777 36.7093 13.1777ZM36.7093 29.1503C33.4836 29.1503 30.8748 26.4894 30.8748 23.2042C30.8748 19.919 33.491 17.2582 36.7093 17.2582C39.9276 17.2582 42.5438 19.919 42.5438 23.2042C42.5438 26.4894 39.9276 29.1503 36.7093 29.1503Z" fill="white"/>
<path id="Vector_3" d="M54.5028 25.3972V9.14972C54.5028 9.14972 54.8298 6.48145 51.6338 6.48145C48.7574 6.48145 48.9135 9.14972 48.9135 9.14972C48.9135 9.14972 48.75 11.2754 50.5561 11.3497L50.4966 32.5102H54.5102L66.4617 14.3228V30.3696C66.4617 30.3696 66.1793 32.9413 68.8327 32.9413C71.657 32.9413 71.8206 30.3696 71.8206 30.3696C71.8206 30.3696 71.9618 28.4074 70.3787 28.229L70.3638 6.91252H66.5286L54.5028 25.3972Z" fill="white"/>
<path id="Vector_4" d="M54.2501 3.45612C54.2501 3.45612 54.0197 0.00743253 57.1859 0C60.315 0 60.8279 1.30069 63.7563 1.30069C65.8151 1.30069 66.1124 0.460814 66.1124 0.460814C66.1124 0.460814 66.2313 3.85005 63.8529 3.85005C60.5826 3.85005 59.6832 2.69801 57.2974 2.70544C55.2089 2.70544 54.2501 3.45612 54.2501 3.45612Z" fill="white"/>
<path id="Vector_5" d="M78.5545 16.2476L78.5248 14.1219H74.868V30.3694C74.868 30.3694 74.7044 32.9411 77.3727 32.9411C80.041 32.9411 80.0856 30.3694 80.0856 30.3694C80.0856 30.3694 80.1005 28.2288 78.7552 28.2288L78.7403 20.8632C78.7403 20.8632 80.7025 17.6523 84.2924 17.6523C87.8823 17.6523 88.6925 19.7112 88.6925 19.7112C88.6925 19.7112 91.4797 13.5645 83.9133 13.5645C81.193 13.5645 78.5619 16.2476 78.5619 16.2476H78.5545Z" fill="white"/>
<path id="Vector_6" d="M116.951 9.03054C116.951 9.03054 117.56 6.64471 114.483 6.39943C112.038 6.20619 111.86 9.09001 111.86 9.09001L110.321 26.2889H114.246L115.621 10.3684C115.621 10.3684 116.617 10.4353 116.951 9.03054Z" fill="white"/>
<path id="Vector_7" d="M112.083 32.5989C113.216 32.5989 114.134 31.6804 114.134 30.5475C114.134 29.4145 113.216 28.4961 112.083 28.4961C110.95 28.4961 110.031 29.4145 110.031 30.5475C110.031 31.6804 110.95 32.5989 112.083 32.5989Z" fill="white"/>
<path id="Vector_8" d="M106.047 22.4978V17.8896C106.047 17.8896 105.936 13.4673 98.3771 13.4673C91.6357 13.4673 90.7959 16.4031 90.7959 17.2876C90.7959 19.116 92.3864 20.5654 92.3864 20.5654C92.3864 20.5654 94.0513 16.4626 99.3136 16.4626C99.3136 16.4626 102.101 16.4552 102.101 18.5363C102.101 20.6174 100.696 21.2417 97.7156 21.487C94.8912 21.7174 90.1492 23.1147 90.1492 27.0688C90.1492 31.0229 93.3378 33.0297 96.2588 33.0297C98.496 33.0297 100.265 32.673 101.595 31.9669C103.647 30.8743 104.353 29.908 104.353 29.908C104.843 31.625 105.958 32.2716 106.047 32.3162V22.4904V22.4978ZM97.8048 29.5736C94.1405 29.5736 94.1851 27.0688 94.1851 27.0688C94.1851 27.0688 93.754 24.6087 99.2392 24.0289C101.187 23.8208 102.108 23.0701 102.108 23.0701V27.7749C102.108 27.7749 101.112 29.5587 97.8048 29.5662V29.5736Z" fill="white"/>
</g>
</svg>
