<svg width="390" height="1674" viewBox="0 0 390 1674" fill="none" xmlns="http://www.w3.org/2000/svg">
<g filter="url(#filter0_b_15_543)">
<path d="M-73.6793 47.3297L25.4634 4.61007C30.1309 2.596 36.5656 2.52854 41.3677 4.43661L139.483 43.5136C144.429 45.4891 151.094 45.3445 155.771 43.1763L166.681 38.1074C171.464 35.8909 178.293 35.7945 183.248 37.8761L232.171 58.4409C236.82 60.3971 243.149 60.4453 247.903 58.5758L257.91 54.6247C262.626 52.7648 268.897 52.8034 273.536 54.7211L282.487 58.4119C287.251 60.3778 293.714 60.3586 298.439 58.3734L377.75 25.0496C382.6 23.0066 389.255 23.0548 394.029 25.146L411.383 32.759C416.752 35.1103 424.368 34.8405 429.17 32.1229C433.991 29.3861 441.655 29.1259 447.024 31.5158L486.401 49.0258C491.366 51.2326 498.377 51.194 503.256 48.9294L524.173 39.2252C528.793 37.0859 535.343 36.9124 540.279 38.8205L553.379 43.8605C558.056 45.6626 564.213 45.6144 568.803 43.7545L667.533 3.6464C671.24 2.14307 676.042 1.79615 680.297 2.74055L764.198 21.3298C768.549 22.2935 773.456 21.9176 777.192 20.3276L821.409 1.52632C826.24 -0.526303 832.905 -0.50703 837.698 1.5745L869.718 15.4899C873.05 16.9355 875 19.1808 875 21.5611V1666.36C875 1670.58 875 1674 875 1674H-79C-79 1674 -79 1670.58 -79 1666.36V53.4201C-79 51.0302 -77.0312 48.7752 -73.6793 47.3297Z" fill="#505A14" fill-opacity="0.5"/>
</g>
<defs>
<filter id="filter0_b_15_543" x="-87" y="-8" width="970" height="1690" filterUnits="userSpaceOnUse" color-interpolation-filters="sRGB">
<feFlood flood-opacity="0" result="BackgroundImageFix"/>
<feGaussianBlur in="BackgroundImageFix" stdDeviation="4"/>
<feComposite in2="SourceAlpha" operator="in" result="effect1_backgroundBlur_15_543"/>
<feBlend mode="normal" in="SourceGraphic" in2="effect1_backgroundBlur_15_543" result="shape"/>
</filter>
</defs>
</svg>
