<svg width="390" height="2606" viewBox="0 0 390 2606" fill="none" xmlns="http://www.w3.org/2000/svg">
<path d="M-1112 67.5686L-901.083 9.53731C-863.472 -0.801001 -821.255 -2.81065 -781.575 3.88128L-523.369 47.3478C-496.27 51.9057 -467.836 52.4651 -440.337 48.943L-419.212 46.2497C-392.247 42.8105 -364.38 43.2663 -337.749 47.5756L-42.0651 95.5794C-9.55981 100.862 24.6807 100.345 56.7186 94.1291L240.203 58.5355C273.576 52.0508 309.285 51.7814 342.891 57.7482C378.967 64.1501 417.38 63.3628 452.688 55.4899L477.05 50.0618C503.715 44.1157 532.283 42.189 560.416 44.4265L1052.97 83.6665C1077.03 85.5726 1101.42 84.4538 1124.75 80.3309L1503 13.6188V2494.74C1503 2556.19 1503 2606 1503 2606H-1112C-1112 2606 -1112 2556.19 -1112 2494.74V67.5686Z" fill="#FFF0E8"/>
</svg>
