<svg width="390" height="941" viewBox="0 0 390 941" fill="none" xmlns="http://www.w3.org/2000/svg">
<g opacity="0.5" filter="url(#filter0_b_58_155)">
<path d="M-1701 79.9509L-1579.24 30.6366C-1557.53 21.8512 -1533.16 20.1434 -1510.25 25.8302L-1361.19 62.7675C-1345.55 66.6408 -1329.13 67.1162 -1313.26 64.1231L-1301.06 61.8344C-1285.5 58.9118 -1269.41 59.2991 -1254.04 62.9611L-1083.34 103.754C-1064.58 108.244 -1044.81 107.804 -1026.32 102.522L-920.393 72.2747C-901.127 66.764 -880.513 66.5352 -861.112 71.6057C-840.286 77.0459 -818.111 76.3769 -797.728 69.6866L-783.664 65.0739C-768.271 60.021 -751.779 58.3836 -735.538 60.285L-451.196 93.6308C-437.305 95.2505 -423.222 94.2998 -409.755 90.7962L-174.29 48.5986L-1.93896 60.1965C-1.06689 60.2552 -0.190796 60.1865 0.661621 59.9926L112.513 34.5484C113.797 34.2563 115.13 34.2495 116.416 34.5285L260.809 65.831C261.736 66.0321 262.69 66.0852 263.633 65.9884L377.813 54.2859L563.431 48.6294C564.102 48.609 564.768 48.5136 565.417 48.3452L750.404 0.35812C751.859 -0.0194596 753.386 -0.0263218 754.845 0.338161L890 34.105V845.5C890 897.719 890 940.044 890 940.044H-1701C-1701 940.044 -1701 897.719 -1701 845.5V79.9509Z" fill="#2B3D24"/>
</g>
<defs>
<filter id="filter0_b_58_155" x="-1709" y="-7.93018" width="2607" height="955.974" filterUnits="userSpaceOnUse" color-interpolation-filters="sRGB">
<feFlood flood-opacity="0" result="BackgroundImageFix"/>
<feGaussianBlur in="BackgroundImageFix" stdDeviation="4"/>
<feComposite in2="SourceAlpha" operator="in" result="effect1_backgroundBlur_58_155"/>
<feBlend mode="normal" in="SourceGraphic" in2="effect1_backgroundBlur_58_155" result="shape"/>
</filter>
</defs>
</svg>
