<svg width="390" height="972" viewBox="0 0 390 972" fill="none" xmlns="http://www.w3.org/2000/svg">
<g opacity="0.6" filter="url(#filter0_b_58_154)">
<path d="M-1704.75 84.8593L-1635.65 9.23584C-1632.05 5.2962 -1626.96 3.05198 -1621.62 3.05198H-1618.18C-1614.48 3.05198 -1610.85 4.13679 -1607.75 6.17272L-1524.24 61.0433C-1507.82 71.8302 -1486.24 70.4272 -1471.36 57.6051L-1467 53.8538C-1464.04 51.2994 -1460.54 49.4326 -1456.77 48.3872C-1448.45 46.0805 -1439.53 47.9681 -1432.85 53.4468L-1423.15 61.4122C-1410.2 72.042 -1392.34 74.395 -1377.08 67.4814L-1277.25 22.2566C-1270.01 19.3051 -1260.03 19.2063 -1252.58 22.0024L-1100.4 79.267C-1092.73 82.162 -1082.39 81.9501 -1075.13 78.7727L-1058.21 71.3446C-1050.79 68.0965 -1040.2 67.9553 -1032.52 71.0056L-956.632 101.142C-949.423 104.009 -939.606 104.079 -932.232 101.34L-916.71 95.5496C-909.396 92.8241 -899.668 92.8805 -892.473 95.6908L-878.59 101.1C-871.201 103.98 -861.176 103.952 -853.847 101.043L-730.832 52.2093C-723.309 49.2154 -712.986 49.286 -705.582 52.3505L-678.664 63.5069C-670.337 66.9526 -658.524 66.5572 -651.076 62.5748C-643.598 58.5642 -631.71 58.1829 -623.383 61.6851L-562.308 87.3447C-554.606 90.5787 -543.732 90.5222 -536.164 87.2035L-503.72 72.9827C-496.555 69.8476 -486.395 69.5934 -478.739 72.3896L-458.42 79.7754C-451.165 82.4162 -441.616 82.3456 -434.496 79.62L-281.36 20.8444C-275.61 18.6414 -268.162 18.133 -261.562 19.517L-131.427 46.7582C-124.679 48.1704 -117.067 47.6197 -111.272 45.2895L-42.6885 17.7376C-35.1956 14.7296 -24.8574 14.7579 -17.4241 17.8082L48.5463 40.6494C59.7549 44.5302 72.0951 43.3666 82.3807 37.4589L95.4937 29.9273C103.653 25.2408 113.177 23.5036 122.465 25.0071L124.009 25.257C127.2 25.7736 130.319 26.6658 133.301 27.9151L174.77 45.2895L215.676 35.1318L247.998 45.2895L330.682 10.3546C333.7 9.07939 337.151 9.36368 339.92 11.1156L362.205 25.2153C363.063 25.7583 363.834 26.4289 364.49 27.204L406.192 76.4559C407.685 78.2186 409.741 79.4104 412.013 79.8287L419.23 81.1578C420.635 81.4165 422.071 80.9066 422.998 79.8199L457.306 39.6006C458.089 38.6827 459.095 37.9827 460.229 37.5686L510.87 19.0641C513.129 18.2385 515.654 18.6308 517.556 20.103L552 46.7582L592.5 17.7376L600.88 12.8046C605.686 9.97555 611.531 9.53379 616.708 11.6085L632 17.7376L662.063 30.741C667.08 32.9111 672.811 32.6838 677.641 30.1231L691.565 22.7403C697.382 19.6561 704.418 19.9938 709.913 23.6208L730.302 37.0796C731.43 37.8244 732.471 38.6939 733.405 39.6717L751.182 58.2904C754.578 61.8476 759.282 63.8601 764.201 63.8601H769.025C774.677 63.8601 780 61.2057 783.401 56.6919L804.655 28.4833C805.876 26.8625 807.363 25.4599 809.052 24.3347L839.998 3.71936C847.238 -1.1034 856.89 -0.0587978 862.931 6.2011L893.807 38.2003C898.976 40.3186 902 43.609 902 47.0971V969.251C902 975.436 31.0789 969.251 19.5192 969.251H-1713C-1713 969.251 -1713 964.237 -1713 958.052V93.7843C-1713 90.2821 -1709.95 86.9776 -1704.75 84.8593Z" fill="#505A14"/>
</g>
<defs>
<filter id="filter0_b_58_154" x="-1721" y="-7.30078" width="2631" height="987.301" filterUnits="userSpaceOnUse" color-interpolation-filters="sRGB">
<feFlood flood-opacity="0" result="BackgroundImageFix"/>
<feGaussianBlur in="BackgroundImageFix" stdDeviation="4"/>
<feComposite in2="SourceAlpha" operator="in" result="effect1_backgroundBlur_58_154"/>
<feBlend mode="normal" in="SourceGraphic" in2="effect1_backgroundBlur_58_154" result="shape"/>
</filter>
</defs>
</svg>
