<svg width="390" height="2705" viewBox="0 0 390 2705" fill="none" xmlns="http://www.w3.org/2000/svg">
<path d="M-1099.16 102.029L-859.863 9.938C-848.597 5.59623 -833.066 5.45081 -821.476 9.56406L-584.662 93.8027C-572.723 98.0614 -556.636 97.7498 -545.347 93.0757L-519.014 82.1485C-507.47 77.3705 -490.988 77.1628 -479.027 81.6499L-360.944 125.982C-349.725 130.199 -334.449 130.303 -322.974 126.273L-298.82 117.755C-287.438 113.746 -272.301 113.829 -261.105 117.963L-239.5 125.919C-228.003 130.157 -212.402 130.116 -200.997 125.836L-9.56897 53.9997C2.13733 49.5956 18.2015 49.6995 29.7224 54.2074L71.6101 70.6189C84.5681 75.6878 102.951 75.1061 114.541 69.2478C126.178 63.348 144.676 62.7871 157.634 67.9391L252.675 105.685C264.659 110.443 281.581 110.36 293.357 105.478L343.845 84.5583C354.995 79.9465 370.804 79.5725 382.719 83.6858L414.337 94.5506C425.626 98.4354 440.485 98.3315 451.566 94.3221L689.864 7.86059C698.812 4.61985 710.402 3.87198 720.671 5.90784L923.178 45.9809C933.679 48.0583 945.524 47.2481 954.542 43.8204L1061.27 3.29031C1072.93 -1.13456 1089.01 -1.09301 1100.58 3.39418L1490.25 33.3919C1498.29 36.508 1503 41.3483 1503 46.4795V2688.53C1503 2697.62 1503 2705 1503 2705H-1112C-1112 2705 -1112 2697.62 -1112 2688.53V115.158C-1112 110.006 -1107.25 105.145 -1099.16 102.029Z" fill="#FEF7F3"/>
</svg>
